<svg width="44" height="44" viewBox="0 0 44 44" fill="none" xmlns="http://www.w3.org/2000/svg">
<path d="M20.964 41.331C30.3416 41.331 36.6058 35.0108 36.6058 25.4467C36.6058 9.61843 23.0893 3 13.7303 3C12.0151 3 10.9151 3.61523 10.9151 4.80842C10.9151 5.2745 11.1202 5.75923 11.4931 6.20668C13.6184 8.74219 15.6879 11.6692 15.7251 15.1183C15.7251 15.5284 15.7065 15.9199 15.5946 16.3301C14.6065 14.2234 12.8168 12.881 11.2134 12.881C10.449 12.881 9.92702 13.4403 9.92702 14.2793C9.92702 14.764 10.0575 15.8081 10.0575 16.6097C10.0575 20.5994 7 22.818 7 29.2314C7 36.5023 12.5558 41.331 20.964 41.331ZM21.3741 36.204C18.0929 36.204 15.9116 34.2278 15.9116 31.2635C15.9116 28.1873 18.0929 27.106 18.3725 25.0739C18.4098 24.8688 18.5403 24.8129 18.6895 24.9434C19.4911 25.6518 20.0131 26.5467 20.4419 27.5721C21.3555 26.267 21.7656 23.6383 21.4673 20.8045C21.43 20.6181 21.5792 20.5062 21.747 20.5808C25.5875 22.3706 27.601 26.1925 27.601 29.6602C27.601 33.1651 25.5316 36.204 21.3741 36.204Z" fill="#FF0099"/>
</svg>
