<svg width="500" height="500" viewBox="0 0 500 500" fill="none" xmlns="http://www.w3.org/2000/svg">
<path d="M427.98 160.341C420.707 160.32 413.534 162.043 407.064 165.367L322.753 78.8736V60.0671H383.798C387.093 70.6334 394.066 79.669 403.452 85.5357C412.838 91.4025 424.016 93.7119 434.959 92.0453C445.902 90.3787 455.885 84.8463 463.099 76.4514C470.313 68.0564 474.279 57.3547 474.279 46.2865C474.279 35.2184 470.313 24.5167 463.099 16.1217C455.885 7.72677 445.902 2.19449 434.959 0.527864C424.016 -1.13876 412.838 1.17067 403.452 7.03741C394.066 12.9042 387.093 21.9398 383.798 32.506H322.753V4.86379H177.477V32.506H116.432C113.137 21.9622 106.174 12.9476 96.8036 7.0961C87.4333 1.24463 76.2766 -1.05649 65.3555 0.609871C54.4344 2.27624 44.4717 7.79978 37.2732 16.1794C30.0747 24.5589 26.1169 35.24 26.1169 46.2865C26.1169 57.3331 30.0747 68.0142 37.2732 76.3937C44.4717 84.7733 54.4344 90.2969 65.3555 91.9632C76.2766 93.6296 87.4333 91.3285 96.8036 85.4771C106.174 79.6256 113.137 70.611 116.432 60.0671H177.477V78.8736L93.2467 165.367C86.2006 161.773 78.3498 160.048 70.4461 160.357C62.5423 160.665 54.8502 162.998 48.1059 167.13C41.3617 171.262 35.7912 177.057 31.9277 183.958C28.0643 190.86 26.0372 198.637 26.0405 206.546C25.7794 212.782 26.7822 219.007 28.9888 224.845C31.1953 230.684 34.5599 236.016 38.8804 240.521C43.2008 245.025 48.3877 248.61 54.1293 251.058C59.8708 253.507 66.0484 254.769 72.2904 254.769C78.5323 254.769 84.7098 253.507 90.4514 251.058C96.1929 248.61 101.38 245.025 105.7 240.521C110.021 236.016 113.385 230.684 115.592 224.845C117.798 219.007 118.801 212.782 118.54 206.546C118.546 198.871 116.622 191.317 112.946 184.579L177.802 118.432V150.127H194.015L115.054 322.708C113.11 322.588 111.161 322.588 109.217 322.708C98.3774 322.695 87.8754 326.479 79.5358 333.403C71.1962 340.327 65.546 349.954 63.567 360.611C61.588 371.267 63.4052 382.281 68.7029 391.737C74.0006 401.193 82.4439 408.495 92.566 412.373C102.688 416.252 113.849 416.462 124.11 412.967C134.371 409.473 143.083 402.494 148.733 393.244C154.383 383.994 156.614 373.057 155.038 362.333C153.461 351.609 148.177 341.777 140.104 334.544L224.335 150.127H236.658V409.526C226.09 412.821 217.054 419.794 211.187 429.179C205.32 438.564 203.01 449.741 204.677 460.683C206.343 471.625 211.876 481.608 220.272 488.821C228.668 496.034 239.37 500 250.439 500C261.508 500 272.211 496.034 280.607 488.821C289.002 481.608 294.535 471.625 296.202 460.683C297.869 449.741 295.559 438.564 289.692 429.179C283.824 419.794 274.788 412.821 264.221 409.526V150.127H276.543L360.774 334.138C352.722 341.362 347.455 351.178 345.887 361.881C344.319 372.585 346.55 383.499 352.191 392.728C357.833 401.958 366.53 408.921 376.771 412.407C387.012 415.893 398.151 415.682 408.252 411.811C418.354 407.941 426.781 400.654 432.07 391.218C437.359 381.781 439.175 370.791 437.204 360.154C435.232 349.518 429.597 339.908 421.278 332.994C412.958 326.079 402.479 322.297 391.661 322.303C389.718 322.177 387.768 322.177 385.824 322.303L306.863 149.722H323.077V118.432L387.932 184.579C384.281 191.323 382.385 198.877 382.419 206.546C382.403 215.708 385.107 224.668 390.187 232.292C395.267 239.916 402.496 245.862 410.958 249.375C419.419 252.888 428.734 253.812 437.721 252.028C446.708 250.245 454.963 245.835 461.442 239.357C467.921 232.879 472.331 224.624 474.114 215.638C475.898 206.651 474.975 197.338 471.461 188.877C467.947 180.416 462.002 173.188 454.377 168.108C446.752 163.028 437.791 160.325 428.629 160.341H427.98ZM427.98 27.5612C431.687 27.5452 435.316 28.6298 438.406 30.6775C441.497 32.7253 443.909 35.6442 445.339 39.0644C446.769 42.4845 447.151 46.252 446.438 49.8897C445.725 53.5274 443.948 56.8716 441.332 59.4985C438.716 62.1254 435.379 63.9168 431.745 64.6459C428.11 65.3751 424.34 65.009 420.914 63.5941C417.487 62.1793 414.557 59.7793 412.496 56.6982C410.435 53.6171 409.334 49.9935 409.334 46.2865C409.324 43.8313 409.798 41.3982 410.73 39.1268C411.663 36.8554 413.034 34.7905 414.767 33.0506C416.499 31.3107 418.558 29.9301 420.826 28.9881C423.093 28.0461 425.525 27.5612 427.98 27.5612ZM72.2498 64.9309C68.5425 64.9308 64.9186 63.8305 61.8373 61.7693C58.7559 59.7081 56.3557 56.7789 54.9408 53.3525C53.5258 49.9262 53.1597 46.157 53.8889 42.5224C54.618 38.8879 56.4097 35.5515 59.0368 32.936C61.6639 30.3204 65.0083 28.5435 68.6463 27.8301C72.2843 27.1168 76.0522 27.4992 79.4726 28.9289C82.8931 30.3586 85.8122 32.7713 87.8601 35.8613C89.9081 38.9513 90.9928 42.5796 90.9767 46.2865C90.9768 48.7418 90.4918 51.1729 89.5497 53.4402C88.6076 55.7075 87.2268 57.7664 85.4868 59.4988C83.7468 61.2311 81.6818 62.6028 79.4102 63.5349C77.1386 64.4671 74.7052 64.9415 72.2498 64.9309ZM72.2498 225.272C68.5459 225.272 64.9253 224.174 61.8457 222.116C58.7661 220.058 56.3658 217.134 54.9484 213.712C53.531 210.291 53.1602 206.526 53.8827 202.893C54.6053 199.261 56.3889 195.924 59.0079 193.306C61.6269 190.687 64.9637 188.903 68.5964 188.181C72.2291 187.458 75.9944 187.829 79.4163 189.246C82.8382 190.664 85.7629 193.064 87.8207 196.143C89.8784 199.223 90.9767 202.843 90.9767 206.546C90.9875 209.008 90.5104 211.448 89.573 213.725C88.6357 216.002 87.2567 218.07 85.5156 219.811C83.7745 221.552 81.7059 222.931 79.429 223.868C77.1521 224.805 74.712 225.282 72.2498 225.272V225.272ZM108.974 387.396C105.267 387.396 101.643 386.296 98.5615 384.235C95.4801 382.173 93.0799 379.244 91.665 375.818C90.25 372.391 89.8839 368.622 90.6131 364.988C91.3422 361.353 93.1339 358.017 95.761 355.401C98.3881 352.786 101.733 351.009 105.371 350.295C109.008 349.582 112.776 349.964 116.197 351.394C119.617 352.824 122.536 355.236 124.584 358.326C126.632 361.416 127.717 365.045 127.701 368.752C127.637 373.676 125.636 378.376 122.131 381.836C118.626 385.295 113.899 387.234 108.974 387.234V387.396ZM250.115 472.187C246.411 472.187 242.79 471.089 239.711 469.031C236.631 466.974 234.231 464.049 232.814 460.628C231.396 457.206 231.025 453.441 231.748 449.809C232.47 446.176 234.254 442.84 236.873 440.221C239.492 437.602 242.829 435.819 246.462 435.096C250.094 434.374 253.86 434.744 257.281 436.162C260.703 437.579 263.628 439.979 265.686 443.058C267.744 446.138 268.842 449.758 268.842 453.462C268.799 458.4 266.807 463.121 263.3 466.598C259.793 470.075 255.054 472.025 250.115 472.025V472.187ZM410.064 368.752C410.064 372.455 408.966 376.076 406.908 379.155C404.85 382.234 401.925 384.634 398.503 386.052C395.082 387.469 391.316 387.84 387.684 387.117C384.051 386.395 380.714 384.611 378.095 381.993C375.476 379.374 373.693 376.037 372.97 372.405C372.247 368.772 372.618 365.007 374.036 361.586C375.453 358.164 377.853 355.24 380.933 353.182C384.013 351.125 387.633 350.026 391.337 350.026C396.276 350.026 401.015 351.977 404.522 355.453C408.029 358.93 410.021 363.651 410.064 368.59V368.752ZM205.041 32.4249H295.189V122.566H205.041V32.4249ZM427.98 225.272C424.276 225.272 420.656 224.174 417.576 222.116C414.496 220.058 412.096 217.134 410.679 213.712C409.261 210.291 408.89 206.526 409.613 202.893C410.336 199.261 412.119 195.924 414.738 193.306C417.357 190.687 420.694 188.903 424.327 188.181C427.959 187.458 431.725 187.829 435.147 189.246C438.568 190.664 441.493 193.064 443.551 196.143C445.609 199.223 446.707 202.843 446.707 206.546C446.718 209.008 446.241 211.448 445.303 213.725C444.366 216.002 442.987 218.07 441.246 219.811C439.505 221.552 437.436 222.931 435.159 223.868C432.882 224.805 430.442 225.282 427.98 225.272V225.272Z" fill="white"/>
<path d="M267.95 59.7433H232.361V95.3296H267.95V59.7433Z" fill="#F96360"/>
</svg>
