<?xml version="1.0" encoding="UTF-8" standalone="no"?>
<svg width="341px" height="251px" viewBox="0 0 341 251" version="1.1" xmlns="http://www.w3.org/2000/svg" xmlns:xlink="http://www.w3.org/1999/xlink" xmlns:sketch="http://www.bohemiancoding.com/sketch/ns">
    <!-- Generator: Sketch 3.3 (11970) - http://www.bohemiancoding.com/sketch -->
    <title>Imported Layers</title>
    <desc>Created with Sketch.</desc>
    <defs></defs>
    <g id="Page-1" stroke="none" stroke-width="1" fill="none" fill-rule="evenodd" sketch:type="MSPage">
        <path d="M82.939,174.279 L257.219,174.279 L257.219,0 L82.939,0 L82.939,174.279 Z M213.032,123.158 C212.336,123.425 207.518,123.612 210.926,124 C213.067,124.24 209.623,124.411 209.634,125.182 C210.339,125.162 211.404,126.518 211.682,126.476 C211.72,126.679 209.565,127.253 210.021,127.318 C211.852,127.576 208.472,127.7 208.695,128.138 C209.329,129.388 208.385,128.963 209.573,129.536 C210.21,129.843 210.022,130.963 209.604,131.057 C209.059,131.179 208.895,131.471 208.395,131.517 C208.326,131.97 207.914,132.181 207.368,132.259 C206.185,132.7 204.859,133.201 203.581,133.331 C202.755,133.417 202.792,133.495 201.971,133.339 C201.093,133.453 199.753,133.526 198.875,133.442 C198.15,133.619 187.301,134.253 186.393,134.131 C185.671,134.286 181.328,134.434 180.439,134.307 C179.538,134.478 172.008,134.681 171.227,134.591 C170.313,134.75 168.903,134.814 167.982,134.692 C167.07,134.87 165.655,134.903 164.731,134.797 C163.835,134.966 143.93,134.49 142.96,134.341 C142.021,134.458 137.365,134.302 136.442,134.143 C135.668,134.258 134.505,134.179 133.728,134.06 C132.827,134.189 131.422,134.117 130.545,133.873 C130.04,133.731 129.711,133.807 129.494,133.306 C129.316,132.89 129.363,132.637 129.03,132.461 C128.639,132.253 128.616,131.365 128.873,131.031 C128.442,130.117 129.041,128.409 128.697,127.145 C128.491,126.392 128.895,126.432 129.262,125.748 C128.831,125.775 128.738,125.006 128.788,124.864 C129.067,124.067 128.658,123.679 129.255,123.003 C129.613,122.598 129.449,122.265 130.09,122.265 C130.554,122.265 131.114,122.267 131.569,122.341 C132.56,122.263 133.848,122.312 134.831,122.464 C136.845,122.326 145.91,122.658 147.867,122.969 C149.739,122.838 151.977,122.969 153.842,123.193 C155.846,123.091 189.453,122.834 191.277,122.747 C193.282,122.651 195.541,122.348 197.533,122.544 C198.966,122.307 200.804,122.45 202.216,122.724 C203.517,122.679 204.128,122.206 205.401,122.273 C205.482,122.143 207.432,122.572 207.64,122.584 C207.817,122.279 209.565,122.544 209.975,122.568 C210.425,122.599 213.446,122.997 213.032,123.158 L213.032,123.158 Z M214.048,108.137 C214.128,108.406 214.268,108.638 214.473,108.842 C212.352,107.593 210.491,106.009 208.468,104.633 C208.625,105.346 212.941,107.695 212.678,108.178 C212.617,108.306 207.087,104.213 207.007,104.281 C206.664,104.528 207.938,105.839 207.668,105.778 C207.718,105.82 208.705,106.547 208.592,106.666 C208.365,106.75 214.511,111.354 213.971,112.005 C213.752,112.262 212.077,110.731 211.85,110.622 C212.011,110.883 212.198,111.12 212.418,111.336 C211.11,110.56 210.054,109.487 208.816,108.625 C208.98,108.931 209.209,109.19 209.499,109.401 C208.467,109.408 206.278,106.806 205.387,106.281 C205.1,106.125 203.731,104.794 203.526,104.877 C203.506,104.958 203.528,105.031 203.591,105.092 C203.073,104.849 202.624,104.528 202.244,104.122 C202.268,104.341 200.811,102.26 200.229,102.518 C200.586,102.864 200.94,103.211 201.291,103.559 C200.117,103.814 199.174,100.875 197.59,101.537 C197.718,101.484 204.127,107.559 204.298,107.978 C204.278,107.928 203.919,107.853 203.904,107.807 C204.296,109.106 206.103,110.32 206.994,111.267 C204.918,109.834 202.912,107.878 200.855,106.76 C200.048,106.322 199.792,105.481 199.018,105.917 C198.851,106.008 197.112,104.809 196.908,104.606 C196.871,104.926 196.925,105.229 197.066,105.518 C195.44,104.234 193.898,102.343 191.994,101.428 C192.431,102.052 192.848,102.568 192.967,102.839 C193.103,103.143 193.315,103.349 193.382,103.693 C190.642,101.5 187.924,99.236 185.315,96.885 C184.749,96.378 181.857,93.716 181.401,94.531 C180.473,93.69 174.266,88.377 172.988,88.122 C174.018,88.971 174.921,89.942 175.925,90.81 C175.684,90.997 173.049,88.706 172.676,88.392 C172.028,87.853 169.961,86.039 169.04,85.198 C168.295,84.52 167.58,83.849 166.858,83.184 C165.516,84.24 163.247,86.15 162.926,86.406 C162.541,86.721 162.093,86.912 161.709,87.317 C160.679,88.408 159.482,89.354 158.273,90.261 C156.744,91.408 155.386,92.762 153.836,93.937 C153.853,93.732 154.098,93.69 153.987,93.414 C153.585,93.732 153.187,94.021 152.816,94.348 C150.741,96.142 148.667,97.935 146.606,99.742 C145.06,101.098 143.564,102.513 141.985,103.834 C140.249,105.278 138.591,106.812 136.869,108.267 C135.122,109.748 139.3,107.037 137.688,108.67 C137.417,108.939 137.096,109.17 136.763,109.354 C136.345,109.592 136.051,109.951 135.682,110.236 C135.259,110.557 134.752,110.787 134.252,111.075 C134.302,110.513 134.298,110.531 133.742,110.367 C133.31,110.239 132.978,109.885 132.733,109.57 C132.377,109.106 131.375,107.164 131.045,105.744 C131.02,105.651 131.013,105.537 131.036,105.451 C131.309,104.378 131.017,103.356 130.66,102.343 C130.228,101.125 130.274,99.854 130.172,98.603 C130.112,97.825 130.736,97.338 131.207,96.841 C132.186,95.795 133.154,94.705 134.273,93.81 C135.003,93.223 135.703,92.556 136.596,92.15 C137.267,91.841 137.669,91.17 138.19,90.661 C138.8,90.062 139.495,89.539 140.068,88.927 C140.907,88.039 142.159,87.586 142.994,86.687 C143.721,85.903 151.068,79.802 152.072,78.953 C153.739,77.551 155.303,76.153 156.962,74.783 C156.727,74.581 156.494,74.381 156.254,74.172 C154.308,72.492 152.135,70.533 150.111,68.857 C148.105,67.198 146.136,65.403 144.135,63.664 C140.981,60.925 137.977,59.111 134.74,56.435 C133.067,55.056 129.424,52.57 129.054,50.357 C128.798,48.82 130.935,47.244 131.646,46.19 C131.616,46.232 134.85,41.181 135.867,41.598 C136.169,41.725 136.568,41.288 137.287,41.557 C138.47,41.999 139.275,43.042 140.158,43.873 C143.003,46.557 145.975,49.104 148.922,51.661 C155.04,56.97 160.876,61.633 166.845,66.81 C167.193,66.55 167.544,66.286 167.891,66.02 C169.116,65.088 170.404,64.228 171.642,63.306 C173.218,62.15 174.819,61.036 176.42,59.908 C177.179,59.367 177.975,58.872 178.714,58.309 C180.131,57.22 181.631,56.247 183.108,55.25 C185.095,53.911 187.097,52.596 189.103,51.271 C190.27,50.495 191.466,49.742 192.703,49.049 C193.237,48.75 193.675,48.265 194.294,48.072 C194.542,47.99 194.757,47.834 195.057,47.642 C196.756,46.562 198.495,45.547 200.26,44.572 C202.401,43.383 204.524,42.15 206.734,41.078 C207.32,40.794 207.934,40.358 208.749,40.341 C208.307,40.895 207.776,41.216 207.284,41.653 C207.762,41.9 208.636,41.15 208.733,41.333 C208.868,41.583 208.507,42.017 208.618,41.963 C208.936,41.804 209.22,41.542 209.652,41.512 C209.367,41.987 208.937,42.213 208.561,42.531 C209.143,42.425 209.582,41.921 210.315,41.864 C209.587,42.489 208.786,42.731 208.101,43.17 C207.591,43.51 207.018,43.771 206.472,44.062 C206.452,44.068 206.418,44.073 206.418,44.086 C206.315,44.675 205.717,44.797 205.377,45.189 C205.941,45.164 206.405,44.917 206.856,44.628 C207.036,44.765 206.767,44.859 206.839,45.028 C208.688,44.341 210.239,43.002 212.174,42.46 C211.468,42.912 210.764,43.383 210.052,43.814 C209.49,44.156 208.98,44.573 208.39,44.887 C207.901,45.146 207.359,45.314 206.904,45.648 C206.75,45.765 206.414,45.88 206.563,46.127 C206.723,46.409 207.018,46.336 207.299,46.172 C208.144,45.689 208.999,45.236 209.854,44.776 C209.915,44.745 210.005,44.771 210.082,44.771 C209.85,45.513 209.112,45.779 208.668,46.408 C209.188,46.331 209.487,45.963 209.92,45.83 C210.671,45.611 211.38,45.291 212.21,45.275 C212.749,45.263 213.282,44.886 213.874,44.758 C213.42,45.073 212.948,45.377 212.507,45.72 C212.364,45.831 212.011,45.823 212.156,46.195 C212.323,46.623 212.592,46.378 212.816,46.291 C213.075,46.192 213.329,46.053 213.581,45.929 C213.664,45.886 213.733,45.88 213.772,45.981 C213.804,46.065 213.802,46.146 213.692,46.17 C213.159,46.271 212.768,46.642 212.348,46.943 C211.929,47.252 211.534,47.596 211.122,47.935 C211.197,48.213 211.512,47.7 211.564,48.045 C211.608,48.322 211.33,48.333 211.208,48.388 C209.166,49.294 207.508,50.81 205.648,51.995 C204.851,52.5 202.667,53.825 202.39,53.992 C201.581,54.476 200.784,54.994 199.995,55.515 C199.893,55.578 199.642,55.591 199.78,55.853 C199.903,56.095 200.031,56.013 200.218,55.925 C201.385,55.364 202.534,54.74 203.519,53.909 C204.14,53.387 204.888,53.203 205.53,52.756 C206.325,52.2 209.218,50.406 210.413,49.697 C211.049,49.315 211.022,49.27 211.639,49.525 C211.476,49.779 211.153,49.812 210.969,50.021 C210.386,50.642 209.74,51.176 209.09,51.7 C208.473,52.203 207.823,52.661 207.164,53.099 C206.889,53.281 206.645,53.464 206.491,53.779 C208.508,52.818 210.281,51.416 212.27,50.392 C211.633,51.106 210.742,51.442 209.982,51.978 C208.799,52.818 207.423,53.359 206.383,54.411 C206.116,54.682 205.705,54.599 205.399,54.861 C204.232,55.842 202.776,56.385 201.596,57.338 C201.161,57.693 200.672,57.974 200.255,58.351 C200.088,58.498 199.932,58.659 199.706,58.709 C198.574,58.958 197.937,59.986 196.969,60.497 C196.356,60.825 195.831,61.331 195.217,61.617 C194.488,61.968 193.84,62.453 193.202,62.893 C192.157,63.619 191.163,64.425 190.117,65.166 C189.557,65.554 188.857,65.74 188.426,66.328 L188.43,66.317 C187.554,66.674 186.894,67.353 186.121,67.865 C184.838,68.72 183.6,69.631 182.404,70.603 C182.157,70.806 181.938,71.037 181.685,71.236 L181.706,71.211 C180.853,71.261 180.599,72.12 179.846,72.432 C180.179,72.612 178.952,73.153 178.866,73.214 C178.263,73.63 177.562,73.539 177.084,74.078 C176.874,74.312 176.44,74.567 176.054,74.795 C183.264,80.929 190.556,86.92 197.471,93.185 C201.157,96.525 205.083,99.653 209.016,102.755 C211.408,104.642 217.787,110.58 218.537,111.125 C218.249,111.381 214.532,108.529 214.048,108.137 L214.048,108.137 Z M82.935,242.256 L101.057,242.256 L101.057,249.987 L74.127,249.987 L74.127,213.617 L82.935,213.617 L82.935,242.256 L82.935,242.256 Z M37.792,249.987 L65.209,249.987 L65.209,242.364 L46.6,242.364 L46.6,235.693 L62.836,235.693 L62.836,228.232 L46.6,228.232 L46.6,221.239 L65.209,221.239 L65.209,213.617 L37.792,213.617 L37.792,249.987 L37.792,249.987 Z M108.574,249.987 L135.99,249.987 L135.99,242.364 L117.384,242.364 L117.384,235.693 L133.617,235.693 L133.617,228.232 L117.384,228.232 L117.384,221.239 L135.99,221.239 L135.99,213.617 L108.574,213.617 L108.574,249.987 L108.574,249.987 Z M25.281,216.711 C27.877,219.149 29.305,222.479 29.305,226.084 C29.305,228.782 28.347,231.503 26.2,234.901 L16.698,249.987 L6.815,249.987 L13.706,239.141 L13.762,239.053 L13.503,239.037 C5.553,238.563 0,233.304 0,226.247 C0,218.459 6.174,212.807 14.679,212.807 C18.839,212.807 22.604,214.193 25.281,216.711 L25.281,216.711 Z M21.143,225.923 C21.143,222.548 18.257,219.8 14.707,219.8 C11.158,219.8 8.269,222.548 8.269,225.923 C8.269,229.3 11.158,232.047 14.707,232.047 C18.257,232.047 21.143,229.3 21.143,225.923 L21.143,225.923 Z M164.549,233.318 L151.415,213.617 L144.908,213.617 L144.908,249.987 L153.662,249.987 L153.663,231.118 L162.134,244.216 L166.966,244.216 L175.383,231.229 L175.383,249.987 L184.19,249.987 L184.19,213.617 L177.631,213.617 L164.549,233.318 L164.549,233.318 Z M271.553,221.454 L283.256,221.454 L283.256,249.987 L292.064,249.987 L292.064,221.454 L303.715,221.454 L303.715,213.617 L271.553,213.617 L271.553,221.454 L271.553,221.454 Z M329.22,228.661 L324.095,227.473 C321.499,226.914 319.77,226.087 319.77,223.873 C319.77,222.677 320.292,221.69 321.281,221.021 C322.218,220.387 323.558,220.053 325.154,220.053 C328.588,220.053 330.627,221.614 331.216,224.69 L340.089,224.69 C339.779,221.812 337.745,212.807 324.561,212.807 C320.328,212.807 316.724,213.915 314.14,216.009 C311.532,218.125 310.151,221.104 310.151,224.628 C310.151,230.334 313.49,233.716 320.656,235.265 L326.698,236.614 C329.392,237.125 330.701,238.196 330.701,239.891 C330.701,242.047 328.76,243.281 325.371,243.281 C321.049,243.281 318.197,241.395 317.532,238.102 L308.713,238.102 C309.146,242.248 310.971,245.474 314.138,247.695 C316.982,249.688 320.771,250.742 325.101,250.742 C334.248,250.742 340.158,246.123 340.158,238.974 C340.158,233.414 336.886,230.329 329.22,228.661 L329.22,228.661 Z M194.136,249.987 L221.553,249.987 L221.553,242.364 L202.944,242.364 L202.944,235.693 L219.179,235.693 L219.179,228.232 L202.944,228.232 L202.944,221.239 L221.553,221.239 L221.553,213.617 L194.136,213.617 L194.136,249.987 L194.136,249.987 Z M255.12,234.534 L237.205,213.617 L230.47,213.617 L230.47,249.987 L239.28,249.987 L239.28,229.614 L257.086,249.987 L263.928,249.987 L263.928,213.617 L255.12,213.617 L255.12,234.534 L255.12,234.534 Z" id="Imported-Layers" fill="#000203" sketch:type="MSShapeGroup"></path>
    </g>
</svg>