<svg width="43" height="48" viewBox="0 0 43 48" fill="none" xmlns="http://www.w3.org/2000/svg">
<path fill-rule="evenodd" clip-rule="evenodd" d="M36.58 9.55496H5.2V11.865H36.58V9.55496ZM1 5.35496V16.065H40.78V5.35496H1Z" fill="white"/>
<path fill-rule="evenodd" clip-rule="evenodd" d="M12.2802 0V5.355H8.08018V0H12.2802ZM33.7002 0V5.355H29.5002V0H33.7002Z" fill="white"/>
<path fill-rule="evenodd" clip-rule="evenodd" d="M0.430176 21.42H4.63018V43.035H37.9152V21.42H42.1152V47.235H0.430176V21.42Z" fill="white"/>
<path d="M11.7099 23.715H16.2999V28.305H11.7099V23.715Z" fill="#F96360"/>
<path d="M11.7099 32.895H16.2999V37.485H11.7099V32.895Z" fill="white"/>
<path d="M19.3599 23.715H23.9499V28.305H19.3599V23.715Z" fill="white"/>
<path d="M19.3599 32.895H23.9499V37.485H19.3599V32.895Z" fill="white"/>
<path d="M27.0099 23.715H31.5999V28.305H27.0099V23.715Z" fill="white"/>
<path d="M27.0099 32.895H31.5999V37.485H27.0099V32.895Z" fill="white"/>
</svg>
