<svg width="45" height="49" viewBox="0 0 45 49" fill="none" xmlns="http://www.w3.org/2000/svg">
<path d="M0.5 45.3055H45" stroke="black" stroke-width="6"/>
<mask id="path-2-inside-1_866_434" fill="white">
<path fill-rule="evenodd" clip-rule="evenodd" d="M5.10059 6.20465L24.6014 25.7055H8.81454V33.9055H31.6276L38.5997 26.9334V3.66971H30.3997V19.9072L10.8989 0.406372L5.10059 6.20465Z"/>
</mask>
<path fill-rule="evenodd" clip-rule="evenodd" d="M5.10059 6.20465L24.6014 25.7055H8.81454V33.9055H31.6276L38.5997 26.9334V3.66971H30.3997V19.9072L10.8989 0.406372L5.10059 6.20465Z" fill="black"/>
<path d="M24.6014 25.7055V26.7055H27.0157L25.3086 24.9984L24.6014 25.7055ZM5.10059 6.20465L4.39348 5.49754L3.68637 6.20465L4.39348 6.91175L5.10059 6.20465ZM8.81454 25.7055V24.7055H7.81454V25.7055H8.81454ZM8.81454 33.9055H7.81454V34.9055H8.81454V33.9055ZM31.6276 33.9055V34.9055H32.0418L32.3347 34.6126L31.6276 33.9055ZM38.5997 26.9334L39.3068 27.6405L39.5997 27.3476V26.9334H38.5997ZM38.5997 3.66971H39.5997V2.66971H38.5997V3.66971ZM30.3997 3.66971V2.66971H29.3997V3.66971H30.3997ZM30.3997 19.9072L29.6926 20.6143L31.3997 22.3214V19.9072H30.3997ZM10.8989 0.406372L11.606 -0.300735L10.8989 -1.00784L10.1918 -0.300735L10.8989 0.406372ZM25.3086 24.9984L5.80769 5.49754L4.39348 6.91175L23.8943 26.4126L25.3086 24.9984ZM8.81454 26.7055H24.6014V24.7055H8.81454V26.7055ZM9.81454 33.9055V25.7055H7.81454V33.9055H9.81454ZM31.6276 32.9055H8.81454V34.9055H31.6276V32.9055ZM32.3347 34.6126L39.3068 27.6405L37.8926 26.2262L30.9205 33.1984L32.3347 34.6126ZM37.5997 3.66971V26.9334H39.5997V3.66971H37.5997ZM30.3997 4.66971H38.5997V2.66971H30.3997V4.66971ZM31.3997 19.9072V3.66971H29.3997V19.9072H31.3997ZM10.1918 1.11348L29.6926 20.6143L31.1068 19.2001L11.606 -0.300735L10.1918 1.11348ZM5.80769 6.91175L11.606 1.11348L10.1918 -0.300735L4.39348 5.49754L5.80769 6.91175Z" fill="white" mask="url(#path-2-inside-1_866_434)"/>
</svg>
