<svg width="40" height="40" viewBox="0 0 40 40" fill="none" xmlns="http://www.w3.org/2000/svg">
<path d="M29.5 6.5L30.9142 5.08579L30.3284 4.5H29.5V6.5ZM34 11H36V10.1716L35.4142 9.58579L34 11ZM11 33.5H9V35.5H11V33.5ZM11 13.5L12.4142 12.0858H9.58579L11 13.5ZM9 8.5H29.5V4.5H9V8.5ZM28.0858 7.91421L32.5858 12.4142L35.4142 9.58579L30.9142 5.08579L28.0858 7.91421ZM32 11V27H36V11H32ZM36 31.5H11V35.5H36V31.5ZM13 33.5V13.5H9V33.5H13ZM9.58579 12.0858L0.585786 21.0858L3.41421 23.9142L12.4142 14.9142L9.58579 12.0858ZM9.58579 14.9142L18.0858 23.4142L20.9142 20.5858L12.4142 12.0858L9.58579 14.9142Z" fill="white"/>
</svg>
