<svg height="79.695786mm" viewBox="0 0 282.9215 282.38663" width="79.846733mm" xmlns="http://www.w3.org/2000/svg" xmlns:xlink="http://www.w3.org/1999/xlink"><linearGradient gradientUnits="userSpaceOnUse" x1="257.37759" x2="513.38226" y1="512.42438" y2="512.42438"><stop offset=".07855672" stop-color="#e50000"/><stop offset=".18874705" stop-color="#ff8d00"/><stop offset=".25718528" stop-color="#ff8d00"/><stop offset=".36555019" stop-color="#fe0"/><stop offset=".43560833" stop-color="#fe0"/><stop offset=".54248375" stop-color="#028121"/><stop offset=".61000001" stop-color="#028121"/><stop offset=".72835749" stop-color="#004cff"/><stop offset=".7797671" stop-color="#004cff"/><stop offset=".90971231" stop-color="#708"/></linearGradient><linearGradient id="a" gradientUnits="userSpaceOnUse" spreadMethod="pad" x1="269.83356" x2="477.09549" y1="626.31476" y2="444.28989"><stop offset=".08548462" stop-color="#e50000"/><stop offset=".18874705" stop-color="#ff8d00"/><stop offset=".27309054" stop-color="#ff8d00"/><stop offset=".36555019" stop-color="#fe0"/><stop offset=".43560833" stop-color="#fe0"/><stop offset=".52243572" stop-color="#028121"/><stop offset=".61000001" stop-color="#028121"/><stop offset=".72835749" stop-color="#004cff"/><stop offset=".7797671" stop-color="#004cff"/><stop offset=".90309972" stop-color="#708"/></linearGradient><g><path d="m461 533 .794-2.14c1.83-4.77 3.5-9.77 4.77-14.9.397-1.35.556-2.62.636-3.89-.159 2.78-.0792 1.03 0-.636.397-7.86.318-11.9-.159-16-.318-2.94-.556-5.8-.556-8.66-.0792-2.54-.159-4.93-.397-7.31-.0792-1.03-.0792-2.07-.0792-3.18 0-3.57.397-7.07 1.27-10.6l1.27-.556c4.77-2.14 8.98-5.32 12.4-9.29h1.67c1.91 0 3.81-.238 5.64-.715 2.38-.556 4.69-1.43 6.91-2.46 1.03-.477 1.99-1.11 2.78-1.83.556-.556 1.03-1.27 1.43-1.99.477-1.03 1.27-1.83 2.3-2.3.953-.477 1.75-1.11 2.14-2.07.397-.715.318-1.59-.0792-2.3-.477-.794-1.27-1.51-2.14-1.75-.953-.397-1.91-.715-2.78-1.11-1.59-.715-2.86-1.27-4.05-1.83-.636-.318-2.62-1.03-4.61-1.51-2.14-.636-4.21-1.11-6.28-1.67-1.59-.477-4.05-1.51-6.28-2.94-2.94-1.75-5.96-3.26-9.06-4.45-2.22-.874-4.69-1.35-7.15-1.51h-3.1l-.238-.556-1.03-4.77-.636-3.89-.318-1.99.715-.397c3.5-2.22 6.51-5 8.98-8.26.556-.636.715-1.43.556-2.22-.159-1.11-1.19-1.91-2.3-1.91-.477 0-.953.159-1.27.477l-3.18 2.07c-2.14 1.51-4.37 2.78-6.67 3.97l-.477-.636c-2.62-3.02-4.13-6.91-4.13-11v-1.59c.238-1.67.477-3.5.715-5.4.0792-.556 0-1.11-.159-1.59-.318-.715-.556-1.43-.874-1.99-.159-.556-.636-.953-1.19-1.03-.636 0-1.19 0-1.75.238-.556.238-1.19.477-1.75.794-.556.318-.874.794-1.03 1.43-.953 3.02-1.35 6.12-1.35 9.29 0 3.73.636 7.47 1.83 11 .556 1.27 1.11 2.54 1.83 3.65 1.19 2.07 2.22 4.13 3.18 6.28 1.27 3.1 1.91 6.36 1.91 9.69v.715l-1.03.556c-2.54 1.51-4.61 3.73-5.88 6.43h-.953c-3.65.318-7.23 1.11-10.6 2.46-2.07.794-3.97 2.07-5.48 3.57-.318.397-.636.874-.794 1.35l.874.397 1.19.715 1.19.715 1.03.636c.477.318 1.03.556 1.59.715 1.35.238 2.62.477 3.97.477 2.3.0792 4.61.477 6.83 1.11l-.556 1.11c-.636 1.27-1.19 2.54-1.67 3.81-1.11 3.5-2.07 6.99-2.78 10.5-1.59 7.71-3.18 14.9-4.93 22-.477 2.14-1.43 4.29-2.54 6.28-4.29 7.55-10.6 13.7-18.4 17.6-4.05 2.14-8.42 3.5-12.9 4.29-7.31 1.11-14.6 1.83-21.8 2.07-5.56.159-11.4.715-17 1.83-2.62.477-5.16.953-7.63 1.51-4.29.874-8.58 2.22-12.7 3.97-4.77 1.99-9.22 4.53-13.2 7.71-3.34 2.62-5.88 6.12-7.31 10.2-.238.556-.318 1.19-.318 1.83 0 1.35.477 2.62 1.43 3.65s2.3 1.43 3.65 1.19l-1.11 1.91c-.477.636-.794 1.35-1.11 2.07-.636 1.75-1.19 3.42-1.67 5.24-1.35 4.93-2.46 9.69-3.42 14.5-.318 1.83-1.51 3.73-3.34 5.08-.636.477-1.35.953-2.07 1.19-1.99.874-4.05 1.51-6.04 1.99-2.62.556-5.08 1.19-7.47 1.75-.556.159-1.27.636-1.75 1.27-.636.953-1.11 1.91-1.27 3.02-.159.794-.318 1.51-.397 2.3-.715 4.29-1.75 8.66-3.18 12.8-1.43 4.21-3.26 8.34-5.32 12.3-.715 1.35-1.43 2.54-2.3 3.81-.636.953-1.35 2.07-1.83 3.18-.477.953-.953 1.83-1.51 2.7-.318.556-.953 1.03-1.59 1.27l-.874.159c-1.67.318-3.26.794-4.69 1.59-1.59.794-3.1 1.59-4.69 2.38-3.5 1.83-7.07 5.16-9.61 9.29-.159.318-.318.794-.318 1.27 0 .318.0792.715.238 1.11.477.953 1.51 1.51 2.54 1.51 10 .238 19.5-3.89 26.3-11.4 1.99-2.22 4.21-4.77 6.51-7.23 7.86-8.74 12.6-15 16.8-21.7.318-.477.715-.715 1.11-.715.238 0 .397 0 .556.0792.794.397 1.51.636 2.38.715 1.03.238 2.46.397 3.89.715 1.83.238 3.65.318 5.4 0 2.86-.397 5.72-1.03 8.42-1.99 4.05-1.35 7.86-3.42 11.2-6.12 5.4-4.21 10.6-8.9 15.8-13.7 2.54-2.46 5.48-4.37 8.74-5.72 9.06-3.81 18.7-6.28 28.6-7.23 3.65-.318 7.47-.636 11.2-.794 2.22-.159 4.53-.397 6.75-.953 2.62-.715 6.12-1.51 9.61-2.38 3.65-1.03 6.2-1.75 8.58-2.7 4.05-1.51 8.02-3.26 11.9-5l1.19.477c1.43.715 3.02 1.11 4.69 1.27 5.24.238 10.6-.318 15.6-1.83l4.37-1.19 2.14-.636 2.14-.715 3.02-.953 2.7-.874c1.99-.556 3.97-1.19 6.04-1.83 3.1-.874 4.93-1.35 6.83-1.75l-1.11 1.99-6.43 12.5-6.59 12.3-.0792.238-1.67.318c-1.27.159-2.54.477-3.73.953-4.77 1.91-9.29 4.37-13.3 7.47-1.35 1.11-2.54 2.46-3.26 4.13-.159.318-.477.715-.715 1.03-.238.238-.318.556-.318.874 0 .397.238.874.636 1.11.715.397 1.51.874 2.3 1.27.159.0792.477.159.715.238.874.0792 1.75.159 2.7.159 1.11.0792 2.22.159 3.42.238 1.03.0792 1.99 0 2.86-.318 1.51-.477 3.1-1.03 4.61-1.75 1.99-.953 3.89-1.99 5.72-3.18 1.43-.953 2.78-2.07 3.97-3.34.636-.636 2.38-2.46 4.13-4.37 5-5.16 8.02-8.66 10.9-12.2 2.38-2.94 4.53-5.96 6.75-8.98 1.99-2.86 3.81-5.64 5.48-8.58.874-1.43 1.59-2.86 2.38-4.37.636-1.27 1.11-2.7 1.27-4.05.318-1.59 0-3.26-.794-4.61-.636-.953-1.43-1.67-2.46-2.22-.556-.238-1.11-.397-1.75-.556-.397-.0792-.794-.238-1.19-.477-1.11-.794-2.38-1.35-3.73-1.67-.556-.159-1.27-.238-1.91-.238l-5 .159-2.7.159-4.29.159h-10.2l-4.05.159c-4.85.209-9.71 1.08-14.2 2.44z" fill="url(#a)" fill-rule="evenodd" transform="translate(-243.875304 -371.21179)"/><path d="m217.1247 161.78821.794-2.14c1.83-4.77 3.5-9.77 4.77-14.9.397-1.35.556-2.62.636-3.89-.159 2.78-.0792 1.03 0-.636.397-7.86.318-11.9-.159-16-.318-2.94-.556-5.8-.556-8.66-.0792-2.54-.159-4.93-.397-7.31-.0792-1.03-.0792-2.07-.0792-3.18 0-3.57.397-7.070003 1.27-10.600003l1.27-.556c4.77-2.14 8.98-5.32 12.4-9.29h1.67c1.91 0 3.81-.238 5.64-.715 2.38-.556 4.69-1.43 6.91-2.46 1.03-.477 1.99-1.11 2.78-1.83.556-.556 1.03-1.27 1.43-1.99.477-1.03 1.27-1.83 2.3-2.3.953-.477 1.75-1.11 2.14-2.07.397-.715.318-1.59-.0792-2.3-.477-.794-1.27-1.51-2.14-1.75-.953-.397-1.91-.715-2.78-1.11-1.59-.715-2.86-1.27-4.05-1.83-.636-.318-2.62-1.03-4.61-1.51-2.14-.636-4.21-1.11-6.28-1.67-1.59-.477-4.05-1.51-6.28-2.94-2.94-1.75-5.96-3.26-9.06-4.45-2.22-.874-4.69-1.35-7.15-1.51h-3.1l-.238-.556-1.03-4.77-.636-3.89-.318-1.99.715-.397c3.5-2.22 6.51-5 8.98-8.26.556-.636.715-1.43.556-2.22-.159-1.11-1.19-1.91-2.3-1.91-.477 0-.953.159-1.27.477l-3.18 2.07c-2.14 1.51-4.37 2.78-6.67 3.97l-.477-.636c-2.62-3.02-4.13-6.91-4.13-11v-1.59c.238-1.67.477-3.5.715-5.4.0792-.556 0-1.11-.159-1.59-.318-.715-.556-1.43-.874-1.99-.159-.556-.636-.953-1.19-1.03-.636 0-1.19 0-1.75.238-.556.238-1.19.477-1.75.794-.556.318-.874.794-1.03 1.43-.953 3.02-1.35 6.12-1.35 9.29 0 3.73.636 7.47 1.83 11 .556 1.27 1.11 2.54 1.83 3.65 1.19 2.07 2.22 4.13 3.18 6.28 1.27 3.1 1.91 6.36 1.91 9.69v.715l-1.03.556c-2.54 1.51-4.61 3.73-5.88 6.43h-.953c-3.65.318-7.23 1.11-10.6 2.46-2.07.794-3.97 2.07-5.48 3.57-.318.397-.636.874-.794 1.35l.874.397 1.19.715 1.19.715 1.03.636c.477.318 1.03.556 1.59.715 1.35.238 2.62.477 3.97.477 2.3.0792 4.61.477 6.83 1.11l-.556 1.11c-.636 1.27-1.19 2.54-1.67 3.81-1.11 3.5-2.07 6.99-2.78 10.5-1.59 7.71-3.18 14.900003-4.93 22.000003-.477 2.14-1.43 4.29-2.54 6.28-4.29 7.55-10.6 13.7-18.4 17.6-4.05 2.14-8.42 3.5-12.9 4.29-7.31 1.11-14.6 1.83-21.8 2.07-5.56.159-11.4.715-17 1.83-2.62.477-5.16.953-7.62999 1.51-4.29.874-8.580005 2.22-12.700005 3.97-4.77 1.99-9.22 4.53-13.2 7.71-3.34 2.62-5.88 6.12-7.31 10.2-.238.556-.318 1.19-.318 1.83 0 1.35.477 2.62 1.43 3.65s2.3 1.43 3.65 1.19l-1.11 1.91c-.477.636-.794 1.35-1.11 2.07-.636 1.75-1.19 3.42-1.67 5.24-1.35 4.93-2.46 9.69-3.42 14.5-.318 1.83-1.51 3.73-3.34 5.08-.636.477-1.35.953-2.07 1.19-1.99.874-4.05 1.51-6.04 1.99-2.62.556-5.08 1.19-7.47 1.75-.556.159-1.27.636-1.75 1.27-.636.953-1.11 1.91-1.27 3.02-.159.794-.318 1.51-.397 2.3-.715 4.29-1.75 8.66-3.18 12.8-1.43 4.21-3.26 8.34-5.32 12.3-.715 1.35-1.43 2.54-2.3 3.81-.636.953-1.35 2.07-1.83 3.18-.477.953-.953 1.83-1.51 2.7-.318.556-.953 1.03-1.59 1.27l-.874.159c-1.67.318-3.26.794-4.69 1.59-1.59.794-3.1 1.59-4.69 2.38-3.5 1.83-7.07 5.16-9.61 9.29-.159.318-.318.794-.318 1.27 0 .318.0792.715.238 1.11.477.953 1.51 1.51 2.54 1.51 10 .238 19.5-3.89 26.3-11.4 1.99-2.22 4.21-4.77 6.51-7.23 7.86-8.74 12.6-15 16.8-21.7.318-.477.715-.715 1.11-.715.238 0 .397 0 .556.0792.794.397 1.51.636 2.38.715 1.03.238 2.46.397 3.89.715 1.83.238 3.65.318 5.4 0 2.86-.397 5.72-1.03 8.42-1.99 4.05-1.35 7.86-3.42 11.2-6.12 5.400005-4.21 10.599995-8.9 15.799995-13.7 2.54-2.46 5.48-4.37 8.74-5.72 9.06-3.81 18.7-6.28 28.6-7.23 3.65-.318 7.47-.636 11.2-.794 2.22-.159 4.53-.397 6.75-.953 2.62-.715 6.12-1.51 9.61-2.38 3.65-1.03 6.2-1.75 8.58-2.7 4.05-1.51 8.02-3.26 11.9-5l1.19.477c1.43.715 3.02 1.11 4.69 1.27 5.24.238 10.6-.318 15.6-1.83l4.37-1.19 2.14-.636 2.14-.715 3.02-.953 2.7-.874c1.99-.556 3.97-1.19 6.04-1.83 3.1-.874 4.93-1.35 6.83-1.75l-1.11 1.99-6.43 12.5-6.59 12.3-.0792.238-1.67.318c-1.27.159-2.54.477-3.73.953-4.77 1.91-9.29 4.37-13.3 7.47-1.35 1.11-2.54 2.46-3.26 4.13-.159.318-.477.715-.715 1.03-.238.238-.318.556-.318.874 0 .397.238.874.636 1.11.715.397 1.51.874 2.3 1.27.159.0792.477.159.715.238.874.0792 1.75.159 2.7.159 1.11.0792 2.22.159 3.42.238 1.03.0792 1.99 0 2.86-.318 1.51-.477 3.1-1.03 4.61-1.75 1.99-.953 3.89-1.99 5.72-3.18 1.43-.953 2.78-2.07 3.97-3.34.636-.636 2.38-2.46 4.13-4.37 5-5.16 8.02-8.66 10.9-12.2 2.38-2.94 4.53-5.96 6.75-8.98 1.99-2.86 3.81-5.64 5.48-8.58.874-1.43 1.59-2.86 2.38-4.37.636-1.27 1.11-2.7 1.27-4.05.318-1.59 0-3.26-.794-4.61-.636-.953-1.43-1.67-2.46-2.22-.556-.238-1.11-.397-1.75-.556-.397-.0792-.794-.238-1.19-.477-1.11-.794-2.38-1.35-3.73-1.67-.556-.159-1.27-.238-1.91-.238l-5 .159-2.7.159-4.29.159h-10.2l-4.05.159c-4.85.209-9.71 1.08-14.2 2.44z" fill="none" stroke="#000" stroke-linecap="round" stroke-linejoin="round" stroke-width="4.96063"/></g></svg>