<svg width="48" height="48" viewBox="0 0 48 48" fill="none" xmlns="http://www.w3.org/2000/svg">
<g clip-path="url(#clip0_902_496)">
<path d="M38.96 0H8.47C3.79215 0 0 3.79215 0 8.47V38.96C0 43.6379 3.79215 47.43 8.47 47.43H38.96C43.6379 47.43 47.43 43.6379 47.43 38.96V8.47C47.43 3.79215 43.6379 0 38.96 0Z" fill="currentColor"/>
<path d="M17.87 18.4299H12.96V34.2799H17.87V18.4299Z" fill="white"/>
<path d="M15.39 16.35C16.99 16.35 18.29 15.04 18.29 13.42C18.29 11.8 16.99 10.49 15.39 10.49C13.79 10.49 12.49 11.8 12.49 13.42C12.49 15.04 13.79 16.35 15.39 16.35Z" fill="white"/>
<path d="M25.71 25.9599C25.71 23.7299 26.74 22.3999 28.7 22.3999C30.5 22.3999 31.37 23.6699 31.37 25.9599V34.2799H36.25V24.2399C36.25 19.9899 33.84 17.9399 30.48 17.9399C27.12 17.9399 25.7 20.5599 25.7 20.5599V18.4199H20.99V34.2699H25.7V25.9499L25.71 25.9599Z" fill="white"/>
</g>
<defs>
<clipPath id="clip0_902_496">
<rect width="47.43" height="47.43" fill="white"/>
</clipPath>
</defs>
</svg>
