<svg width="85" height="62" viewBox="0 0 85 62" fill="none" xmlns="http://www.w3.org/2000/svg">
<path d="M65.0021 0H19.1185C14.895 0 11.4712 3.42381 11.4712 7.6473V53.5311C11.4712 57.7546 14.895 61.1784 19.1185 61.1784H65.0021C69.2256 61.1784 72.6494 57.7546 72.6494 53.5311V7.6473C72.6494 3.42381 69.2256 0 65.0021 0Z" fill="black"/>
<path d="M11.4709 14.7592H3.55598C2.61288 14.7592 1.7084 14.3846 1.04152 13.7177C0.374647 13.0508 0 12.1463 0 11.2032C0 10.2601 0.374647 9.35562 1.04152 8.68874C1.7084 8.02187 2.61288 7.64722 3.55598 7.64722H11.4709V14.7592Z" fill="black"/>
<path d="M11.4709 27.6948H3.55598C3.089 27.6948 2.6266 27.6028 2.19517 27.4241C1.76374 27.2454 1.37173 26.9834 1.04152 26.6532C0.71132 26.323 0.449388 25.931 0.270683 25.4996C0.0919781 25.0681 0 24.6057 0 24.1388C0 23.1956 0.374647 22.2912 1.04152 21.6243C1.7084 20.9574 2.61288 20.5828 3.55598 20.5828H11.4709V27.6948Z" fill="black"/>
<path d="M11.4709 40.632H3.55598C2.61288 40.632 1.7084 40.2574 1.04152 39.5905C0.374647 38.9236 0 38.0191 0 37.076C0 36.1329 0.374647 35.2284 1.04152 34.5615C1.7084 33.8947 2.61288 33.52 3.55598 33.52H11.4709V40.632Z" fill="black"/>
<path d="M11.4709 53.5693H3.55598C2.61288 53.5693 1.7084 53.1946 1.04152 52.5277C0.374647 51.8609 0 50.9564 0 50.0133C0 49.0702 0.374647 48.1657 1.04152 47.4988C1.7084 46.8319 2.61288 46.4573 3.55598 46.4573H11.4709V53.5693Z" fill="black"/>
<path d="M72.6494 14.7592H80.5643C81.5074 14.7592 82.4119 14.3846 83.0788 13.7177C83.7457 13.0508 84.1203 12.1463 84.1203 11.2032C84.1203 10.2608 83.7462 9.35686 83.0802 8.69009C82.4141 8.02333 81.5106 7.64823 80.5682 7.64722H72.6494V14.7592Z" fill="black"/>
<path d="M72.6494 27.6948H80.5643C81.5074 27.6948 82.4119 27.3201 83.0788 26.6532C83.7457 25.9863 84.1203 25.0819 84.1203 24.1388C84.1203 23.1956 83.7457 22.2912 83.0788 21.6243C82.4119 20.9574 81.5074 20.5828 80.5643 20.5828H72.6494V27.6948Z" fill="black"/>
<path d="M72.6494 40.632H80.5643C81.5074 40.632 82.4119 40.2574 83.0788 39.5905C83.7457 38.9236 84.1203 38.0191 84.1203 37.076C84.1203 36.1329 83.7457 35.2284 83.0788 34.5615C82.4119 33.8947 81.5074 33.52 80.5643 33.52H72.6494V40.632Z" fill="black"/>
<path d="M72.6494 53.5693H80.5643C81.5074 53.5693 82.4119 53.1946 83.0788 52.5277C83.7457 51.8609 84.1203 50.9564 84.1203 50.0133C84.1203 49.0702 83.7457 48.1657 83.0788 47.4988C82.4119 46.8319 81.5074 46.4573 80.5643 46.4573H72.6494V53.5693Z" fill="black"/>
<path d="M48.1782 26.3124C55.0856 14.6503 66.9331 10.4825 66.9331 10.4825C56.1428 9.72922 48.7517 13.7211 45.9853 15.3959C43.2189 17.0706 41.0146 16.2103 41.0146 16.2103C22.8256 11.8934 16.7861 23.9704 15.2949 28.0464V53.5311C15.2949 54.5452 15.6978 55.5177 16.4148 56.2348C17.1319 56.9519 18.1045 57.3547 19.1186 57.3547H40.6131C39.9557 46.482 42.5922 35.6636 48.1782 26.3124Z" fill="white"/>
<path d="M34.6716 23.7621C35.5785 23.7621 36.3138 23.0268 36.3138 22.1198C36.3138 21.2128 35.5785 20.4775 34.6716 20.4775C33.7646 20.4775 33.0293 21.2128 33.0293 22.1198C33.0293 23.0268 33.7646 23.7621 34.6716 23.7621Z" fill="black"/>
<path d="M51.2253 57.3546L51.3419 55.1216H46.4037C46.4037 55.1216 45.9219 51.1182 46.0959 48.4302C46.3119 45.0903 46.5394 43.0656 46.9543 40.3852C47.264 38.3721 49.2236 32.3441 50.0782 29.4611C50.2101 29.0175 49.8412 28.7824 49.4779 29.5012C45.0867 38.0995 43.0817 47.718 43.6717 57.3546" fill="white"/>
<path d="M51.1855 57.3549C51.1855 57.4486 55.0493 57.4161 55.4126 57.4103C57.657 57.3683 60.2189 57.028 61.777 55.2309C64.5606 52.0209 62.8993 45.5016 58.4046 44.886C59.5249 42.4904 58.5728 39.378 56.2825 38.0416C54.8773 37.2215 51.8681 36.6154 51.7667 39.0243M53.9634 39.5845C55.317 39.3742 56.2175 40.7889 56.5138 41.9207C56.7066 42.6734 56.6995 43.4633 56.4933 44.2124C56.2871 44.9615 55.8889 45.6438 55.338 46.1917C58.6799 45.7463 61.2838 49.1168 60.8574 52.0477C60.3317 55.6667 56.1066 55.1066 53.4338 55.2003" fill="white"/>
</svg>
