<svg xmlns="http://www.w3.org/2000/svg" width="1476" height="1476"><path d="M514.75 279.188C524.503 289.644 529 302.885 529 317c-1.086 14.344-5.955 26.155-16.355 36.297-7.684 6.499-18.342 12.858-28.762 12.663l-2.145-.179c-8.28-.642-8.28-.642-15.622 2.686-3.858 4.18-6.729 9.004-9.576 13.907-1.507 2.569-3.098 5.056-4.735 7.544C437.892 411.272 426.74 434.084 418 458l-1.002 2.724c-6.502 17.898-10.895 36.36-14.248 55.089l-.458 2.522c-2.905 17.176-3.67 34.337-3.604 51.727l.006 3.12c.054 16.121.607 31.89 3.306 47.818l.586 3.533C412.5 682.526 436.9 735.497 474 781l1.308 1.624c6.621 8.182 13.839 15.724 21.255 23.188l2.612 2.641a196 196 0 0 0 15.997 14.272c2.948 2.371 5.818 4.82 8.695 7.275 6.132 5.115 12.59 9.619 19.258 14l1.786 1.18c9.773 6.45 19.639 12.522 30.089 17.82l2.981 1.525C593.918 872.62 609.988 879.507 627 885l3.018.976c22.483 7.146 45.184 11.319 68.63 13.714C701 900 701 900 705 901V690l-9-1c-2.56-.645-2.56-.645-4.578-1.383l-2.309-.837-2.363-.905-2.504-.946C668.401 678.795 655.32 669.64 643 658l-2.273-2.078C621.54 637.746 610.69 611.827 607 586v-16h57l3 17c5.882 17.974 15.984 31.665 32.523 41.277 19.635 9.73 35.996 8.245 57.477 3.723v321c-6.756 1.126-6.756 1.126-10.428 1.161l-2.5.029-2.666.013-2.822.021c-3.028.018-6.056.024-9.084.026l-3.137.002c-60.428-.062-119.821-14.323-173.455-42.263a521 521 0 0 0-5.892-2.993c-27.425-13.94-52.086-32.314-74.774-52.973a243 243 0 0 0-5.93-5.148A239.6 239.6 0 0 1 440 824l-2.328-2.664c-66.69-76.646-98.511-178.256-91.985-279.148 5.384-71.669 30.744-154.665 81.083-207.817 1.534-2.957 1.138-4.974.582-8.192-1.59-9.83-1.34-21.01 2.648-30.179l.996-2.469c5.388-12.081 14.941-20.768 27.09-25.812 20.168-7.112 40.714-3.096 56.664 11.469" fill="#579BC9"/><path d="m715.324 186.797 2.911-.021a1862 1862 0 0 1 9.452-.026l3.247-.002c92.887.093 185.008 33.784 253.66 97.057a289 289 0 0 0 6.129 5.406c4.584 4.003 8.914 8.235 13.215 12.539l2.4 2.4c4.918 4.967 9.512 9.998 13.814 15.51 1.755 2.222 3.604 4.272 5.535 6.34 64.065 71.354 91.84 173.7 87 267.895-4.54 72.561-29.536 142.486-72.03 201.44l-1.321 1.867c-1.336 1.798-1.336 1.798-2.86 3.51-2.815 3.266-2.815 3.266-3.352 7.395a90 90 0 0 0 1.233 4.546c1.067 3.896.984 7.768.956 11.784l-.015 2.526c-.117 6.115-.812 11.397-3.298 17.037l-.96 2.43c-6.102 13.888-17.237 22.015-30.782 27.726-14.27 4.684-29.763 2.282-42.946-4.343-12.285-7.417-20.84-18.233-24.652-32.094-2.81-15.828-.777-30.8 8.438-44.223C948.843 783.334 960.058 774.88 973 773c1.413.023 2.826.07 4.238.133 8.11.498 8.11.498 15.457-2.333 3.319-3.403 5.664-7.427 8-11.54 1.327-2.298 2.747-4.5 4.215-6.71 26.428-40.004 43.327-84.303 51.09-131.55l.5-2.884c5.288-31.482 4.954-66.688-.5-98.116l-.52-3.165c-5.208-31.267-14.679-61.305-28.48-89.835l-1.41-2.917c-12.162-24.888-27.363-49.353-46.36-69.677a216 216 0 0 1-5.382-6.066C963.31 336.263 951.722 324.759 939 315a761 761 0 0 1-3.465-2.84C885.23 270.843 822.417 247.442 758 241v211l7 1c2.596.81 5.093 1.653 7.625 2.625l2.11.808C805.573 468.553 828.557 492.076 842 522l1.465 3.234c2.587 6.196 4.333 12.478 5.785 19.016l.495 2.161c1.698 8.264 1.746 15.93 2.255 24.589h-53l-3-19c-5.64-17.546-15.623-32.156-32.193-40.902-16.22-8.174-31.89-10.104-49.616-5.852-3.054.722-6.095 1.253-9.191 1.754a402574 402574 0 0 1-.055-136.237v-2.89q-.008-23.196-.022-46.392-.014-23.783-.017-47.565-.002-14.688-.014-29.376-.007-10.058-.006-20.115.002-5.811-.005-11.623-.007-6.285-.001-12.571l-.01-3.753.007-3.373-.001-2.935c.3-5.242 6.423-3.354 10.448-3.373" fill="#ABD04E"/><path d="m897 350 2.469.926C911.407 356.12 920.834 366.156 926 378c2.649 7.01 3.423 13.289 3.25 20.75l-.016 2.746c-.044 3.76-.094 7.001-1.105 10.64-.211 4.695 2.723 7.382 5.558 10.926 7.44 9.805 13.548 20.076 19.313 30.938l1.332 2.493c29.578 56.246 35.123 125.777 16.625 186.378C960.973 674.26 946.283 702.106 926 728l-1.302 1.666c-12.367 15.633-27.452 32.463-44.84 42.58-2.116 1.653-2.116 1.653-2.366 4.481l-.011 3.366-.042 3.863.015 4.246q-.014 2.232-.031 4.464c-.028 4.043-.031 8.086-.03 12.13-.004 4.224-.03 8.448-.052 12.672-.041 8-.061 16-.074 24-.016 9.108-.055 18.216-.095 27.323-.083 18.737-.137 37.473-.172 56.209a8060 8060 0 0 1-12.463 4.83l-3.54 1.376c-8.409 3.248-16.787 6.08-25.497 8.419l-3.64 1.02C823.36 943 823.36 943 821 943c-.42-25.364-.738-50.728-.933-76.096a3651 3651 0 0 0-.425-35.334c-.18-10.268-.296-20.535-.336-30.805a822 822 0 0 0-.21-16.304 526 526 0 0 1-.132-15.362q-.006-2.812-.11-5.622C818.45 751.96 818.45 751.96 821 747c4.392-4.534 10.024-7.122 15.66-9.785 3.91-2.03 7.354-4.661 10.84-7.34l2.094-1.6c4.656-3.581 9.072-7.388 13.37-11.392a86 86 0 0 1 5.223-4.446c3.671-3.18 6.69-6.727 9.813-10.437l2.316-2.656c27.575-32.106 46.453-75.67 46.922-118.34l.03-2.25c.48-45.92-10.985-86.894-37.268-124.754l-2-3c-2.025-.443-2.025-.443-4.367-.371l-2.667-.044-2.841-.022c-14.92-.441-26.81-4.53-37.937-14.875-10.828-11.605-14.732-25.784-14.465-41.254.58-13.432 7.45-26.379 17.277-35.434 15.639-11.765 35.361-16.226 54-9" fill="#AAD04E"/><path d="M637 196v197l-16 9c-19.987 13.5-37.776 29.456-52 49l-1.252 1.708C549.564 477.83 538.408 506.594 533 537l-.742 3.902c-7.655 48.29 5.56 99.024 32.556 139.279C566 682 566 682 567.096 684.012c1.166 1.981 2.17 3.476 3.904 4.988 3.051.752 5.892.469 9 .188 14.192-.62 24.94 3.44 35.992 12.433 9.612 8.907 15.53 20.916 16.387 33.973.627 16.615-3.62 30.258-15.067 42.656-10.307 9.71-22.679 14.352-36.687 14.188l-2.783-.026c-13.847-.343-25.072-5.754-35.154-15.225-11.958-12.764-14.371-27.225-13.857-44.07.169-2.117.169-2.117 1.044-5.68.188-5.168-2.408-7.665-5.562-11.562C494.97 677.453 478.162 627.244 477 579l-.062-2.287c-.671-28.12 3.008-55.76 11.062-82.713.225-.759.45-1.517.68-2.299 6.674-21.96 17.276-43.828 30.32-62.701l1.216-1.795C526.254 418.32 532.88 410.038 540 402c.472-.535.943-1.07 1.43-1.62 9.913-11.176 20.611-21.407 32.32-30.692l1.808-1.438c4.19-3.25 4.19-3.25 6.442-3.25V214c23.059-9.223 23.059-9.223 33.75-12.375l3.281-.996C634.398 196 634.398 196 637 196" fill="#5BA1CE"/><path d="M929 1099h23c9.71 18.26 19.093 36.678 27.938 55.375 6.408 13.548 13.18 26.916 19.92 40.302 4.684 9.319 9.314 18.661 13.826 28.065l1.317 2.728 1.196 2.51 1.059 2.212C1018 1232 1018 1232 1018 1234h2l.82-2.631c1.14-3.257 2.488-6.198 4.051-9.271l1.72-3.407.91-1.788c1.613-3.17 3.21-6.347 4.808-9.524.32-.639.642-1.278.973-1.936 2.65-5.279 5.2-10.6 7.718-15.943 5.946-12.58 12.228-24.992 18.47-37.428 5.854-11.666 11.692-23.333 17.21-35.164 2.865-6.11 6.05-12.003 9.32-17.908h23v167h-20l-1-122-17 35a7358 7358 0 0 1-13.875 27.75c-6.935 13.787-13.833 27.583-20.443 41.53A826 826 0 0 1 1028 1266h-18l-1.639-3.37c-11.847-24.346-23.802-48.633-35.974-72.82a1764 1764 0 0 1-18.216-37.377c-1.36-2.826-2.768-5.628-4.171-8.433l-1 122h-20zm-162 0 47.75-.25 15.015-.11c6.103-.018 6.103-.018 8.97-.022q2.97-.01 5.94-.04c16.533-.162 29.516.704 42.325 12.422 8.402 9.558 12.347 20.292 12 33-1.267 11.192-4.801 20.173-13 28l2.598 2.203c10.866 9.454 19.285 19.928 20.578 34.822.926 14.972-1.644 27.954-11.176 39.975-8.405 9.22-19.66 16.205-32.34 17.18a241 241 0 0 1-7.84.047h-3.036c-3.22 0-6.44-.016-9.659-.032q-2.996-.005-5.992-.006c-7.378-.01-14.755-.038-22.133-.064l-50-.125zm20 19v47c12.4.087 12.4.087 24.799.146 5.063.018 10.125.04 15.188.08q6.127.047 12.254.059 2.33.008 4.659.032c11.561.117 20.673-.269 29.44-8.547 5.13-5.468 6.027-10.912 5.941-18.172-.708-6.544-4.318-11.443-9.281-15.598-6.16-4.107-10.724-5.126-18.063-5.114h-2.13q-3.474.002-6.948.016l-4.825.005q-6.343.006-12.685.024-7.614.016-15.229.023c-7.706.01-15.413.029-23.12.046m0 67v62c13.24.117 13.24.117 26.479.195 5.407.024 10.814.052 16.22.107 4.364.044 8.728.067 13.092.078q2.486.01 4.971.043c11.986.15 22.768-.736 32.453-8.591 6.098-6.259 9.39-14.005 10.097-22.645-.32-9.765-4.318-17.018-10.976-23.91-6.264-5.82-13.044-7.746-21.496-7.618h-2.34c-2.521.001-5.042.024-7.563.048q-2.64.009-5.28.013c-4.61.011-9.22.04-13.829.074-5.542.036-11.085.05-16.628.067-8.4.03-16.8.087-25.201.139" fill="#A6A7AA"/><path d="M313.313 1114q2.365 1.975 4.687 4l1.86 1.605c15.395 14.301 24.489 35.703 25.519 56.47.346 12.22-.36 23.333-4.379 34.925l-1.062 3.145c-8.164 21.627-24.596 38.65-45.479 48.223-9.23 4.008-19.352 7.199-29.459 7.632l-3.25.156c-24.416.61-46.638-7.589-64.75-24.156-16.61-15.959-25.295-36.15-27-59l-.18-2.402c-.724-21.623 7.011-44.154 21.68-60.098 1.8-1.873 3.64-3.686 5.5-5.5l2.207-2.234c31.087-29.761 81.32-28.37 114.106-2.766M212 1133l-1.812 1.535c-10.436 9.48-18.405 25.456-19.327 39.595-.82 20.311 3.028 37.47 16.67 53.272 13.235 13.926 29.702 21.612 48.864 22.594 19.372.021 36.014-7.286 49.855-20.621 12.872-13.021 19.047-30.279 19.065-48.442-.333-18.65-8.36-34.382-21.108-47.824-13.388-12.674-31.24-18.541-49.434-18.312-15.978.86-30.91 7.502-42.773 18.203" fill="#636466"/><path d="M1268.438 1111.375c11.948 9.585 22.65 20.888 27.562 35.625l-18 8c-2.612-2.612-3.894-4.41-5.625-7.562-8.819-14.901-22.328-24.508-38.824-29.477-19.514-4.676-37.53-1.153-54.551 9.039-14.894 9.888-24.817 25.282-28.562 42.723-2.752 20.61 1.797 38.7 14.25 55.527 12.025 14.273 28.98 21.782 47.25 23.563 18.329.945 34.909-5.2 48.75-17.13 6.228-5.915 10.824-12.386 15.312-19.683 4.507.603 7.859 2.366 11.813 4.563l1.81.998q2.192 1.212 4.377 2.439c-1.926 13.13-14.762 24.92-24.812 32.813-20.17 14.383-44.198 20.095-68.626 16.062-12.984-2.39-24.893-7.019-35.562-14.875l-2.766-2.023A88 88 0 0 1 1129 1195c-1.981-25.695 2.82-49.113 19.574-69.207L1151 1123l1.957-2.262c29.616-31.735 81.096-34.174 115.48-9.363" fill="#A6A7AA"/><path d="M599 1157c13.333 11.874 21.389 25.68 22.875 43.625.225 4.205-.033 7.167-.875 11.375h-94v-18h72c-7.655-15.31-14.187-24.307-30-30-12.238-3.076-25.46-1.652-36.488 4.355-10.815 6.78-17.782 15.843-20.887 28.395-1.989 11.461.352 22.252 6.719 32.004 6.93 9.398 16.98 16.4 28.656 18.246 14.27 1.209 24.985-.961 37-9l2.75-1.812c3.386-3.292 5.765-7.192 8.25-11.188 4.357 1.471 7.72 3.83 11.313 6.625l1.666 1.273A817 817 0 0 1 612 1236c-3.96 12.054-16.33 20.25-27 26-15.629 7.353-34.592 8.322-51 3-16.835-6.596-30.915-17.517-39-34-6.442-16.28-7.334-33.724-.746-50.121 7.705-16.482 20.271-27.682 36.746-34.879a74 74 0 0 1 11-3l3.375-.687c19.45-1.677 38.32 2.048 53.625 14.687m-235-13c75.533 0 75.533 0 95 19 6.46 7.265 10.917 14.79 14 24l.742 2.121c4.558 16.014.786 33.199-6.719 47.543-3.081 5.08-6.774 9.21-11.023 13.336l-1.637 1.7c-14.212 13.639-33.1 14.75-51.613 14.487L384 1266v40h-20zm20 20v84c33.17.875 33.17.875 59.7-14.406 7.288-8.217 10.842-19.001 10.542-29.895-1.083-12.076-5.642-22.064-14.867-30.074C422.832 1161.362 404.109 1164 384 1164m337-14c12.964 10.263 21.222 21.457 24 38 .495 6.064.351 12.157.293 18.234q-.009 2.598-.013 5.195c-.011 4.518-.04 9.035-.074 13.553-.03 4.626-.044 9.251-.06 13.877-.032 9.047-.084 18.094-.146 27.141h-20l-.044-6.51c-.05-7.141-.117-14.282-.192-21.422-.044-4.325-.084-8.65-.11-12.974q-.041-6.273-.117-12.546a737 737 0 0 1-.035-4.76c-.06-13.626-.822-26.326-10.502-36.788-7.938-6.552-15.74-9.074-26-9-8.023 1.01-14.127 3.43-20 9l-1.68 1.559c-9.184 9.527-8.923 21.967-8.93 34.359q-.021 2.565-.05 5.132c-.043 4.466-.063 8.933-.078 13.4-.02 4.572-.062 9.144-.102 13.716-.075 8.945-.123 17.89-.16 26.834h-21v-122h21v11l2.09-1.39c18.928-12.36 41.723-17.023 61.91-3.61" fill="#636466"/></svg>