<svg width="417" height="465" viewBox="0 0 417 465" fill="none" xmlns="http://www.w3.org/2000/svg">
<path d="M373.22 148.882C366.467 148.862 359.808 150.462 353.801 153.548L275.521 73.2367V55.7743H332.199C335.259 65.5854 341.733 73.9752 350.447 79.4227C359.162 84.8702 369.54 87.0145 379.7 85.467C389.86 83.9195 399.129 78.7826 405.827 70.9876C412.524 63.1926 416.207 53.2557 416.207 42.9786C416.207 32.7014 412.524 22.7645 405.827 14.9695C399.129 7.17456 389.86 2.03765 379.7 0.490138C369.54 -1.05738 359.162 1.087 350.447 6.53446C341.733 11.9819 335.259 20.3718 332.199 30.1829H275.521V4.51619H140.64V30.1829H83.9624C80.9032 20.3926 74.4378 12.0222 65.7379 6.58896C57.0381 1.15568 46.6795 -0.980989 36.5398 0.566285C26.4001 2.11356 17.1502 7.24235 10.4667 15.0231C3.78322 22.8038 0.108499 32.7215 0.108499 42.9786C0.108499 53.2357 3.78322 63.1534 10.4667 70.9341C17.1502 78.7148 26.4001 83.8436 36.5398 85.3908C46.6795 86.9381 57.0381 84.8015 65.7379 79.3682C74.4378 73.9349 80.9032 65.5646 83.9624 55.7743H140.64V73.2367L62.4355 153.548C55.8935 150.212 48.6045 148.61 41.2662 148.896C33.9279 149.183 26.7861 151.349 20.5244 155.186C14.2626 159.023 9.09068 164.403 5.50363 170.811C1.91658 177.219 0.0345282 184.441 0.0376361 191.785C-0.204841 197.575 0.726264 203.355 2.77494 208.776C4.82362 214.197 7.94751 219.148 11.9588 223.331C15.9702 227.514 20.786 230.842 26.1168 233.116C31.4475 235.39 37.1831 236.562 42.9785 236.562C48.7739 236.562 54.5094 235.39 59.8402 233.116C65.171 230.842 69.9868 227.514 73.9981 223.331C78.0094 219.148 81.1334 214.197 83.1821 208.776C85.2308 203.355 86.1618 197.575 85.9193 191.785C85.9247 184.658 84.1389 177.644 80.7258 171.387L140.941 109.968V139.398H155.995L82.6828 299.645C80.878 299.533 79.0682 299.533 77.2635 299.645C67.1992 299.633 57.4485 303.146 49.7056 309.576C41.9626 316.005 36.7167 324.944 34.8793 334.839C33.0418 344.734 34.729 354.96 39.6477 363.74C44.5664 372.521 52.4056 379.301 61.8035 382.902C71.2014 386.503 81.564 386.698 91.0908 383.454C100.618 380.209 108.707 373.729 113.952 365.14C119.198 356.551 121.269 346.395 119.806 336.438C118.342 326.481 113.436 317.351 105.941 310.634L184.145 139.398H195.586V380.258C185.775 383.318 177.385 389.792 171.938 398.507C166.49 407.221 164.346 417.599 165.893 427.759C167.441 437.919 172.578 447.188 180.373 453.886C188.168 460.583 198.105 464.266 208.382 464.266C218.659 464.266 228.596 460.583 236.391 453.886C244.186 447.188 249.323 437.919 250.87 427.759C252.418 417.599 250.273 407.221 244.826 398.507C239.378 389.792 230.988 383.318 221.177 380.258V139.398H232.618L310.823 310.258C303.347 316.966 298.456 326.081 297 336.019C295.545 345.957 297.616 356.091 302.854 364.661C308.092 373.231 316.167 379.696 325.675 382.933C335.183 386.17 345.525 385.974 354.904 382.38C364.283 378.786 372.107 372.02 377.018 363.258C381.928 354.496 383.614 344.291 381.784 334.415C379.953 324.539 374.722 315.616 366.997 309.196C359.273 302.775 349.544 299.263 339.5 299.269C337.695 299.152 335.885 299.152 334.081 299.269L260.769 139.022H275.823V109.968L336.038 171.387C332.648 177.65 330.888 184.664 330.919 191.785C330.904 200.292 333.414 208.612 338.131 215.691C342.848 222.77 349.56 228.29 357.416 231.553C365.272 234.815 373.92 235.672 382.264 234.017C390.608 232.361 398.273 228.266 404.288 222.251C410.303 216.235 414.398 208.57 416.054 200.226C417.71 191.882 416.853 183.235 413.59 175.378C410.328 167.522 404.808 160.81 397.728 156.094C390.649 151.377 382.329 148.867 373.823 148.882H373.22ZM373.22 25.5915C376.662 25.5766 380.031 26.5837 382.901 28.4851C385.77 30.3865 388.01 33.0968 389.338 36.2725C390.665 39.4482 391.02 42.9465 390.358 46.3242C389.695 49.7019 388.045 52.8071 385.617 55.2463C383.188 57.6854 380.09 59.3488 376.716 60.0258C373.341 60.7029 369.841 60.363 366.659 59.0492C363.478 57.7355 360.758 55.507 358.844 52.6461C356.93 49.7852 355.909 46.4206 355.909 42.9786C355.899 40.6988 356.339 38.4396 357.205 36.3305C358.07 34.2215 359.344 32.3041 360.952 30.6886C362.561 29.073 364.473 27.7911 366.578 26.9164C368.683 26.0417 370.941 25.5915 373.22 25.5915ZM42.9408 60.2904C39.4988 60.2904 36.1342 59.2687 33.2733 57.3548C30.4124 55.4409 28.1839 52.721 26.8702 49.5395C25.5564 46.3581 25.2165 42.8583 25.8935 39.4835C26.5706 36.1087 28.234 33.0107 30.6732 30.5821C33.1124 28.1535 36.2175 26.5035 39.5952 25.8412C42.9729 25.1788 46.4712 25.5339 49.6469 26.8614C52.8227 28.189 55.5329 30.4292 57.4344 33.2984C59.3358 36.1676 60.3429 39.5365 60.328 42.9786C60.328 45.2583 59.8777 47.5157 59.003 49.621C58.1283 51.7263 56.8464 53.638 55.2308 55.2465C53.6153 56.8551 51.698 58.1287 49.5889 58.9943C47.4799 59.8598 45.2206 60.3003 42.9408 60.2904ZM42.9408 209.172C39.502 209.172 36.1404 208.152 33.2811 206.242C30.4218 204.331 28.1932 201.616 26.8772 198.439C25.5613 195.262 25.217 191.766 25.8879 188.393C26.5587 185.02 28.2147 181.922 30.6463 179.49C33.0779 177.059 36.1761 175.403 39.5488 174.732C42.9216 174.061 46.4175 174.405 49.5946 175.721C52.7717 177.037 55.4872 179.266 57.3977 182.125C59.3082 184.985 60.328 188.346 60.328 191.785C60.3379 194.071 59.895 196.337 59.0247 198.451C58.1544 200.565 56.8741 202.485 55.2576 204.102C53.6411 205.718 51.7204 206.999 49.6064 207.869C47.4924 208.739 45.2269 209.182 42.9408 209.172ZM77.0376 359.71C73.5956 359.71 70.231 358.688 67.3701 356.774C64.5092 354.86 62.2807 352.14 60.9669 348.959C59.6532 345.777 59.3133 342.278 59.9903 338.903C60.6673 335.528 62.3308 332.43 64.77 330.001C67.2091 327.573 70.3142 325.923 73.6919 325.26C77.0696 324.598 80.568 324.953 83.7437 326.281C86.9194 327.608 89.6297 329.849 91.5311 332.718C93.4326 335.587 94.4396 338.956 94.4247 342.398C94.3653 346.97 92.5073 351.335 89.253 354.547C85.9987 357.759 81.6101 359.56 77.0376 359.559V359.71ZM208.081 438.441C204.642 438.441 201.28 437.421 198.421 435.511C195.562 433.6 193.333 430.885 192.017 427.708C190.701 424.53 190.357 421.035 191.028 417.662C191.698 414.289 193.354 411.191 195.786 408.759C198.218 406.328 201.316 404.672 204.689 404.001C208.061 403.33 211.557 403.674 214.734 404.99C217.911 406.306 220.627 408.535 222.537 411.394C224.448 414.253 225.468 417.615 225.468 421.054C225.428 425.639 223.579 430.023 220.322 433.251C217.066 436.479 212.666 438.291 208.081 438.29V438.441ZM356.586 342.398C356.586 345.837 355.566 349.198 353.656 352.058C351.745 354.917 349.03 357.146 345.853 358.461C342.676 359.777 339.18 360.122 335.807 359.451C332.434 358.78 329.336 357.124 326.904 354.692C324.473 352.261 322.817 349.163 322.146 345.79C321.475 342.417 321.819 338.921 323.135 335.744C324.451 332.567 326.68 329.852 329.539 327.941C332.398 326.031 335.76 325.011 339.199 325.011C343.784 325.011 348.184 326.822 351.441 330.05C354.697 333.278 356.546 337.662 356.586 342.247V342.398ZM166.231 30.1076H249.93V113.807H166.231V30.1076ZM373.22 209.172C369.782 209.172 366.42 208.152 363.561 206.242C360.701 204.331 358.473 201.616 357.157 198.439C355.841 195.262 355.497 191.766 356.167 188.393C356.838 185.02 358.494 181.922 360.926 179.49C363.357 177.059 366.456 175.403 369.828 174.732C373.201 174.061 376.697 174.405 379.874 175.721C383.051 177.037 385.767 179.266 387.677 182.125C389.588 184.985 390.607 188.346 390.607 191.785C390.617 194.071 390.174 196.337 389.304 198.451C388.434 200.565 387.154 202.485 385.537 204.102C383.921 205.718 382 206.999 379.886 207.869C377.772 208.739 375.507 209.182 373.22 209.172Z" fill="currentColor"/>
<path d="M224.64 55.4736H191.597V88.5166H224.64V55.4736Z" fill="currentColor"/>
</svg>
