<svg width="280" height="122" viewBox="0 0 280 122" fill="none" xmlns="http://www.w3.org/2000/svg">
<path d="M76.1495 31.2817C74.7988 31.2778 73.4669 31.5979 72.2656 32.2151L56.6097 16.1527V12.6602H67.9452C68.5571 14.6224 69.8519 16.3004 71.5948 17.3899C73.3378 18.4794 75.4134 18.9083 77.4454 18.5988C79.4774 18.2893 81.3312 17.2619 82.6707 15.7029C84.0102 14.1439 84.7468 12.1565 84.7468 10.1011C84.7468 8.04566 84.0102 6.05827 82.6707 4.49928C81.3312 2.94028 79.4774 1.9129 77.4454 1.6034C75.4134 1.2939 73.3378 1.72277 71.5948 2.81226C69.8519 3.90176 68.5571 5.57973 67.9452 7.54195H56.6097V2.40861H29.6333V7.54195H18.2978C17.686 5.58389 16.3929 3.90982 14.653 2.82316C12.913 1.73651 10.8413 1.30917 8.81333 1.61863C6.78538 1.92808 4.9354 2.95384 3.59871 4.50998C2.26201 6.06612 1.52707 8.04966 1.52707 10.1011C1.52707 12.1525 2.26201 14.136 3.59871 15.6922C4.9354 17.2483 6.78538 18.2741 8.81333 18.5835C10.8413 18.893 12.913 18.4657 14.653 17.379C16.3929 16.2924 17.686 14.6183 18.2978 12.6602H29.6333V16.1527L13.9925 32.2151C12.6841 31.5477 11.2263 31.2273 9.75861 31.2846C8.29095 31.342 6.86259 31.7751 5.61025 32.5425C4.3579 33.3099 3.32351 34.386 2.6061 35.6676C1.88869 36.9493 1.51228 38.3936 1.5129 39.8624C1.4644 41.0204 1.65062 42.1763 2.06036 43.2606C2.47009 44.3448 3.09487 45.335 3.89714 46.1716C4.6994 47.0082 5.66257 47.6738 6.72872 48.1286C7.79487 48.5833 8.94199 48.8177 10.1011 48.8177C11.2602 48.8177 12.4073 48.5833 13.4734 48.1286C14.5396 47.6738 15.5027 47.0082 16.305 46.1716C17.1073 45.335 17.7321 44.3448 18.1418 43.2606C18.5515 42.1763 18.7377 41.0204 18.6892 39.8624C18.6903 38.437 18.3331 37.0341 17.6505 35.7828L29.6935 23.4989V29.385H32.7043L18.0419 61.4344C17.681 61.412 17.319 61.412 16.9581 61.4344C14.9452 61.4319 12.9951 62.1346 11.4465 63.4205C9.89789 64.7063 8.84871 66.4941 8.48122 68.4731C8.11374 70.4521 8.45118 72.4974 9.43491 74.2535C10.4186 76.0096 11.9865 77.3655 13.8661 78.0858C15.7457 78.806 17.8182 78.8451 19.7235 78.1961C21.6289 77.5471 23.2467 76.2511 24.2958 74.5333C25.345 72.8155 25.7592 70.7844 25.4665 68.793C25.1738 66.8015 24.1926 64.9755 22.6935 63.6323L38.3344 29.385H40.6226V77.557C38.6604 78.169 36.9824 79.4638 35.8929 81.2067C34.8034 82.9496 34.3745 85.0252 34.684 87.0572C34.9935 89.0892 36.0209 90.943 37.5799 92.2826C39.1389 93.6221 41.1263 94.3586 43.1817 94.3586C45.2371 94.3586 47.2245 93.6221 48.7835 92.2826C50.3425 90.943 51.3699 89.0892 51.6794 87.0572C51.9889 85.0252 51.56 82.9496 50.4705 81.2067C49.381 79.4638 47.7031 78.169 45.7409 77.557V29.385H48.029L63.6699 63.557C62.1747 64.8986 61.1966 66.7215 60.9055 68.7091C60.6143 70.6967 61.0285 72.7236 62.0762 74.4376C63.1238 76.1516 64.7387 77.4446 66.6404 78.092C68.542 78.7393 70.6104 78.7002 72.4862 77.9814C74.362 77.2626 75.9268 75.9095 76.9089 74.157C77.891 72.4046 78.2282 70.3636 77.8622 68.3884C77.4961 66.4132 76.4497 64.6286 74.9049 63.3445C73.36 62.0604 71.4142 61.358 69.4054 61.3591C69.0445 61.3357 68.6824 61.3357 68.3215 61.3591L53.6591 29.3097H56.6699V23.4989L68.7129 35.7828C68.0349 37.0353 67.6829 38.4382 67.6892 39.8624C67.6863 41.5637 68.1882 43.2277 69.1316 44.6436C70.075 46.0594 71.4173 47.1635 72.9886 47.8159C74.5598 48.4684 76.2894 48.6399 77.9582 48.3087C79.627 47.9775 81.16 47.1585 82.363 45.9555C83.566 44.7525 84.385 43.2195 84.7162 41.5507C85.0474 39.8819 84.8759 38.1523 84.2234 36.581C83.571 35.0098 82.4669 33.6675 81.0511 32.7241C79.6352 31.7807 77.9712 31.2788 76.2699 31.2817H76.1495ZM76.1495 6.62367C76.8379 6.62069 77.5117 6.8221 78.0855 7.20239C78.6593 7.58268 79.1074 8.12473 79.3729 8.75987C79.6384 9.39502 79.7094 10.0947 79.5769 10.7702C79.4445 11.4458 79.1145 12.0668 78.6287 12.5546C78.143 13.0425 77.5234 13.3751 76.8485 13.5105C76.1735 13.6459 75.4736 13.578 74.8373 13.3152C74.201 13.0525 73.657 12.6068 73.2742 12.0346C72.8914 11.4624 72.6871 10.7895 72.6871 10.1011C72.6851 9.64513 72.7732 9.19329 72.9463 8.77147C73.1194 8.34966 73.3742 7.96619 73.6959 7.64309C74.0176 7.31998 74.3999 7.06359 74.821 6.88865C75.242 6.71371 75.6935 6.62366 76.1495 6.62367ZM10.0935 13.5635C9.40513 13.5634 8.73221 13.3591 8.16003 12.9763C7.58785 12.5936 7.14216 12.0496 6.87941 11.4133C6.61666 10.777 6.54868 10.077 6.68408 9.40206C6.81948 8.7271 7.15218 8.10751 7.64001 7.62179C8.12784 7.13607 8.74886 6.80608 9.4244 6.6736C10.0999 6.54113 10.7996 6.61215 11.4348 6.87766C12.0699 7.14317 12.612 7.59121 12.9922 8.16505C13.3725 8.73888 13.5739 9.41268 13.571 10.1011C13.571 10.557 13.4809 11.0085 13.306 11.4296C13.131 11.8506 12.8746 12.233 12.5515 12.5547C12.2284 12.8764 11.845 13.1311 11.4232 13.3042C11.0013 13.4773 10.5495 13.5654 10.0935 13.5635ZM10.0935 43.3398C9.40577 43.3398 8.73345 43.1358 8.16159 42.7537C7.58974 42.3716 7.14402 41.8285 6.88082 41.1931C6.61762 40.5577 6.54877 39.8585 6.68294 39.184C6.81712 38.5094 7.14831 37.8898 7.63463 37.4035C8.12096 36.9171 8.74058 36.5859 9.41514 36.4518C10.0897 36.3176 10.7889 36.3865 11.4243 36.6497C12.0597 36.9129 12.6028 37.3586 12.9849 37.9304C13.367 38.5023 13.571 39.1746 13.571 39.8624C13.573 40.3196 13.4844 40.7727 13.3103 41.1955C13.1363 41.6183 12.8802 42.0024 12.5569 42.3257C12.2336 42.649 11.8494 42.9051 11.4267 43.0792C11.0038 43.2532 10.5508 43.3418 10.0935 43.3398ZM16.9129 73.4473C16.2245 73.4473 15.5516 73.243 14.9794 72.8602C14.4072 72.4774 13.9615 71.9334 13.6988 71.2971C13.436 70.6609 13.368 69.9609 13.5034 69.2859C13.6388 68.611 13.9715 67.9914 14.4594 67.5057C14.9472 67.02 15.5682 66.6899 16.2438 66.5575C16.9193 66.425 17.619 66.496 18.2541 66.7615C18.8893 67.027 19.4313 67.4751 19.8116 68.0489C20.1919 68.6227 20.3933 69.2965 20.3903 69.9849C20.3784 70.8994 20.0068 71.7723 19.356 72.4147C18.7051 73.0571 17.8274 73.4173 16.9129 73.4172V73.4473ZM43.1215 89.1936C42.4337 89.1936 41.7614 88.9896 41.1895 88.6075C40.6177 88.2254 40.172 87.6823 39.9088 87.0469C39.6456 86.4115 39.5767 85.7123 39.7109 85.0377C39.8451 84.3632 40.1763 83.7436 40.6626 83.2572C41.1489 82.7709 41.7685 82.4397 42.4431 82.3055C43.1176 82.1714 43.8168 82.2402 44.4522 82.5034C45.0877 82.7666 45.6308 83.2123 46.0129 83.7842C46.395 84.3561 46.5989 85.0284 46.5989 85.7161C46.591 86.6332 46.2211 87.51 45.5698 88.1556C44.9185 88.8013 44.0386 89.1635 43.1215 89.1635V89.1936ZM72.8226 69.9849C72.8226 70.6727 72.6186 71.345 72.2365 71.9169C71.8544 72.4888 71.3113 72.9345 70.6759 73.1977C70.0405 73.4609 69.3413 73.5297 68.6667 73.3956C67.9922 73.2614 67.3726 72.9302 66.8862 72.4439C66.3999 71.9575 66.0687 71.3379 65.9346 70.6634C65.8004 69.9888 65.8692 69.2896 66.1324 68.6542C66.3956 68.0188 66.8413 67.4757 67.4132 67.0936C67.9851 66.7115 68.6574 66.5075 69.3452 66.5075C70.2622 66.5075 71.1422 66.8697 71.7935 67.5154C72.4448 68.161 72.8146 69.0378 72.8226 69.9548V69.9849ZM34.7516 7.52689H51.4914V24.2667H34.7516V7.52689ZM76.1495 43.3398C75.4617 43.3398 74.7894 43.1358 74.2175 42.7537C73.6456 42.3716 73.1999 41.8285 72.9367 41.1931C72.6735 40.5577 72.6047 39.8585 72.7389 39.184C72.873 38.5094 73.2042 37.8898 73.6905 37.4035C74.1769 36.9171 74.7965 36.5859 75.471 36.4518C76.1456 36.3176 76.8448 36.3865 77.4802 36.6497C78.1156 36.9129 78.6587 37.3586 79.0408 37.9304C79.4229 38.5023 79.6269 39.1746 79.6269 39.8624C79.6289 40.3196 79.5403 40.7727 79.3662 41.1955C79.1922 41.6183 78.9361 42.0024 78.6128 42.3257C78.2895 42.649 77.9054 42.9051 77.4826 43.0792C77.0598 43.2532 76.6067 43.3418 76.1495 43.3398Z" fill="currentColor"/>
<path d="M46.4333 12.6001H39.8247V19.2087H46.4333V12.6001Z" fill="#F96360"/>
<path d="M136.734 13.2322C136.701 15.4698 136.008 17.6478 134.741 19.4925C133.474 21.3372 131.69 22.7662 129.613 23.6C127.536 24.4337 125.26 24.635 123.069 24.1785C120.878 23.722 118.871 22.6282 117.3 21.0344C115.729 19.4406 114.665 17.418 114.24 15.2208C113.815 13.0237 114.049 10.75 114.913 8.6856C115.777 6.62119 117.232 4.85816 119.095 3.61812C120.957 2.37807 123.145 1.71634 125.383 1.71611C126.901 1.66663 128.413 1.93196 129.823 2.49539C131.234 3.05882 132.513 3.90814 133.579 4.9899C134.645 6.07166 135.476 7.36243 136.019 8.78095C136.562 10.1995 136.805 11.715 136.734 13.2322ZM130.712 13.2322C130.712 9.58923 128.65 6.87955 125.338 6.87955C122.026 6.87955 119.934 9.58923 119.934 13.2322C119.934 16.8752 121.981 19.2537 125.338 19.2537C128.695 19.2537 130.757 16.8 130.757 13.2322H130.712ZM156.725 9.52901C156.799 10.575 156.653 11.6248 156.297 12.6111C155.942 13.5975 155.384 14.4987 154.66 15.257C153.935 16.0152 153.061 16.6138 152.092 17.0143C151.123 17.4148 150.081 17.6084 149.032 17.5828H146.022V24.1613H140V2.03223H148.701C149.732 1.95784 150.767 2.09641 151.741 2.43932C152.716 2.78223 153.61 3.32212 154.366 4.02539C155.123 4.72866 155.727 5.58024 156.141 6.52709C156.554 7.47394 156.769 8.4958 156.77 9.52901H156.725ZM145.886 12.4043H148.385C148.732 12.4219 149.079 12.366 149.404 12.2402C149.728 12.1144 150.022 11.9215 150.266 11.6742C150.511 11.427 150.7 11.1308 150.822 10.8052C150.944 10.4797 150.996 10.132 150.974 9.78492C150.996 9.43917 150.945 9.09267 150.822 8.76851C150.7 8.44436 150.51 8.14998 150.265 7.90499C150.02 7.66001 149.726 7.47003 149.402 7.34773C149.077 7.22542 148.731 7.17358 148.385 7.19567H145.886V12.4043ZM176.521 24.1613H159.781V2.03223H176.34V7.19567H165.592V10.5376H173.209V15.6559H165.592V19.043H176.506L176.521 24.1613ZM185.402 2.03223L192.929 9.24299V2.03223H198.8V24.1613H192.929V16.8903L185.658 10.0408V24.1613H179.772V2.03223H185.402ZM130.878 52.086C130.878 57.0236 125.759 59.1011 121.996 59.1011C119.07 59.128 116.197 58.3185 113.716 56.7677L115.899 52.0559C117.661 53.163 119.665 53.8243 121.74 53.9828C123.516 53.9828 124.751 53.4709 124.751 52.4774C124.751 49.6021 114.379 50.4903 114.379 42.9634C114.379 38.4473 118.895 36.3247 122.824 36.3247C125.318 36.2957 127.789 36.8094 130.065 37.8301L128.228 42.7677C126.601 41.995 124.846 41.5305 123.05 41.3978C121.71 41.3978 120.491 41.7441 120.491 42.9032C120.551 45.1613 130.878 44.7849 130.878 52.086ZM155.325 47.8559C155.292 50.0935 154.599 52.2715 153.332 54.1162C152.065 55.9608 150.281 57.3899 148.205 58.2236C146.128 59.0574 143.851 59.2587 141.66 58.8022C139.469 58.3457 137.463 57.2518 135.892 55.658C134.321 54.0642 133.256 52.0416 132.831 49.8445C132.407 47.6473 132.641 45.3737 133.505 43.3093C134.368 41.2449 135.823 39.4818 137.686 38.2418C139.549 37.0017 141.737 36.34 143.974 36.3398C145.492 36.2903 147.004 36.5556 148.415 37.119C149.825 37.6825 151.104 38.5318 152.17 39.6136C153.236 40.6953 154.067 41.9861 154.61 43.4046C155.153 44.8231 155.396 46.3387 155.325 47.8559ZM149.303 47.8559C149.303 44.2129 147.241 41.5032 143.929 41.5032C140.617 41.5032 138.525 44.2129 138.525 47.8559C138.525 51.4989 140.572 53.8774 143.929 53.8774C147.286 53.8774 149.349 51.4236 149.349 47.8559H149.303ZM171.041 36.6559H176.957V50.5656C176.957 55.7591 172.245 59.1011 167.639 59.1011C163.032 59.1011 158.275 55.7591 158.275 50.5656V36.6559H164.161V50.2795C164.13 50.7504 164.196 51.2226 164.355 51.667C164.514 52.1114 164.762 52.5185 165.084 52.863C165.407 53.2075 165.797 53.4821 166.23 53.6699C166.663 53.8577 167.129 53.9545 167.601 53.9545C168.073 53.9545 168.54 53.8577 168.973 53.6699C169.406 53.4821 169.796 53.2075 170.118 52.863C170.441 52.5185 170.689 52.1114 170.848 51.667C171.006 51.2226 171.072 50.7504 171.041 50.2795V36.6559ZM187.103 51.8903V58.7849H181.232V36.6559H189.888C190.918 36.5878 191.95 36.7321 192.922 37.0797C193.893 37.4274 194.782 37.971 195.535 38.6768C196.287 39.3827 196.887 40.2356 197.295 41.1828C197.704 42.13 197.914 43.1511 197.912 44.1828C197.988 45.5259 197.689 46.8637 197.048 48.0467C196.407 49.2296 195.45 50.2112 194.284 50.8817L199.222 58.815H192.357L188.368 51.9204L187.103 51.8903ZM192.161 44.2129C192.169 43.8849 192.107 43.559 191.981 43.2563C191.855 42.9535 191.666 42.6806 191.428 42.4551C191.19 42.2296 190.907 42.0565 190.598 41.947C190.288 41.8375 189.96 41.794 189.632 41.8193H187.103V46.6666H189.678C190.008 46.6855 190.339 46.6355 190.65 46.5199C190.96 46.4043 191.243 46.2255 191.481 45.9948C191.718 45.7642 191.906 45.4868 192.031 45.18C192.156 44.8733 192.215 44.544 192.207 44.2129H192.161ZM220.011 57.4C217.696 58.5156 215.159 59.0969 212.589 59.1011C209.571 59.1011 206.676 57.902 204.542 55.7677C202.408 53.6335 201.209 50.7387 201.209 47.7204C201.209 44.7021 202.408 41.8074 204.542 39.6731C206.676 37.5388 209.571 36.3398 212.589 36.3398C215.055 36.2942 217.502 36.7713 219.77 37.7398L217.903 42.6322C216.294 41.9715 214.583 41.5897 212.845 41.5032C209.082 41.5032 207.215 44.3032 207.215 47.8559C207.215 51.4086 209.082 53.8774 212.845 53.8774C214.706 53.738 216.527 53.2637 218.22 52.4774L220.011 57.4ZM239.957 58.7849H223.217V36.6559H239.777V41.8193H229.164V45.1613H236.781V50.2795H229.164V53.6666H240.063L239.957 58.7849ZM121.138 93.4086H115.252V71.2795H130.968V76.443H121.183V79.7849H128.574V84.9333H121.183L121.138 93.4086ZM133.557 71.2795H139.473V93.4086H133.557V71.2795ZM149.936 86.514V93.4086H144.05V71.2795H152.706C153.736 71.2093 154.77 71.352 155.743 71.6986C156.717 72.0453 157.608 72.5886 158.362 73.2947C159.116 74.0007 159.717 74.8544 160.127 75.8027C160.536 76.7509 160.747 77.7734 160.744 78.8064C160.817 80.1508 160.515 81.489 159.871 82.6718C159.228 83.8546 158.269 84.8355 157.101 85.5054L162.039 93.4387H155.174L151.2 86.5441L149.936 86.514ZM154.994 78.8365C155.001 78.5086 154.94 78.1827 154.813 77.8799C154.687 77.5772 154.498 77.3043 154.26 77.0788C154.022 76.8533 153.739 76.6802 153.43 76.5707C153.121 76.4612 152.792 76.4177 152.465 76.443H149.936V81.2903H152.465C152.8 81.318 153.138 81.2745 153.455 81.1629C153.773 81.0512 154.063 80.8738 154.308 80.6422C154.552 80.4106 154.745 80.1301 154.874 79.819C155.002 79.5078 155.064 79.1731 155.054 78.8365H154.994ZM181.473 93.4086V80.3871L177.966 85.2795H174.744L171.237 80.3871V93.4086H165.351V71.2795H171.086L176.355 78.4903L181.639 71.2795H187.359V93.4086H181.473ZM191.318 71.2795H197.204L198.153 86.3333H198.273L201.088 80.0709H205.454L208.239 86.3333H208.359L209.338 71.2795H215.269L212.906 93.4086H207.426L203.422 85.4752H203.226L199.237 93.4086H193.772L191.318 71.2795ZM237.022 93.4086H231.136V87.1161H224.753V93.4086H218.852V79.3484C218.927 77.0218 219.918 74.819 221.61 73.2202C223.302 71.6214 225.557 70.7561 227.884 70.8129C232.4 70.8129 236.916 74.4709 236.916 79.3484L237.022 93.4086ZM231.136 79.8602C231.198 79.4043 231.163 78.9403 231.031 78.4993C230.9 78.0584 230.675 77.6508 230.373 77.3039C230.07 76.957 229.697 76.6789 229.278 76.4884C228.859 76.2979 228.404 76.1993 227.944 76.1993C227.484 76.1993 227.029 76.2979 226.61 76.4884C226.192 76.6789 225.818 76.957 225.516 77.3039C225.214 77.6508 224.989 78.0584 224.857 78.4993C224.726 78.9403 224.69 79.4043 224.753 79.8602V81.8623H231.136V79.8602ZM247.168 86.529V93.4236H241.297V71.2946H249.953C250.982 71.2265 252.015 71.3708 252.986 71.7184C253.957 72.0661 254.847 72.6097 255.599 73.3155C256.352 74.0214 256.951 74.8744 257.36 75.8215C257.769 76.7687 257.979 77.7898 257.977 78.8215C258.049 80.1641 257.748 81.5006 257.108 82.6829C256.468 83.8652 255.513 84.8473 254.349 85.5204L259.271 93.4537H252.422L248.432 86.5591L247.168 86.529ZM252.226 78.8516C252.233 78.5236 252.172 78.1977 252.045 77.895C251.919 77.5922 251.731 77.3193 251.492 77.0938C251.254 76.8683 250.971 76.6952 250.662 76.5857C250.353 76.4762 250.024 76.4327 249.697 76.458H247.168V81.2903H249.697C250.031 81.3157 250.367 81.2707 250.683 81.158C250.999 81.0453 251.287 80.8675 251.53 80.6362C251.773 80.4049 251.964 80.1251 252.092 79.8151C252.219 79.5051 252.281 79.1717 252.271 78.8365L252.226 78.8516ZM279.323 93.4236H262.643V71.2946H279.202V76.458H268.589V79.7849H276.207V84.9032H268.589V88.2903H279.488L279.323 93.4236Z" fill="#F96360"/>
<path d="M160.609 120.43H157.929V107.153H166.781V109.516H160.609V112.527H165.26V114.89H160.609V120.43ZM180.796 113.867C180.752 115.177 180.323 116.446 179.562 117.515C178.802 118.584 177.744 119.405 176.521 119.877C175.297 120.349 173.961 120.45 172.681 120.169C171.4 119.887 170.23 119.235 169.317 118.293C168.404 117.352 167.788 116.162 167.546 114.873C167.305 113.584 167.447 112.252 167.957 111.044C168.467 109.836 169.32 108.804 170.412 108.077C171.504 107.35 172.785 106.961 174.097 106.957C174.996 106.926 175.892 107.083 176.728 107.418C177.564 107.752 178.321 108.257 178.951 108.9C179.581 109.543 180.07 110.309 180.388 111.151C180.705 111.994 180.844 112.893 180.796 113.791V113.867ZM178.071 113.867C178.071 111.262 176.566 109.351 174.097 109.351C171.628 109.351 170.138 111.277 170.138 113.867C170.078 114.423 170.137 114.986 170.309 115.518C170.481 116.051 170.763 116.541 171.138 116.957C171.512 117.373 171.969 117.706 172.48 117.934C172.991 118.162 173.545 118.28 174.104 118.28C174.664 118.28 175.217 118.162 175.729 117.934C176.24 117.706 176.697 117.373 177.071 116.957C177.445 116.541 177.728 116.051 177.9 115.518C178.072 114.986 178.131 114.423 178.071 113.867ZM191.017 107.153H193.727V115.613C193.625 116.969 193.015 118.236 192.018 119.161C191.022 120.086 189.712 120.6 188.353 120.6C186.993 120.6 185.684 120.086 184.687 119.161C183.69 118.236 183.08 116.969 182.979 115.613V107.153H185.673V115.282C185.626 115.662 185.66 116.047 185.775 116.413C185.889 116.778 186.08 117.115 186.336 117.4C186.591 117.685 186.904 117.913 187.255 118.067C187.606 118.221 187.985 118.298 188.368 118.292C188.748 118.296 189.125 118.218 189.473 118.062C189.82 117.907 190.13 117.679 190.382 117.393C190.633 117.108 190.82 116.771 190.93 116.407C191.039 116.042 191.069 115.659 191.017 115.282V107.153ZM204.942 112.512V107.153H207.637V120.43H204.942V115.914L199.447 110.705H199.372V120.43H196.678V107.153H199.192L204.867 112.512H204.942ZM214.561 107.153C218.927 107.153 221.426 109.802 221.426 113.791C221.426 117.781 218.927 120.43 214.561 120.43H210.753V107.153H214.561ZM214.29 118.052C217.407 118.052 218.807 116.335 218.807 113.791C218.807 111.247 217.482 109.516 214.29 109.516H213.462V118.052H214.29ZM234.101 120.43H231.407V116.065H226.303V120.43H223.609V111.834C223.622 111.161 223.769 110.497 224.042 109.881C224.314 109.265 224.706 108.709 225.194 108.245C225.683 107.782 226.259 107.42 226.889 107.181C227.518 106.941 228.189 106.83 228.862 106.852C230.211 106.843 231.51 107.357 232.487 108.286C233.464 109.215 234.043 110.487 234.101 111.834V120.43ZM231.407 112.151C231.455 111.787 231.425 111.417 231.319 111.066C231.213 110.715 231.033 110.391 230.792 110.115C230.55 109.839 230.252 109.618 229.918 109.466C229.584 109.315 229.222 109.236 228.855 109.236C228.488 109.236 228.126 109.315 227.792 109.466C227.458 109.618 227.16 109.839 226.918 110.115C226.677 110.391 226.497 110.715 226.391 111.066C226.285 111.417 226.255 111.787 226.303 112.151V113.776H231.407V112.151ZM245.843 107.153V109.516H241.733V120.43H239.039V109.441H234.929V107.077L245.843 107.153ZM247.635 107.153H250.344V120.43H247.635V107.153ZM266.09 113.867C266.046 115.177 265.617 116.446 264.857 117.515C264.097 118.584 263.039 119.405 261.815 119.877C260.592 120.349 259.256 120.45 257.975 120.169C256.694 119.887 255.524 119.235 254.612 118.293C253.699 117.352 253.083 116.162 252.841 114.873C252.599 113.584 252.742 112.252 253.252 111.044C253.761 109.836 254.615 108.804 255.707 108.077C256.799 107.35 258.08 106.961 259.391 106.957C260.291 106.926 261.187 107.083 262.023 107.418C262.858 107.752 263.615 108.257 264.245 108.9C264.875 109.543 265.365 110.309 265.682 111.151C266 111.994 266.139 112.893 266.09 113.791V113.867ZM263.366 113.867C263.366 111.262 261.86 109.351 259.391 109.351C256.923 109.351 255.432 111.277 255.432 113.867C255.373 114.423 255.431 114.986 255.603 115.518C255.776 116.051 256.058 116.541 256.432 116.957C256.806 117.373 257.264 117.706 257.775 117.934C258.286 118.162 258.839 118.28 259.399 118.28C259.959 118.28 260.512 118.162 261.023 117.934C261.534 117.706 261.992 117.373 262.366 116.957C262.74 116.541 263.022 116.051 263.195 115.518C263.367 114.986 263.425 114.423 263.366 113.867ZM276.733 112.512V107.153H279.428V120.43H276.733V115.914L271.239 110.705H271.164V120.43H268.469V107.153H270.968L276.643 112.512H276.733ZM147.271 112.602H115.297V114.951H147.286L147.271 112.602Z" fill="currentColor"/>
</svg>
