<svg width="51" height="56" viewBox="0 0 51 56" fill="none" xmlns="http://www.w3.org/2000/svg">
<path d="M45.7611 17.8658C44.9507 17.8635 44.1516 18.0555 43.4307 18.4258L34.0372 8.7884V6.69291H40.8385C41.2056 7.87024 41.9825 8.87703 43.0283 9.53073C44.074 10.1844 45.3194 10.4417 46.5386 10.256C47.7578 10.0703 48.8701 9.45391 49.6738 8.51851C50.4775 7.58311 50.9194 6.39068 50.9194 5.15743C50.9194 3.92417 50.4775 2.73174 49.6738 1.79634C48.8701 0.860947 47.7578 0.244518 46.5386 0.0588166C45.3194 -0.126885 44.074 0.13044 43.0283 0.784136C41.9825 1.43783 41.2056 2.44462 40.8385 3.62195H34.0372V0.541942H17.8514V3.62195H11.0501C10.683 2.44711 9.90714 1.44267 8.86316 0.790675C7.81918 0.138681 6.57615 -0.117719 5.35938 0.0679542C4.14262 0.253627 3.03263 0.869082 2.23061 1.80277C1.4286 2.73645 0.987629 3.92657 0.987629 5.15743C0.987629 6.38828 1.4286 7.5784 2.23061 8.51209C3.03263 9.44577 4.14262 10.0612 5.35938 10.2469C6.57615 10.4326 7.81918 10.1762 8.86316 9.52419C9.90714 8.87219 10.683 7.86775 11.0501 6.69291H17.8514V8.7884L8.46687 18.4258C7.68183 18.0254 6.80715 17.8332 5.92655 17.8676C5.04596 17.902 4.18894 18.1618 3.43753 18.6223C2.68613 19.0827 2.06549 19.7284 1.63504 20.4973C1.2046 21.2663 0.978753 22.1329 0.979126 23.0142C0.950028 23.709 1.06176 24.4026 1.3076 25.0531C1.55344 25.7037 1.92831 26.2978 2.40967 26.7997C2.89103 27.3017 3.46893 27.7011 4.10862 27.9739C4.74831 28.2468 5.43658 28.3874 6.13203 28.3874C6.82748 28.3874 7.51574 28.2468 8.15543 27.9739C8.79512 27.7011 9.37302 27.3017 9.85438 26.7997C10.3357 26.2978 10.7106 25.7037 10.9565 25.0531C11.2023 24.4026 11.314 23.709 11.2849 23.0142C11.2856 22.159 11.0713 21.3173 10.6617 20.5665L17.8875 13.1961V16.7278H19.694L10.8965 35.9574C10.68 35.944 10.4628 35.944 10.2462 35.9574C9.03851 35.9559 7.86843 36.3775 6.93928 37.1491C6.01012 37.9206 5.38061 38.9932 5.16012 40.1806C4.93963 41.3681 5.1421 42.5952 5.73233 43.6489C6.32257 44.7025 7.26329 45.5161 8.39103 45.9482C9.51878 46.3804 10.7623 46.4038 11.9055 46.0144C13.0487 45.625 14.0194 44.8474 14.6489 43.8168C15.2784 42.7861 15.5269 41.5674 15.3513 40.3726C15.1756 39.1777 14.587 38.0821 13.6875 37.2761L23.072 16.7278H24.4449V45.631C23.2676 45.9981 22.2608 46.775 21.6071 47.8208C20.9534 48.8665 20.6961 50.1119 20.8818 51.3311C21.0675 52.5503 21.6839 53.6626 22.6193 54.4663C23.5547 55.27 24.7472 55.7119 25.9804 55.7119C27.2137 55.7119 28.4061 55.27 29.3415 54.4663C30.2769 53.6626 30.8933 52.5503 31.079 51.3311C31.2647 50.1119 31.0074 48.8665 30.3537 47.8208C29.7 46.775 28.6932 45.9981 27.5159 45.631V16.7278H28.8888L38.2733 37.231C37.3762 38.0359 36.7893 39.1297 36.6147 40.3222C36.44 41.5148 36.6885 42.7309 37.3171 43.7593C37.9457 44.7878 38.9146 45.5635 40.0556 45.952C41.1966 46.3404 42.4376 46.3169 43.5631 45.8856C44.6886 45.4543 45.6275 44.6425 46.2167 43.591C46.806 42.5395 47.0083 41.3149 46.7887 40.1298C46.569 38.9447 45.9412 37.8739 45.0143 37.1035C44.0874 36.333 42.9199 35.9116 41.7146 35.9123C41.4981 35.8982 41.2808 35.8982 41.0643 35.9123L32.2669 16.6826H34.0733V13.1961L41.2991 20.5665C40.8923 21.318 40.6811 22.1597 40.6849 23.0142C40.6831 24.035 40.9843 25.0334 41.5503 25.8829C42.1164 26.7324 42.9218 27.3949 43.8645 27.7863C44.8073 28.1778 45.845 28.2807 46.8463 28.082C47.8476 27.8833 48.7674 27.3919 49.4892 26.6701C50.211 25.9483 50.7024 25.0285 50.9011 24.0272C51.0998 23.0259 50.9969 21.9882 50.6054 21.0454C50.214 20.1026 49.5515 19.2973 48.702 18.7312C47.8525 18.1652 46.8541 17.864 45.8333 17.8658H45.7611ZM45.7611 3.07098C46.1741 3.06919 46.5784 3.19004 46.9227 3.41821C47.267 3.64638 47.5358 3.97161 47.6951 4.3527C47.8544 4.73379 47.897 5.15358 47.8175 5.55891C47.7381 5.96423 47.5401 6.33685 47.2486 6.62955C46.9572 6.92225 46.5854 7.12186 46.1805 7.2031C45.7755 7.28434 45.3555 7.24356 44.9737 7.08591C44.592 6.92826 44.2656 6.66084 44.0359 6.31753C43.8062 5.97422 43.6836 5.57047 43.6836 5.15743C43.6824 4.88386 43.7353 4.61275 43.8392 4.35966C43.943 4.10657 44.0959 3.87649 44.2889 3.68263C44.4819 3.48876 44.7113 3.33493 44.964 3.22997C45.2166 3.125 45.4875 3.07097 45.7611 3.07098ZM6.12751 7.23485C5.71446 7.23485 5.31071 7.11224 4.96741 6.88258C4.6241 6.65291 4.35668 6.32652 4.19903 5.94475C4.04138 5.56297 4.00059 5.14299 4.08183 4.73802C4.16308 4.33304 4.36269 3.96129 4.65539 3.66985C4.94809 3.37842 5.3207 3.18042 5.72603 3.10094C6.13135 3.02146 6.55115 3.06407 6.93224 3.22337C7.31333 3.38268 7.63856 3.65151 7.86673 3.99581C8.0949 4.34011 8.21575 4.74439 8.21397 5.15743C8.21397 5.431 8.15993 5.70188 8.05497 5.95452C7.95 6.20715 7.79617 6.43656 7.60231 6.62959C7.40844 6.82261 7.17837 6.97544 6.92528 7.07931C6.67219 7.18318 6.40108 7.23604 6.12751 7.23485ZM6.12751 25.1007C5.71485 25.1007 5.31146 24.9783 4.96834 24.749C4.62523 24.5198 4.3578 24.1939 4.19988 23.8127C4.04196 23.4314 4.00065 23.0119 4.08115 22.6072C4.16166 22.2024 4.36037 21.8307 4.65217 21.5389C4.94396 21.2471 5.31574 21.0483 5.72047 20.9678C6.1252 20.8873 6.54471 20.9287 6.92596 21.0866C7.30721 21.2445 7.63307 21.5119 7.86234 21.855C8.0916 22.1981 8.21397 22.6015 8.21397 23.0142C8.21516 23.2885 8.162 23.5604 8.05757 23.8141C7.95314 24.0677 7.7995 24.2982 7.60552 24.4922C7.41154 24.6862 7.18106 24.8398 6.92738 24.9443C6.6737 25.0487 6.40184 25.1019 6.12751 25.1007ZM10.2191 43.1652C9.80608 43.1652 9.40233 43.0426 9.05902 42.8129C8.71571 42.5832 8.44829 42.2568 8.29064 41.8751C8.13299 41.4933 8.09221 41.0733 8.17345 40.6683C8.25469 40.2634 8.4543 39.8916 8.747 39.6002C9.0397 39.3087 9.41232 39.1107 9.81764 39.0313C10.223 38.9518 10.6428 38.9944 11.0239 39.1537C11.4049 39.313 11.7302 39.5818 11.9583 39.9261C12.1865 40.2704 12.3074 40.6747 12.3056 41.0877C12.2985 41.6364 12.0755 42.1602 11.685 42.5456C11.2945 42.9311 10.7678 43.1472 10.2191 43.1471V43.1652ZM25.9443 52.6129C25.5316 52.6129 25.1282 52.4905 24.7851 52.2613C24.442 52.032 24.1746 51.7062 24.0167 51.3249C23.8587 50.9437 23.8174 50.5241 23.8979 50.1194C23.9784 49.7147 24.1771 49.3429 24.4689 49.0511C24.7607 48.7593 25.1325 48.5606 25.5372 48.4801C25.942 48.3996 26.3615 48.4409 26.7427 48.5988C27.124 48.7567 27.4498 49.0242 27.6791 49.3673C27.9084 49.7104 28.0307 50.1138 28.0307 50.5265C28.026 51.0767 27.8041 51.6028 27.4133 51.9901C27.0225 52.3775 26.4945 52.5949 25.9443 52.5948V52.6129ZM43.7649 41.0877C43.7649 41.5004 43.6426 41.9038 43.4133 42.2469C43.184 42.59 42.8582 42.8575 42.4769 43.0154C42.0957 43.1733 41.6762 43.2146 41.2714 43.1341C40.8667 43.0536 40.4949 42.8549 40.2031 42.5631C39.9113 42.2713 39.7126 41.8995 39.6321 41.4948C39.5516 41.0901 39.5929 40.6706 39.7508 40.2893C39.9088 39.9081 40.1762 39.5822 40.5193 39.3529C40.8624 39.1237 41.2658 39.0013 41.6785 39.0013C42.2287 39.0013 42.7567 39.2186 43.1475 39.606C43.5382 39.9934 43.7602 40.5195 43.7649 41.0697V41.0877ZM20.9224 3.61291H30.9662V13.6568H20.9224V3.61291ZM45.7611 25.1007C45.3484 25.1007 44.945 24.9783 44.6019 24.749C44.2588 24.5198 43.9913 24.1939 43.8334 23.8127C43.6755 23.4314 43.6342 23.0119 43.7147 22.6072C43.7952 22.2024 43.9939 21.8307 44.2857 21.5389C44.5775 21.2471 44.9493 21.0483 45.354 20.9678C45.7587 20.8873 46.1783 20.9287 46.5595 21.0866C46.9408 21.2445 47.2666 21.5119 47.4959 21.855C47.7251 22.1981 47.8475 22.6015 47.8475 23.0142C47.8487 23.2885 47.7956 23.5604 47.6911 23.8141C47.5867 24.0677 47.433 24.2982 47.2391 24.4922C47.0451 24.6862 46.8146 24.8398 46.5609 24.9443C46.3073 25.0487 46.0354 25.1019 45.7611 25.1007Z" fill="#4F51A9"/>
</svg>
