<svg viewBox="0 0 31 26" fill="none" xmlns="http://www.w3.org/2000/svg"><path d="M30.5242 3.58293C29.4108 4.07626 28.2148 4.4096 26.9575 4.56027C28.2548 3.78399 29.2254 2.56222 29.6882 1.12293C28.4693 1.84692 27.1353 2.35653 25.7442 2.6296C24.8087 1.63075 23.5696 0.9687 22.2193 0.746231C20.869 0.523761 19.483 0.753321 18.2765 1.39927C17.07 2.04522 16.1105 3.07141 15.5471 4.31854C14.9836 5.56566 14.8476 6.96393 15.1602 8.29626C12.6904 8.17226 10.2743 7.53033 8.06874 6.41214C5.86314 5.29395 3.9173 3.72448 2.35751 1.8056C1.82418 2.7256 1.51751 3.79227 1.51751 4.92827C1.51692 5.95092 1.76876 6.95792 2.25068 7.85991C2.73261 8.76189 3.42973 9.53098 4.28018 10.0989C3.29388 10.0675 2.32934 9.80104 1.46685 9.3216V9.4016C1.46675 10.8359 1.96289 12.2261 2.87109 13.3363C3.77929 14.4464 5.04361 15.2082 6.44951 15.4923C5.53456 15.7399 4.5753 15.7764 3.64418 15.5989C4.04084 16.8331 4.81351 17.9123 5.854 18.6855C6.8945 19.4587 8.15073 19.8872 9.44685 19.9109C7.24662 21.6381 4.52936 22.575 1.73218 22.5709C1.23669 22.5711 0.741613 22.5421 0.249512 22.4843C3.08881 24.3098 6.39397 25.2787 9.76951 25.2749C21.1962 25.2749 27.4428 15.8109 27.4428 7.60293C27.4428 7.33626 27.4362 7.06693 27.4242 6.80026C28.6392 5.92156 29.6881 4.83346 30.5215 3.58693L30.5242 3.58293Z" fill="currentColor"/></svg>