<svg width="83" height="83" viewBox="0 0 83 83" fill="none" xmlns="http://www.w3.org/2000/svg">
<mask id="mask0_1045_1061" style="mask-type:alpha" maskUnits="userSpaceOnUse" x="0" y="0" width="83" height="83">
<circle cx="41.1264" cy="41.1264" r="41.1264" fill="#D9D9D9"/>
</mask>
<g mask="url(#mask0_1045_1061)">
<path d="M84.8244 -0.000244141H-11.9956V82.2551H84.8244V-0.000244141Z" fill="#A5E8DD"/>
<path d="M52.0376 75.1414C52.0376 75.1414 57.7622 72.819 62.1117 64.9395C66.4517 57.0781 74.3567 56.5557 82.6393 58.1333C82.6393 58.1333 78.2993 59.0796 76.892 62.5906C75.181 66.8559 76.1879 78.6609 67.1814 80.6208C56.9 82.859 52.0376 75.1414 52.0376 75.1414Z" fill="#7173B0"/>
<path d="M68.4834 58.845C67.1562 59.4481 65.9404 60.271 64.8872 61.279C71.8468 65.2538 71.6358 76.9774 69.1459 79.9764C72.0938 78.6335 73.6496 75.9818 74.5875 73.0783C75.0294 63.979 70.1055 59.9267 68.4834 58.845Z" fill="#7173B0"/>
<path d="M75.4738 57.4204C74.4301 57.4327 73.3888 57.5225 72.3584 57.6892C73.6966 58.4671 75.8429 60.1497 76.6663 63.2415C76.7363 63.0087 76.8101 62.791 76.8915 62.5904C77.224 61.7768 77.7245 61.0425 78.3603 60.4355C77.9316 58.2958 76.195 57.6135 75.4738 57.4204Z" fill="#7173B0"/>
<path d="M61.1032 66.6345C60.4544 67.6499 59.7409 68.6226 58.9673 69.5465C61.7988 74.4203 59.554 79.2941 59.0241 80.3124C60.0255 80.6434 61.0611 80.8606 62.1111 80.9597C66.1852 74.3891 61.7714 67.6774 61.1032 66.6345Z" fill="#7173B0"/>
<path d="M58.968 69.5464C58.6056 69.9779 58.2441 70.3801 57.8882 70.7549C57.5532 71.1874 55.8365 73.0262 55.3491 73.4577L56.5217 79.1908C57.3178 79.6468 58.1572 80.0225 59.0276 80.3123C59.5548 79.2959 61.7996 74.4202 58.968 69.5464Z" fill="#4F529F"/>
<path d="M64.8852 61.2786C63.7795 62.3503 62.8441 63.5848 62.1114 64.9391C61.7821 65.5353 61.4461 66.1003 61.1035 66.6341C61.7717 67.6751 66.1855 74.3886 62.1114 80.9592C63.8086 81.1107 65.5191 80.9964 67.1811 80.6204C67.8561 80.4762 68.5138 80.2601 69.1429 79.9759C71.6337 76.9769 71.8448 65.2561 64.8852 61.2786Z" fill="#4F529F"/>
<path d="M72.3586 57.6892C71.02 57.9016 69.7153 58.2901 68.4785 58.8447C70.1006 59.9264 75.0245 63.9788 74.5797 73.0781C75.7258 69.533 75.9501 65.6122 76.6618 63.2415C75.8431 60.1498 73.6968 58.4671 72.3586 57.6892Z" fill="#4F529F"/>
<path d="M75.4746 57.4205C76.1957 57.6097 77.9352 58.2987 78.361 60.4356C80.1809 58.6744 82.6414 58.1331 82.6414 58.1331C80.1904 57.6665 77.7752 57.3835 75.4746 57.4205Z" fill="#4F529F"/>
<path d="M46.5715 51.3174C46.5715 51.3174 38.6419 52.2761 36.0034 52.2761C33.365 52.2761 25.4666 51.3174 25.4666 51.3174C25.4666 51.3174 4.3115 63.6533 15.613 74.8251L15.3972 78.7251C15.3745 80.0425 16.3739 81.1242 17.6146 81.1242H27.8685C28.4196 81.1204 28.9497 80.9115 29.3551 80.5381C29.7605 80.1647 30.0123 79.6536 30.0612 79.1046C30.4814 74.1655 36.0233 74.4049 36.0233 74.4049C36.0233 74.4049 41.5614 74.1655 41.9807 79.1046C42.0298 79.6535 42.2816 80.1645 42.687 80.5379C43.0924 80.9112 43.6223 81.1202 44.1734 81.1242H54.4245C55.6652 81.1242 56.6645 80.0425 56.6418 78.7251L56.427 74.8251C67.7285 63.658 46.5734 51.3174 46.5734 51.3174" fill="#7173B0"/>
<path d="M43.5193 64.882L27.4663 80.9351L27.6503 81.1191L43.7034 65.0661L43.5193 64.882Z" fill="#EC6463"/>
<path d="M44.2939 58.2104C43.8344 58.1089 43.3552 58.1451 42.9161 58.3143C42.477 58.4835 42.0975 58.7784 41.8249 59.162C41.5523 59.5456 41.3988 60.001 41.3835 60.4713C41.3682 60.9416 41.4917 61.406 41.7387 61.8066L29.7852 73.7564L30.6482 74.6194L42.6198 62.6489C42.9208 62.8162 43.2543 62.9168 43.5977 62.9436C43.9411 62.9705 44.2862 62.923 44.6096 62.8045C44.9329 62.686 45.227 62.4992 45.4717 62.2568C45.7164 62.0144 45.9059 61.7222 46.0275 61.3999C46.1491 61.0777 46.1998 60.733 46.1762 60.3894C46.1526 60.0458 46.0552 59.7113 45.8907 59.4088C45.7262 59.1062 45.4984 58.8426 45.2228 58.636C44.9473 58.4293 44.6305 58.2845 44.2939 58.2113V58.2104ZM44.9318 60.8034C44.8824 61.0309 44.7666 61.2387 44.5992 61.4004C44.4317 61.5621 44.2201 61.6705 43.991 61.712C43.762 61.7535 43.5258 61.7261 43.3122 61.6334C43.0987 61.5406 42.9175 61.3866 42.7915 61.1909C42.6654 60.9952 42.6003 60.7665 42.6042 60.5338C42.6081 60.301 42.6809 60.0746 42.8135 59.8833C42.946 59.6919 43.1323 59.5441 43.3488 59.4586C43.5653 59.3731 43.8023 59.3537 44.0299 59.4028C44.1812 59.4354 44.3245 59.4974 44.4518 59.5855C44.579 59.6736 44.6877 59.7859 44.7715 59.916C44.8552 60.0461 44.9125 60.1914 44.94 60.3437C44.9675 60.496 44.9647 60.6522 44.9318 60.8034Z" fill="white"/>
<path d="M35.2413 61.9392C30.5795 61.9392 27.7139 65.4039 27.7139 69.7231C27.7139 71.9082 28.5164 73.906 29.9634 75.3066L31.9772 73.2918C31.2041 72.424 30.7716 71.1899 30.7716 69.7259C30.7716 66.7922 32.5034 64.6155 35.2413 64.6155C37.9999 64.6155 39.711 66.7922 39.711 69.7259C39.711 72.6597 37.9999 74.6678 35.2413 74.6678C34.7916 74.6697 34.3438 74.6092 33.9107 74.488L31.8145 76.5795C32.8875 77.0777 34.0583 77.3299 35.2413 77.3177C39.9031 77.3177 42.7904 73.853 42.7904 69.725C42.7904 65.4039 39.9031 61.9392 35.2413 61.9392Z" fill="white"/>
<path d="M31.9777 73.2891L29.9639 75.3039C30.259 75.5886 30.5792 75.8461 30.9206 76.0733L32.9269 74.067C32.572 73.8586 32.2517 73.5962 31.9777 73.2891Z" fill="#EC6463"/>
<path d="M25.4807 54.6753C21.2846 60.5494 16.8366 67.5894 15.613 74.8253C15.5694 74.7818 15.471 74.6853 15.3783 74.5887C15.2657 74.4723 15.1597 74.3588 15.1597 74.3588C16.3549 67.3169 21.3716 59.9049 25.4807 54.6753Z" fill="#221F1D"/>
<path d="M46.5562 54.6753C50.7486 60.5494 55.1965 67.5894 56.4268 74.8253C56.4703 74.7818 56.5687 74.6853 56.6615 74.5887C56.7741 74.4723 56.8801 74.3588 56.8801 74.3588C55.6829 67.3169 50.6662 59.9049 46.5562 54.6753Z" fill="#221F1D"/>
<path d="M59.8661 29.6211C72.4074 11.7347 66.4859 5.81616 66.4859 5.81616C57.0809 2.94394 47.0229 11.8038 47.0229 11.8038C47.0229 11.8038 56.3466 17.4565 59.8661 29.6211Z" fill="#4F529F"/>
<path d="M59.8669 29.6211C72.4081 11.7347 66.4867 5.81617 66.4867 5.81617C63.464 5.45182 58.6234 8.36189 56.3871 9.91961C54.8483 10.9909 50.4307 14.4792 50.4307 14.4792C53.4609 17.2596 57.7319 22.2394 59.8669 29.6211Z" fill="#EC6463"/>
<path d="M12.1455 29.6207C-0.395718 11.7259 5.52097 5.81201 5.52097 5.81201C14.926 2.93979 24.984 11.7997 24.984 11.7997C24.984 11.7997 15.6651 17.4561 12.1455 29.6207Z" fill="#4F529F"/>
<path d="M12.1455 29.6207C-0.395718 11.7259 5.52097 5.81202 5.52097 5.81202C8.54367 5.44766 13.3843 8.35774 15.6206 9.91546C17.1641 10.9905 21.5818 14.4788 21.5818 14.4788C18.5515 17.2593 14.2805 22.2391 12.1455 29.6207Z" fill="#EC6463"/>
<path d="M59.866 29.6208C54.1556 7.86949 36.0336 8.94834 36.0336 8.94834C36.0336 8.94834 17.9097 7.85434 12.2031 29.6113C12.1218 29.9227 12.2031 30.1659 12.2325 30.5918L35.9144 36.8605V36.9078L36.0355 36.9012L59.8338 30.605C59.865 30.1791 59.9474 29.9359 59.866 29.6208Z" fill="#7173B0"/>
<path d="M69.1834 41.8046C68.1244 41.5046 65.1556 40.2261 65.8578 39.5239C66.8733 38.5075 67.9701 37.3472 67.9701 37.3472C65.9212 37.0974 59.8333 31.8697 59.8333 30.6053C56.6535 25.8517 44.0734 16.088 37.9249 36.0299C37.9249 36.0299 36.757 35.6125 35.9999 35.5946C35.2428 35.6125 34.0779 36.0289 34.0779 36.0289C27.9265 16.0909 15.3493 25.8508 12.1666 30.6044C12.1666 31.8687 6.08244 37.0955 4.03261 37.3453C4.03261 37.3453 5.12945 38.5065 6.14585 39.522C6.84805 40.2242 3.87457 41.5037 2.82031 41.8027C2.82031 41.8027 7.75467 51.5891 36.0028 52.4465C64.2481 51.5901 69.1834 41.8046 69.1834 41.8046Z" fill="#AEADD5"/>
<path d="M31.8591 38.356C28.297 19.5469 15.9923 26.9419 13.7296 31.7541C12.2154 34.9812 12.6214 36.5049 9.51067 39.1907C8.09112 40.421 7.44948 43.9443 13.4173 45.6146C18.6393 47.0749 23.8708 47.6465 27.9468 44.4326C29.5415 43.1758 32.1809 40.0557 31.8591 38.356Z" fill="#4F529F"/>
<path d="M22.533 44.9154C25.1479 44.9154 27.2677 42.7956 27.2677 40.1807C27.2677 37.5658 25.1479 35.446 22.533 35.446C19.9181 35.446 17.7983 37.5658 17.7983 40.1807C17.7983 42.7956 19.9181 44.9154 22.533 44.9154Z" fill="#221F1D"/>
<path d="M24.0037 39.9564C24.945 39.9564 25.7081 39.1933 25.7081 38.252C25.7081 37.3107 24.945 36.5476 24.0037 36.5476C23.0624 36.5476 22.2993 37.3107 22.2993 38.252C22.2993 39.1933 23.0624 39.9564 24.0037 39.9564Z" fill="white"/>
<path d="M20.824 40.7893C21.2426 40.7893 21.582 40.4499 21.582 40.0312C21.582 39.6126 21.2426 39.2732 20.824 39.2732C20.4053 39.2732 20.0659 39.6126 20.0659 40.0312C20.0659 40.4499 20.4053 40.7893 20.824 40.7893Z" fill="white"/>
<path d="M40.1496 38.3557C43.7108 19.5467 56.0164 26.9416 58.2792 31.7539C59.7934 34.981 59.3874 36.5046 62.4981 39.1904C63.9176 40.4207 64.5593 43.944 58.5915 45.6144C53.3685 47.0746 48.1379 47.6462 44.0619 44.4324C42.4663 43.1756 39.8269 40.0554 40.1496 38.3557Z" fill="#4F529F"/>
<path d="M49.4754 44.9154C52.0903 44.9154 54.2101 42.7956 54.2101 40.1807C54.2101 37.5658 52.0903 35.446 49.4754 35.446C46.8605 35.446 44.7407 37.5658 44.7407 40.1807C44.7407 42.7956 46.8605 44.9154 49.4754 44.9154Z" fill="#221F1D"/>
<path d="M48.0047 39.9564C48.946 39.9564 49.7091 39.1933 49.7091 38.252C49.7091 37.3107 48.946 36.5476 48.0047 36.5476C47.0634 36.5476 46.3003 37.3107 46.3003 38.252C46.3003 39.1933 47.0634 39.9564 48.0047 39.9564Z" fill="white"/>
<path d="M51.1833 40.7893C51.602 40.7893 51.9414 40.4499 51.9414 40.0312C51.9414 39.6126 51.602 39.2732 51.1833 39.2732C50.7647 39.2732 50.4253 39.6126 50.4253 40.0312C50.4253 40.4499 50.7647 40.7893 51.1833 40.7893Z" fill="white"/>
<path d="M39.4173 45.1575C39.3779 45.1574 39.3388 45.1651 39.3023 45.1801C39.2659 45.1951 39.2328 45.2172 39.2049 45.2451C39.177 45.273 39.1549 45.3061 39.1399 45.3426C39.1248 45.379 39.1172 45.4181 39.1173 45.4575C39.1229 45.8313 38.9799 46.1919 38.7196 46.4602C38.4594 46.7284 38.1032 46.8823 37.7294 46.888C37.3557 46.8936 36.9951 46.7506 36.7268 46.4903C36.4585 46.23 36.3047 45.8738 36.299 45.5001V43.0178L37.8539 41.161C37.9485 40.985 37.8037 40.7825 37.5832 40.7825H34.4261C34.2056 40.7825 34.0599 40.9869 34.1555 41.161L35.7104 43.0178V45.5323C35.7005 45.9056 35.5426 46.2598 35.2716 46.5167C35.0006 46.7737 34.6386 46.9125 34.2653 46.9026C33.8919 46.8927 33.5378 46.7349 33.2808 46.4639C33.0238 46.1929 32.885 45.8309 32.8949 45.4575C32.8949 45.378 32.8633 45.3017 32.8071 45.2454C32.7508 45.1891 32.6745 45.1575 32.5949 45.1575C32.5154 45.1575 32.4391 45.1891 32.3828 45.2454C32.3265 45.3017 32.2949 45.378 32.2949 45.4575C32.2936 45.8939 32.4346 46.3188 32.6965 46.6678C32.9584 47.0168 33.3269 47.2709 33.7463 47.3916C34.1656 47.5123 34.6129 47.493 35.0202 47.3366C35.4276 47.1802 35.7729 46.8953 36.0037 46.525H36.0085C36.2393 46.8953 36.5846 47.1802 36.992 47.3366C37.3994 47.493 37.8466 47.5123 38.2659 47.3916C38.6853 47.2709 39.0538 47.0168 39.3157 46.6678C39.5776 46.3188 39.7186 45.8939 39.7173 45.4575C39.7173 45.4181 39.7095 45.3791 39.6945 45.3427C39.6794 45.3063 39.6573 45.2733 39.6294 45.2454C39.6016 45.2175 39.5685 45.1954 39.5321 45.1804C39.4957 45.1653 39.4567 45.1575 39.4173 45.1575Z" fill="#221F1D"/>
<path d="M38.0429 29.2661C38.0429 29.2661 36.684 29.039 36.0035 29.039C35.3231 29.039 33.9641 29.2661 33.9641 29.2661C19.6352 24.0952 7.35605 27.5286 6.1835 27.8787C6.15641 27.886 6.13246 27.902 6.11536 27.9242C6.09826 27.9465 6.08895 27.9737 6.08887 28.0018V32.0967C6.08891 32.1283 6.10061 32.1589 6.12173 32.1824C6.14285 32.206 6.17192 32.221 6.20338 32.2245C8.3469 32.4885 8.12829 33.9118 8.12829 33.9118C8.12829 35.9513 9.14753 39.4632 9.14753 39.4632C9.14753 39.4632 11.0743 47.054 17.8721 47.6209C17.8721 47.6209 27.0518 48.8673 31.1278 42.4093C33.2099 39.1131 34.1874 34.7049 34.6408 33.9109C35.0941 33.1169 36.0035 33.1226 36.0035 33.1226C36.0035 33.1226 36.9101 33.1226 37.3635 33.9156C37.8168 34.7087 38.7944 39.1206 40.8754 42.414C44.9543 48.872 54.1321 47.6256 54.1321 47.6256C60.9299 47.0578 62.8557 39.4679 62.8557 39.4679C62.8557 39.4679 63.8759 35.955 63.8759 33.9156C63.8759 33.9156 63.6573 32.4961 65.7999 32.2292C65.8314 32.2257 65.8606 32.2108 65.8819 32.1872C65.9032 32.1637 65.9151 32.1332 65.9153 32.1014V28.0018C65.9153 27.9737 65.906 27.9465 65.8888 27.9242C65.8717 27.902 65.8478 27.886 65.8207 27.8787C64.652 27.5286 52.3719 24.0952 38.0429 29.2661ZM27.6197 43.9954C23.2011 47.054 18.2156 46.6007 15.7229 45.6988C12.8563 44.6522 9.48727 40.5989 10.5112 31.9869C10.5112 31.9869 11.0791 28.5885 18.5554 28.7011C26.0317 28.8138 30.5203 29.691 31.6985 32.4402C32.378 34.0244 31.7023 41.1667 27.6197 43.9954ZM56.2851 45.6988C53.7924 46.6045 48.8088 47.0578 44.3883 43.9954C40.3048 41.1667 39.6291 34.0244 40.3095 32.4383C41.4877 29.6939 45.9744 28.8128 53.4526 28.6992C60.9308 28.5857 61.4968 31.985 61.4968 31.985C62.516 40.5989 59.1517 44.6522 56.2851 45.695V45.6988Z" fill="#221F1D"/>
<path d="M62.3437 44.9763H59.6939L28.4912 78.7257H62.1582C62.2163 78.7257 62.2723 78.7043 62.3154 78.6655C62.3586 78.6267 62.3859 78.5733 62.392 78.5156L65.8519 48.8782C65.9043 48.3861 65.8526 47.8885 65.7002 47.4178C65.5478 46.947 65.2981 46.5135 64.9672 46.1455C64.6364 45.7776 64.2318 45.4833 63.7798 45.2819C63.3279 45.0804 62.8385 44.9763 62.3437 44.9763Z" fill="#999999"/>
<path d="M11.3967 44.9763C10.9019 44.9763 10.4125 45.0804 9.96055 45.2819C9.50857 45.4833 9.10401 45.7776 8.77316 46.1455C8.4423 46.5135 8.19256 46.947 8.04016 47.4178C7.88775 47.8885 7.83608 48.3861 7.88851 48.8782L11.3475 78.5156C11.3536 78.5733 11.3808 78.6267 11.424 78.6655C11.4672 78.7043 11.5232 78.7257 11.5812 78.7257H17.462L48.6665 44.9763H11.3967Z" fill="#999999"/>
<path d="M48.666 44.9763L17.4614 78.7257H28.4904L59.6949 44.9763H48.666Z" fill="#ADADAD"/>
<path d="M43.5892 59.5009L27.48 75.6101L27.6647 75.7948L43.7739 59.6856L43.5892 59.5009Z" fill="#EC6463"/>
<path d="M44.3675 52.8069C43.907 52.706 43.427 52.7427 42.9872 52.9125C42.5474 53.0823 42.1672 53.3777 41.894 53.7618C41.6208 54.146 41.4666 54.602 41.4505 55.0732C41.4345 55.5443 41.5573 56.0098 41.8038 56.4117L29.8076 68.4069L30.6735 69.2728L42.6924 57.2596C42.9947 57.4286 43.3299 57.5304 43.6751 57.5579C44.0203 57.5854 44.3674 57.5381 44.6926 57.4192C45.0178 57.3002 45.3136 57.1125 45.5596 56.8687C45.8056 56.625 45.9961 56.331 46.118 56.0069C46.2399 55.6828 46.2905 55.3361 46.2661 54.9907C46.2417 54.6452 46.1431 54.3091 45.9769 54.0053C45.8107 53.7015 45.5809 53.4371 45.3031 53.2303C45.0253 53.0235 44.7062 52.8791 44.3675 52.8069ZM45.0072 55.4095C44.9573 55.6377 44.8407 55.8459 44.6724 56.0079C44.5041 56.1699 44.2915 56.2783 44.0616 56.3194C43.8316 56.3606 43.5946 56.3326 43.3806 56.2391C43.1665 56.1456 42.985 55.9907 42.859 55.794C42.733 55.5973 42.6681 55.3676 42.6726 55.1341C42.6771 54.9005 42.7508 54.6735 42.8843 54.4818C43.0178 54.2901 43.2052 54.1424 43.4227 54.0572C43.6402 53.9719 43.8781 53.9532 44.1063 54.0032C44.2577 54.0362 44.4012 54.0988 44.5284 54.1874C44.6557 54.2759 44.7642 54.3887 44.8479 54.5192C44.9316 54.6497 44.9887 54.7954 45.016 54.948C45.0434 55.1006 45.0404 55.2571 45.0072 55.4085V55.4095Z" fill="white"/>
<path d="M35.2834 56.5479C30.6055 56.5479 27.7295 60.0239 27.7295 64.3592C27.7295 66.5509 28.5348 68.5563 29.9875 69.9598L32.0109 67.9374C31.2339 67.0658 30.8005 65.8279 30.8005 64.3592C30.8005 61.4197 32.5389 59.2299 35.2853 59.2299C38.0544 59.2299 39.7711 61.4197 39.7711 64.3592C39.7711 67.2986 38.0544 69.3172 35.2853 69.3172C34.834 69.3188 34.3846 69.2579 33.95 69.1364L31.8471 71.2393C32.9238 71.7388 34.0985 71.9914 35.2853 71.9784C39.9641 71.9784 42.861 68.5014 42.861 64.3592C42.8591 60.0239 39.9603 56.5479 35.2834 56.5479Z" fill="white"/>
<path d="M32.0107 67.9375L29.9893 69.9599C30.2856 70.2453 30.6067 70.5037 30.9489 70.7321L32.9571 68.7173C32.6028 68.5084 32.2835 68.2453 32.0107 67.9375Z" fill="#EC6463"/>
<path d="M84.8244 78.7261H-11.9956V82.2551H84.8244V78.7261Z" fill="#CCCCCC"/>
<path d="M-0.92895 47.9993H-5.59549C-6.5693 51.0598 -8.29736 55.0506 -8.29736 57.8604V78.2735C-8.29736 78.4241 -8.23754 78.5686 -8.13105 78.6751C-8.02457 78.7815 -7.88014 78.8414 -7.72954 78.8414H1.08776C1.23594 78.8416 1.37822 78.7833 1.48353 78.679C1.58884 78.5748 1.64865 78.4331 1.6499 78.2849L1.77387 64.784V57.8604C1.77387 55.0506 0.044862 51.0598 -0.92895 47.9993Z" fill="#E7AA42"/>
<path d="M-6.41147 75.64H-0.120964C0.545438 75.6417 1.18779 75.3911 1.67713 74.9388L1.77177 64.7843V63.0165C1.52515 62.7647 1.23063 62.5648 0.905572 62.4286C0.580511 62.2924 0.231478 62.2226 -0.120964 62.2234H-6.41147C-6.7639 62.2227 -7.11292 62.2925 -7.43797 62.4287C-7.76302 62.5649 -8.05755 62.7647 -8.3042 63.0165V74.846C-8.05772 75.0981 -7.76325 75.2982 -7.43817 75.4346C-7.11309 75.5709 -6.76399 75.6408 -6.41147 75.64Z" fill="#F6F1E1"/>
<path d="M-3.24605 51.3872C-1.47161 51.3872 0.591467 52.3553 0.591467 52.3553C0.965774 53.4299 1.27299 54.5266 1.51134 55.6392C-1.55837 56.8189 -4.95342 56.8357 -8.03467 55.6866C-7.78589 54.5725 -7.47468 53.4733 -7.1025 52.3941C-7.1025 52.3941 -5.11891 51.3872 -3.24605 51.3872Z" fill="#F6F1E1"/>
<path opacity="0.1" d="M-0.929574 47.9995H-2.60938C-1.63651 51.0601 0.0925031 55.2165 0.0925031 58.031V64.789C0.0925031 64.789 -0.239672 75.3524 -0.295508 77.8489C-0.315382 78.7375 -0.922949 78.8416 -0.922949 78.8416H1.0824C1.23202 78.8416 1.37559 78.7826 1.48192 78.6773C1.58824 78.572 1.64873 78.4291 1.65022 78.2795L1.77704 64.7843V58.0707C1.79029 54.8588 0.0442381 51.0601 -0.929574 47.9995Z" fill="black"/>
<path d="M-0.462891 73.6922V71.6274H0.783249V71.8492H-0.212856V72.5469H0.718724V72.7687H-0.212856V73.4704H0.799381V73.6922H-0.462891Z" fill="#21558C"/>
</g>
</svg>
