<svg width="220" height="195" viewBox="0 0 220 195" fill="none" xmlns="http://www.w3.org/2000/svg">
<path fill-rule="evenodd" clip-rule="evenodd" d="M53.2803 154.909H64.9859V159.76H47.6294V136.518H53.2803V154.909ZM24.3192 159.76H41.9785V154.909H29.9702V150.665H40.3639V145.916H29.9702V141.369H41.9785V136.518H24.2183V159.76H24.3192ZM69.8295 159.76H87.4887V154.909H75.4805V150.665H85.9751V145.916H75.4805V141.369H87.4887V136.518H69.8295V159.76ZM16.3474 138.539C17.1682 139.317 17.8168 140.258 18.2514 141.303C18.6859 142.347 18.8967 143.471 18.8701 144.602C18.8701 146.219 18.1637 147.937 16.8519 150.16L10.7973 159.76H4.33912L8.77914 152.888H8.88006H8.67823C3.63275 152.484 0 149.149 0 144.703C0 139.651 4.03639 136.114 9.48552 136.114C12.1092 136.114 14.531 136.922 16.2465 138.539H16.3474ZM13.6228 144.4C13.6228 142.177 11.7055 140.459 9.48552 140.459C7.16459 140.459 5.34822 142.177 5.34822 144.4C5.34822 146.623 7.16459 148.341 9.38461 148.341C11.8064 148.341 13.6228 146.623 13.6228 144.4ZM105.854 149.149L97.3779 136.518H93.2406V159.76H98.8915V147.634L104.341 156.122H107.368L112.817 147.836V159.659H118.468V136.417H114.23L105.854 149.048V149.149ZM174.574 141.47H182.142V159.659H187.793V141.47H195.361V136.417H174.574V141.47ZM211.709 146.118L208.379 145.31C206.764 144.905 205.654 144.4 205.654 142.985C205.654 142.278 205.957 141.571 206.663 141.167C207.168 140.762 208.076 140.56 209.085 140.56C211.305 140.56 212.617 141.571 213.02 143.491H218.772C218.57 141.571 217.259 135.811 208.681 135.811C206.058 135.811 203.737 136.518 202.122 137.832C201.284 138.491 200.61 139.336 200.155 140.301C199.7 141.265 199.475 142.323 199.499 143.39C199.499 147.027 201.618 149.251 206.259 150.16L210.094 150.968C211.91 151.373 212.718 151.979 212.718 153.09C212.718 154.505 211.507 155.313 209.287 155.313C206.562 155.313 204.645 154.101 204.241 151.979H198.792C198.902 153.187 199.275 154.356 199.885 155.403C200.496 156.451 201.328 157.352 202.324 158.042C204.413 159.432 206.881 160.138 209.388 160.063C215.24 160.063 219.075 157.031 219.075 152.484C218.974 149.048 216.855 147.128 211.91 146.118H211.709ZM124.825 159.659H142.485V154.808H130.476V150.564H140.971V145.815H130.476V141.268H142.485V136.417H124.825V159.659ZM164.18 149.756L152.576 136.417H148.337V159.659H154.089V146.623L165.492 159.76H169.831V136.518H164.18V149.756ZM52.1703 185.831H55.1976C54.8949 188.963 52.4731 191.085 49.143 191.085C48.2878 191.127 47.4331 190.992 46.6318 190.69C45.8306 190.387 45.0999 189.923 44.4851 189.326C43.8702 188.729 43.3842 188.013 43.0572 187.22C42.7302 186.428 42.5691 185.576 42.5839 184.719C42.5839 180.98 45.4094 178.353 49.0421 178.353C52.4731 178.353 54.8949 180.475 55.2985 183.607H52.0694C51.7667 182.092 50.6567 181.081 49.0421 181.081C47.0239 181.081 45.7121 182.597 45.7121 184.618C45.7121 186.639 47.1248 188.155 49.0421 188.155C50.6567 188.256 51.7667 187.346 52.0694 185.831H52.1703ZM61.7567 194.925H58.7295L60.344 190.984L56.2067 182.193H59.234L61.7567 187.548L63.9768 182.193H67.0041L61.7567 194.925ZM78.205 186.538C78.205 189.165 76.1868 191.085 73.8659 191.085C72.8568 191.085 72.1505 190.883 71.4441 190.479V190.883H68.4168V178.151H71.4441V182.698C72.1279 182.277 72.9128 182.05 73.7152 182.041C74.5177 182.031 75.3077 182.24 76.0013 182.644C76.6948 183.048 77.266 183.633 77.654 184.337C78.0421 185.04 78.2325 185.836 78.205 186.639V186.538ZM75.2787 186.538C75.2787 185.325 74.4714 184.416 73.2605 184.416C72.655 184.416 71.9486 184.618 71.4441 185.224V187.953C71.9486 188.559 72.655 188.761 73.2605 188.761C74.4714 188.761 75.2787 187.75 75.2787 186.538ZM88.3969 187.245H82.2414C82.4432 188.155 82.9478 188.761 84.2596 188.761C84.8651 188.761 85.2687 188.559 85.5714 188.155H88.4978C87.9933 189.974 86.3787 191.186 84.1587 191.186C81.2323 191.186 79.315 189.165 79.315 186.538C79.315 183.911 81.2323 181.991 83.9569 181.991C86.4796 181.991 88.4978 183.708 88.4978 186.437V187.245H88.3969ZM82.2414 185.628H85.6723C85.4705 184.618 84.8651 184.113 84.0578 184.113C83.0487 184.113 82.4432 184.719 82.2414 185.628ZM95.8642 184.719C94.4515 184.82 93.6442 185.224 92.8369 185.831V190.883H89.9106V182.092H92.9379V183.102C93.6442 182.395 94.6533 181.991 95.9651 181.991V184.719H95.8642ZM112.01 182.496H108.982C108.68 181.485 108.175 180.778 106.863 180.778C105.753 180.778 105.047 181.283 105.047 182.092C105.047 182.799 105.552 183.102 106.561 183.304L108.276 183.708C110.496 184.214 112.01 185.123 112.01 187.144C112.01 189.569 109.992 191.186 106.964 191.186C104.139 191.186 101.616 189.771 101.414 186.841H104.442C104.643 187.852 105.552 188.559 107.065 188.559C108.074 188.559 108.781 188.155 108.781 187.548C108.781 187.043 108.478 186.538 107.469 186.437L105.451 185.932C103.029 185.426 101.919 184.416 101.919 182.395C101.919 179.97 103.937 178.353 106.762 178.353C108.781 178.353 111.808 179.161 112.01 182.395V182.496ZM122.403 187.245H116.147C116.349 188.155 116.954 188.761 118.165 188.761C118.771 188.761 119.174 188.559 119.477 188.155H122.504C122 189.974 120.284 191.186 118.064 191.186C115.239 191.186 113.322 189.165 113.322 186.538C113.322 183.911 115.138 181.991 117.963 181.991C120.486 181.991 122.403 183.708 122.403 186.437V187.245ZM116.147 185.628H119.679C119.477 184.618 118.872 184.113 117.963 184.113C116.954 184.113 116.45 184.719 116.147 185.628ZM130.274 187.346H132.999C132.797 189.569 130.981 191.085 128.458 191.085C125.734 191.085 123.614 189.165 123.614 186.437C123.614 183.911 125.633 181.991 128.458 181.991C130.88 181.991 132.797 183.506 132.999 185.729H130.174C130.073 184.921 129.366 184.416 128.458 184.416C127.146 184.416 126.44 185.224 126.44 186.437C126.44 187.75 127.247 188.559 128.458 188.559C129.366 188.559 129.972 188.054 130.174 187.346H130.274ZM143.393 190.883H140.466V190.277C139.808 190.817 138.995 191.136 138.145 191.186C135.824 191.186 134.412 189.569 134.412 187.144V182.092H137.338V186.639C137.338 187.852 137.944 188.559 138.953 188.559C139.457 188.559 139.962 188.256 140.567 187.548V182.092H143.595V190.883H143.494H143.393ZM151.465 184.82C150.053 184.82 149.145 185.224 148.438 185.831V190.883H145.411V182.092H148.438V183.102C149.145 182.395 150.154 181.991 151.465 181.991V184.719V184.82ZM152.676 179.161C152.676 178.151 153.383 177.443 154.392 177.443C155.401 177.443 156.107 178.151 156.107 179.161C156.107 180.172 155.401 180.778 154.392 180.778C153.383 180.778 152.676 180.071 152.676 179.161ZM155.906 182.193V190.883H152.878V182.092H155.906V182.193ZM164.987 190.681C163.776 191.085 163.171 191.186 162.263 191.186C160.245 191.186 158.731 189.569 158.731 187.245V184.618H157.016V182.092H158.731V179.161H161.758V182.193H164.685V184.618H161.657V187.144C161.657 188.054 162.263 188.458 163.07 188.458C163.474 188.458 163.978 188.458 164.584 188.256L164.987 190.681ZM170.84 194.925H167.813L169.427 190.984L165.29 182.193H168.317L170.84 187.548L173.06 182.193H176.188L170.84 194.925ZM53.2803 0V111.458H165.492V0H53.2803ZM138.145 82.8608H80.6269V77.3031H138.145V82.7598V82.8608ZM114.936 59.6194L118.771 55.7795L126.44 63.4593H138.145V68.7138H124.119L114.936 59.6194ZM138.145 39.9147H125.532L96.4697 68.8149H80.7278V60.6299H93.1397L104.542 49.3123L92.3324 37.1863H80.6269V31.7296H94.7542L108.276 45.4724L122.101 31.7296H138.045V39.9147H138.145Z" fill="#000505"/>
</svg>
