<svg width="178" height="209" viewBox="0 0 178 209" fill="none" xmlns="http://www.w3.org/2000/svg">
<g clip-path="url(#clip0)">
<path fill-rule="evenodd" clip-rule="evenodd" d="M92.8535 159.375C133.93 159.375 167.229 126.076 167.229 85C167.229 43.9238 133.93 10.625 92.8535 10.625C51.7773 10.625 18.4785 43.9238 18.4785 85C18.4785 126.076 51.7773 159.375 92.8535 159.375Z" fill="#192E45"/>
<path fill-rule="evenodd" clip-rule="evenodd" d="M31.0957 85C31.0957 119.108 58.7455 146.758 92.8537 146.758C126.962 146.758 154.611 119.108 154.611 85C154.611 50.8918 126.962 23.2422 92.8537 23.2422C58.7455 23.2422 31.0957 50.8918 31.0957 85Z" fill="#294D73"/>
<path fill-rule="evenodd" clip-rule="evenodd" d="M38.9102 80.2361L43.4922 73.8483C43.505 73.8798 43.2031 83.0451 43.2031 83.0451L44.4924 76.1196C48.3178 83.8392 57.6551 94.521 66.2154 100.205C67.1394 100.82 67.8641 101.472 68.4227 102.157C69.5009 102.573 70.6173 102.817 71.7274 103.002C72.3116 103.104 72.9089 103.149 73.4923 103.201C74.0761 103.239 74.6663 103.259 75.2505 103.245C75.8338 103.232 76.412 103.206 76.9894 103.149C77.5732 103.098 78.1446 103.008 78.7148 102.912C79.2866 102.81 79.8512 102.701 80.4095 102.554C80.9669 102.407 81.5263 102.253 82.0714 102.061C82.6168 101.895 83.1623 101.69 83.6941 101.478C84.234 101.261 84.7595 101.031 85.2802 100.781C85.8001 100.519 86.32 100.275 86.8267 99.9944C87.347 99.7383 87.8405 99.4376 88.354 99.1553C88.8739 98.8928 89.3483 98.5543 89.8622 98.2719C90.3689 97.984 90.8501 97.6454 91.3636 97.3575C91.8575 97.0373 92.3511 96.7175 92.8654 96.41C93.3593 96.0838 93.8732 95.77 94.3991 95.4693L94.8739 95.1877L95.1238 95.3542L98.577 97.6323L95.0915 96.7302C94.7637 97.1205 94.4175 97.504 94.0585 97.8752C93.6216 98.3173 93.1592 98.7395 92.6981 99.1497C92.2165 99.5523 91.7289 99.937 91.2274 100.315C90.7155 100.672 90.2016 101.038 89.6625 101.358C88.5972 102.023 87.4676 102.592 86.2932 103.067C85.709 103.304 85.1125 103.521 84.5155 103.719C83.9126 103.918 83.3092 104.104 82.6867 104.25C82.0774 104.404 81.4473 104.513 80.8259 104.615C80.197 104.711 79.5681 104.776 78.9392 104.833C77.675 104.897 76.404 104.865 75.1594 104.705C74.5305 104.621 73.9144 104.5 73.3046 104.359C72.7013 104.212 72.0983 104.039 71.5142 103.821C70.4875 103.457 69.4925 102.983 68.594 102.376C68.5877 102.388 65.283 102.836 66.6179 105.313C67.9528 107.777 69.9685 107.559 69.0177 110.465C68.3505 112.014 67.4013 113.545 66.3484 114.978C64.1721 117.948 60.7266 120.54 61.066 122.102C76.7011 141.294 111.887 138.625 125.252 121.506C125.047 119.029 121.151 117.845 118.418 111.803C119.168 112.034 120.31 112.38 120.31 112.334C120.31 112.29 117.05 107.047 116.941 106.522L119.027 106.664C119.027 106.664 116.235 103.232 116.184 102.912L118.987 102.555C118.987 102.555 115.458 98.5033 115.4 98.1831L118.987 98.7522L115.061 94.0296H116.909L114.702 90.8291C114.323 90.7073 113.951 90.5918 113.578 90.4771C113.097 90.3233 112.616 90.1764 112.14 90.029C106.77 88.371 101.745 86.8158 96.868 83.7755C90.0399 79.5128 83.9178 74.3414 79.3238 70.2835L70.095 65.8157C61.2584 65.1566 52.9353 65.3741 47.8853 66.3725L51.1325 60.8231L46.1655 66.7811C45.8125 66.7051 45.7291 66.4808 45.7291 66.4808L46.0693 59.146L44.506 65.7767C44.0113 65.5592 43.4662 65.4318 42.8952 65.4318C40.6935 65.4318 38.9106 67.2105 38.9106 69.3993C38.9106 71.397 40.3996 73.0546 42.337 73.3234L38.9102 80.2361Z" fill="#D0933A"/>
<path fill-rule="evenodd" clip-rule="evenodd" d="M44.488 65.7691C43.9977 65.556 43.4594 65.4318 42.8948 65.4318C40.6931 65.4318 38.9102 67.2104 38.9102 69.3993C38.9102 71.3257 40.2949 72.9359 42.1313 73.2895C42.1605 73.2832 42.1881 73.276 42.2132 73.2676C43.4111 72.8694 45.8069 69.6832 45.4076 67.6919C45.2651 66.9822 44.952 66.3235 44.488 65.7691Z" fill="#FFCC86"/>
<path fill-rule="evenodd" clip-rule="evenodd" d="M79.293 60.6443C78.5806 58.692 78.7543 56.1447 79.7805 53.7893C81.2056 50.518 83.9141 48.3235 86.512 48.3235C87.0387 48.3235 87.5386 48.4195 88.0138 48.5979C89.5155 47.2546 91.2166 46.1538 93.1161 45.3979C103.659 41.2189 119.079 48.6883 123.045 59.0253C124.952 64.0108 124.368 69.522 122.738 74.4895C121.383 78.598 116.526 84.5182 118.323 88.986C117.584 88.8123 102.523 84.1024 98.3066 81.4783C91.5883 77.2794 85.5233 72.1398 80.9864 68.1332L80.8514 68.0054L65.5273 60.7406C65.3485 60.6502 65.1688 60.5686 64.9883 60.4782C67.19 60.4778 75.5583 61.4499 79.293 60.6443Z" fill="#FDD321"/>
<path d="M83.8335 62.5173C83.4043 62.5173 83.0121 62.4385 82.6687 62.2828C81.8825 61.9446 81.2768 61.2728 80.9062 60.3352C80.2462 58.6649 80.4011 56.402 81.3219 54.282C82.5374 51.5061 84.837 49.5662 86.9133 49.5662C87.3246 49.5662 87.7223 49.647 88.0957 49.8067C89.1331 50.2564 89.8538 51.307 90.1229 52.7638C90.4168 54.3103 90.1665 56.0973 89.419 57.7987C88.2147 60.5782 85.9183 62.5173 83.8335 62.5173Z" fill="white"/>
<path d="M86.9133 50.1635C87.2431 50.1635 87.5613 50.2285 87.854 50.3535C88.7054 50.7223 89.3019 51.6168 89.5351 52.8781C89.8062 54.3043 89.5698 55.9667 88.8683 57.5645C87.7742 60.0883 85.6567 61.9199 83.8334 61.9199C83.4952 61.9199 83.1778 61.8574 82.9162 61.7387L82.9059 61.7339L82.8955 61.7295C82.2698 61.4607 81.7742 60.9027 81.4636 60.1166C80.8602 58.59 81.0128 56.4975 81.8701 54.5229C82.9761 51.9972 85.0968 50.1635 86.9133 50.1635ZM86.9133 48.9688C84.6037 48.9688 82.0809 51.0553 80.772 54.0446C79.7909 56.3044 79.6304 58.7362 80.3487 60.5547C80.7788 61.6427 81.4975 62.4301 82.4207 62.8268C82.8452 63.0187 83.3263 63.1147 83.833 63.1147C86.1498 63.1147 88.6718 61.0274 89.9672 58.0384C90.763 56.2271 91.0265 54.3139 90.7115 52.6555C90.404 50.9919 89.5571 49.7888 88.3308 49.2575C87.8824 49.0655 87.4012 48.9688 86.9133 48.9688Z" fill="#1D2A3A"/>
<path opacity="0.3" d="M90.9388 48.7318C90.9388 48.7318 94.3528 54.7368 90.8617 59.9143C87.3642 65.0921 82.9942 65.0989 82.9942 65.0989L8.63814 41.1094C8.63814 41.1094 5.66691 28.2638 11.2883 17.6198C16.9025 6.96858 29.1919 1.56055 29.1919 1.56055L90.9388 48.7318Z" fill="url(#paint0_linear)"/>
</g>
<path fill-rule="evenodd" clip-rule="evenodd" d="M150.388 203.956C150.388 204.196 150.552 204.353 150.796 204.353H161.087C165.927 204.353 169.302 202.307 170.645 198.221C171.133 196.697 171.4 195.172 171.4 190.724C171.4 186.275 171.156 184.748 170.645 183.226C169.302 179.138 165.927 177.095 161.087 177.095H150.796C150.687 177.087 150.58 177.127 150.503 177.203C150.426 177.279 150.386 177.384 150.393 177.492L150.388 203.956ZM156.367 198.866V182.588C156.367 182.427 156.448 182.348 156.611 182.348H159.742C162.507 182.348 164.175 183.149 164.867 185.327C165.152 186.128 165.315 187.171 165.315 190.699C165.315 194.227 165.152 195.267 164.867 196.071C164.175 198.276 162.507 199.05 159.742 199.05H156.609C156.445 199.05 156.365 198.971 156.365 198.809L156.367 198.866ZM122.098 203.956C122.017 204.196 122.098 204.353 122.382 204.353H127.709C127.993 204.353 128.157 204.229 128.213 203.956L129.759 199.184H139.44L141.027 203.956C141.107 204.236 141.271 204.353 141.531 204.353H146.819C147.104 204.353 147.185 204.191 147.104 203.956L137.748 177.492C137.667 177.251 137.503 177.095 137.244 177.095H132.141C131.893 177.079 131.674 177.254 131.638 177.497L122.098 203.956ZM131.451 194.174L134.584 184.632H134.71L137.841 194.174H131.451ZM113.368 204.358C113.613 204.358 113.771 204.196 113.857 203.956L122.672 177.534C122.752 177.253 122.591 177.092 122.344 177.092H117.098C116.814 177.092 116.65 177.216 116.595 177.494L111.225 195.376H111.099L105.546 177.492C105.465 177.211 105.302 177.09 105.042 177.09H99.7533C99.4687 177.09 99.305 177.251 99.3881 177.531L108.173 203.953C108.253 204.194 108.417 204.355 108.676 204.355L113.368 204.358ZM82.0733 203.956C82.0733 204.196 82.237 204.358 82.4763 204.358H100.496C100.741 204.358 100.904 204.196 100.904 203.956V199.504C100.904 199.264 100.741 199.102 100.496 199.102H88.2941C88.1304 199.102 88.0498 199.023 88.0498 198.861V177.492C88.0498 177.251 87.8861 177.09 87.6418 177.09H82.4788C82.2345 177.09 82.0708 177.251 82.0708 177.492L82.0733 203.956ZM59.6711 203.956C59.6711 204.196 59.8348 204.358 60.0791 204.358H78.0941C78.3384 204.358 78.497 204.196 78.497 203.956V199.504C78.497 199.264 78.3333 199.102 78.0941 199.102H65.8918C65.7281 199.102 65.6475 199.023 65.6475 198.861V177.492C65.6475 177.251 65.4838 177.09 65.2446 177.09H60.0816C59.8373 177.09 59.6736 177.251 59.6736 177.492L59.6711 203.956ZM43.948 204.8C50.131 204.8 54.5258 201.111 54.5258 194.336V177.497C54.5258 177.256 54.3621 177.095 54.1178 177.095H48.9548C48.8458 177.087 48.7388 177.127 48.6616 177.203C48.5843 177.279 48.5443 177.384 48.5518 177.492V194.492C48.5518 197.739 46.7209 199.581 43.9555 199.581C41.1499 199.581 39.3215 197.737 39.3215 194.492V177.492C39.329 177.384 39.289 177.279 39.2117 177.203C39.1345 177.127 39.0275 177.087 38.9185 177.095H33.7505C33.6415 177.087 33.5346 177.127 33.4573 177.203C33.38 177.279 33.34 177.384 33.3475 177.492V194.331C33.3475 201.108 37.7398 204.795 43.9631 204.795L43.948 204.8ZM2.39243 203.956C2.39243 204.196 2.55613 204.358 2.79539 204.358H7.39169C7.63599 204.358 7.79465 204.196 7.79465 203.956V188.599H7.95835L13.0835 200.105C13.1969 200.425 13.5145 200.629 13.8567 200.602H16.6624C17.0275 200.602 17.2718 200.44 17.4355 200.105L22.5607 188.599H22.7244V203.956C22.7244 204.196 22.8881 204.358 23.1324 204.358H27.7237C27.968 204.358 28.1266 204.196 28.1266 203.956V177.492C28.1266 177.251 27.9629 177.09 27.7187 177.09H22.9335C22.6061 177.09 22.4298 177.214 22.2837 177.492L15.4081 193.047H15.2444L8.24799 177.492C8.14884 177.228 7.88221 177.063 7.5982 177.09H2.75762C2.51332 177.09 2.34961 177.251 2.34961 177.492L2.39243 203.956Z" fill="#1E2B3B"/>
<defs>
<linearGradient id="paint0_linear" x1="86.6944" y1="41.2495" x2="31.5235" y2="16.0058" gradientUnits="userSpaceOnUse">
<stop stop-color="white"/>
<stop offset="1" stop-color="white" stop-opacity="0"/>
</linearGradient>
<clipPath id="clip0">
<rect width="170" height="170" fill="white" transform="translate(7.85352)"/>
</clipPath>
</defs>
</svg>
