<?xml version="1.0" encoding="UTF-8" standalone="no"?>
<!-- Created with Inkscape (http://www.inkscape.org/) -->

<svg
   xmlns:dc="http://purl.org/dc/elements/1.1/"
   xmlns:cc="http://creativecommons.org/ns#"
   xmlns:rdf="http://www.w3.org/1999/02/22-rdf-syntax-ns#"
   xmlns:svg="http://www.w3.org/2000/svg"
   xmlns="http://www.w3.org/2000/svg"
   xmlns:sodipodi="http://sodipodi.sourceforge.net/DTD/sodipodi-0.dtd"
   xmlns:inkscape="http://www.inkscape.org/namespaces/inkscape"
   width="400"
   height="400"
   viewBox="0 0 105.83333 105.83334"
   version="1.1"
   id="svg844"
   inkscape:version="0.92.3 (2405546, 2018-03-11)"
   sodipodi:docname="Star.svg">
  <defs
     id="defs838" />
  <sodipodi:namedview
     id="base"
     pagecolor="#ffffff"
     bordercolor="#666666"
     borderopacity="1.0"
     inkscape:pageopacity="0.0"
     inkscape:pageshadow="2"
     inkscape:zoom="0.35"
     inkscape:cx="-134.28571"
     inkscape:cy="560"
     inkscape:document-units="mm"
     inkscape:current-layer="layer1"
     showgrid="false"
     units="px"
     inkscape:window-width="1887"
     inkscape:window-height="1536"
     inkscape:window-x="1953"
     inkscape:window-y="27"
     inkscape:window-maximized="0" />
  <metadata
     id="metadata841">
    <rdf:RDF>
      <cc:Work
         rdf:about="">
        <dc:format>image/svg+xml</dc:format>
        <dc:type
           rdf:resource="http://purl.org/dc/dcmitype/StillImage" />
        <dc:title></dc:title>
      </cc:Work>
    </rdf:RDF>
  </metadata>
  <g
     inkscape:label="Layer 1"
     inkscape:groupmode="layer"
     id="layer1"
     transform="translate(0,-191.16665)">
    <g
       transform="matrix(0.2558039,0,0,-0.2558039,0.69914342,346.40488)"
       id="g836">
      <path
         d="M 256.77566,299.6501 408.26214,253.29738 292.38036,361.30629 265.14253,335.9264 Z M 115.88178,361.30629 -4.4419499e-6,253.29738 151.48385,299.6501 l -8.36337,36.2763 z m 123.84551,91.18548 -35.59067,154.37242 -35.60441,-154.37242 35.60441,-10.88532 35.59067,10.88532"
         style="fill:#aaa8a8;fill-opacity:1;fill-rule:evenodd;stroke:none"
         id="path14"
         inkscape:connector-curvature="0" />
      <path
         d="M 115.88178,361.30629 -4.4419499e-6,253.29738 143.12048,335.9264 Z m 90.13644,80.86952 -1.8816,164.68838 -35.60441,-154.37242 35.60441,-10.88532 1.8816,0.56936"
         style="fill:#656263;fill-opacity:1;fill-rule:evenodd;stroke:none"
         id="path16"
         inkscape:connector-curvature="0" />
      <path
         d="M 151.48385,299.6501 -4.4419499e-6,253.29738 143.12048,335.9264 Z m 115.10676,37.62301 141.67153,-83.97573 -151.48648,46.35272 8.36687,36.2763 1.44808,1.34671"
         style="fill:#7f7d7e;fill-opacity:1;fill-rule:evenodd;stroke:none"
         id="path18"
         inkscape:connector-curvature="0" />
      <path
         d="m 204.13662,412.98685 -154.167645,47.1733 117.938085,-109.92264 36.22956,-157.1017 36.21846,157.1017 117.93545,109.92264 -154.15391,-47.1733"
         style="fill:#19b5f1;fill-opacity:1;fill-rule:evenodd;stroke:none"
         id="path20"
         inkscape:connector-curvature="0" />
      <path
         d="M 204.13662,373.48223 49.968975,460.16015 167.90706,350.23751 204.13662,193.13581 v 180.34642"
         style="fill:#1575c5;fill-opacity:1;fill-rule:evenodd;stroke:none"
         id="path22"
         inkscape:connector-curvature="0" />
      <path
         d="M 204.13662,373.48223 358.29053,460.16015 240.35508,350.23751 204.13662,193.13581 v 180.34642"
         style="fill:#0994db;fill-opacity:1;fill-rule:evenodd;stroke:none"
         id="path24"
         inkscape:connector-curvature="0" />
    </g>
  </g>
</svg>
