<svg xmlns="http://www.w3.org/2000/svg" xmlns:xlink="http://www.w3.org/1999/xlink" viewBox="0 0 680.31 311.81"><defs><style>.cls-1{fill:#4633ad;}.cls-2{fill:#c3f;}.cls-3{fill:url(#Unbenannter_Verlauf_2);}</style><linearGradient id="Unbenannter_Verlauf_2" x1="133.7" y1="56.35" x2="132.61" y2="261.49" gradientUnits="userSpaceOnUse"><stop offset="0" stop-color="#c3f"/><stop offset="1" stop-color="#4633ad"/></linearGradient></defs><g id="Wortmarke"><path class="cls-1" d="M296.69,104.7q-6.68,0-10.46-2.63a13.7,13.7,0,0,1-5.29-7.16,33.29,33.29,0,0,1-1.5-10.46V62.78a34.77,34.77,0,0,1,1.5-10.8,13,13,0,0,1,5.29-7q3.79-2.48,10.46-2.48,6.3,0,9.87,2.14a11.75,11.75,0,0,1,5.06,6.11,26.08,26.08,0,0,1,1.5,9.23V65H302.47V59.78a38.72,38.72,0,0,0-.26-4.65,5.77,5.77,0,0,0-1.43-3.34c-.77-.83-2.11-1.24-4-1.24a5.7,5.7,0,0,0-4.16,1.31,6.31,6.31,0,0,0-1.69,3.53,30,30,0,0,0-.38,5v26.4a23.23,23.23,0,0,0,.53,5.43A5.65,5.65,0,0,0,293,95.44a6,6,0,0,0,3.79,1.09,5,5,0,0,0,3.94-1.32,6.45,6.45,0,0,0,1.46-3.48,36,36,0,0,0,.3-4.88V81.38h10.65v4.87a29.44,29.44,0,0,1-1.43,9.56,12.45,12.45,0,0,1-5,6.53Q303.14,104.7,296.69,104.7Z"/><path class="cls-1" d="M339.6,104.7q-6.45,0-10.28-2.4a13.21,13.21,0,0,1-5.47-6.9,30.7,30.7,0,0,1-1.66-10.65V62a29.74,29.74,0,0,1,1.66-10.54,12.84,12.84,0,0,1,5.47-6.71q3.82-2.33,10.28-2.33c4.39,0,7.86.78,10.38,2.33a13.15,13.15,0,0,1,5.48,6.71A29.5,29.5,0,0,1,357.14,62V84.82a29.84,29.84,0,0,1-1.68,10.54,13.69,13.69,0,0,1-5.48,6.9C347.46,103.89,344,104.7,339.6,104.7Zm0-8.17a5.85,5.85,0,0,0,4.08-1.21A5.94,5.94,0,0,0,345.44,92a21.24,21.24,0,0,0,.45-4.58v-28a20.61,20.61,0,0,0-.45-4.58,5.79,5.79,0,0,0-1.76-3.19,6.06,6.06,0,0,0-4.08-1.16,6,6,0,0,0-4,1.16,5.71,5.71,0,0,0-1.8,3.19,21.22,21.22,0,0,0-.45,4.58v28a24.22,24.22,0,0,0,.41,4.58,5.71,5.71,0,0,0,1.76,3.29A5.9,5.9,0,0,0,339.6,96.53Z"/><path class="cls-1" d="M367.57,103.88V43.13h7.72l14.78,34.65V43.13h9.15v60.75h-7.35L377,67.57v36.31Z"/><path class="cls-1" d="M420,103.88,407.77,43.13h9.83l8,43,7.5-43h10.05L431,103.88Z"/><path class="cls-1" d="M451.64,103.88V43.13h25.5v7.8h-14.4V68.4h11.33v7.73H462.74v20.1h14.55v7.65Z"/><path class="cls-1" d="M486,103.88V43.13h14.54a32,32,0,0,1,10.39,1.46,11.91,11.91,0,0,1,6.45,5q2.21,3.54,2.21,9.61a29.53,29.53,0,0,1-.67,6.6,12.43,12.43,0,0,1-2.29,5A10.24,10.24,0,0,1,512.17,74l8.47,29.93h-11.1l-7.35-27.83h-5.1v27.83Zm11.09-34.81h3.45a11.87,11.87,0,0,0,5.14-.93,5.49,5.49,0,0,0,2.74-3,14.42,14.42,0,0,0,.83-5.29c0-3.05-.57-5.34-1.69-6.86s-3.27-2.29-6.42-2.29h-4.05Z"/><path class="cls-1" d="M545.24,104.7q-6,0-9.52-2.55a14,14,0,0,1-5.06-7.24,35.41,35.41,0,0,1-1.54-11.06V63.45a37.38,37.38,0,0,1,1.5-11.25A13.13,13.13,0,0,1,535.91,45q3.78-2.51,10.46-2.51,6.23,0,9.9,2.1a12,12,0,0,1,5.28,6,25.11,25.11,0,0,1,1.62,9.56V63.3H552.59V59.85a26.2,26.2,0,0,0-.41-5,5.49,5.49,0,0,0-1.65-3.18,6,6,0,0,0-4-1.09A5.54,5.54,0,0,0,542.28,52a6.83,6.83,0,0,0-1.65,3.75,36.31,36.31,0,0,0-.34,5.09V86.25a25.13,25.13,0,0,0,.53,5.48,6.44,6.44,0,0,0,1.95,3.56,6,6,0,0,0,4.05,1.24,5.81,5.81,0,0,0,4.12-1.35,7.35,7.35,0,0,0,2-3.75,25.56,25.56,0,0,0,.56-5.7V80H547v-7h16.5v30.83h-7.13l-.82-6a11.65,11.65,0,0,1-3.64,4.91A10.51,10.51,0,0,1,545.24,104.7Z"/><path class="cls-1" d="M574.19,103.88V43.13h25.5v7.8h-14.4V68.4h11.33v7.73H585.29v20.1h14.55v7.65Z"/><path class="cls-1" d="M608.54,103.88V43.13h14.33q7.43,0,11.58,2a11.79,11.79,0,0,1,5.93,6.23A27.62,27.62,0,0,1,642.14,62v22.2a29.5,29.5,0,0,1-1.76,11,12.25,12.25,0,0,1-5.85,6.53q-4.08,2.13-11.21,2.14Zm11.1-7.73H623q3.83,0,5.47-1.35a6,6,0,0,0,2-3.94,45.1,45.1,0,0,0,.37-6.33V61.28a27.08,27.08,0,0,0-.52-5.93,5.08,5.08,0,0,0-2.18-3.3,10.25,10.25,0,0,0-5.32-1h-3.23Z"/><path class="cls-1" d="M295.64,194.7a17.84,17.84,0,0,1-9.14-2.14,13.4,13.4,0,0,1-5.56-6.26,27.07,27.07,0,0,1-2.09-10.12l9.52-1.88a29.83,29.83,0,0,0,.86,6.23,9.08,9.08,0,0,0,2.18,4.16,5.23,5.23,0,0,0,3.86,1.46,4.35,4.35,0,0,0,3.83-1.61,7,7,0,0,0,1.12-4.09,11,11,0,0,0-1.8-6.52,28.44,28.44,0,0,0-4.8-5.11L286,162.07a23,23,0,0,1-5.14-6.18,17.13,17.13,0,0,1-1.91-8.44q0-7.2,4.2-11.1t11.48-3.9a17.12,17.12,0,0,1,7.12,1.31,11.42,11.42,0,0,1,4.54,3.64,16.47,16.47,0,0,1,2.51,5.29,31.12,31.12,0,0,1,1.05,6.26l-9.45,1.65a31.64,31.64,0,0,0-.64-5.1A7.07,7.07,0,0,0,298,142a4.86,4.86,0,0,0-3.64-1.28,4.63,4.63,0,0,0-3.79,1.61,6.2,6.2,0,0,0-1.31,4,9.23,9.23,0,0,0,1.27,5.07,20,20,0,0,0,3.68,4.09l7.57,6.67a31.64,31.64,0,0,1,6.42,7.39,18.9,18.9,0,0,1,2.66,10.24A15.43,15.43,0,0,1,309,187.5a13.76,13.76,0,0,1-5.33,5.29A16.12,16.12,0,0,1,295.64,194.7Z"/><path class="cls-1" d="M319,193.88V133.13h25.5v7.8h-14.4V158.4h11.33v7.73H330.14v20.1h14.55v7.65Z"/><path class="cls-1" d="M369.74,194.7q-6.67,0-10.46-2.63a13.65,13.65,0,0,1-5.29-7.16,33.29,33.29,0,0,1-1.5-10.46V152.78A34.77,34.77,0,0,1,354,142a12.94,12.94,0,0,1,5.29-7q3.8-2.48,10.46-2.48,6.3,0,9.87,2.14a11.75,11.75,0,0,1,5.06,6.11,26.08,26.08,0,0,1,1.5,9.23V155H375.52v-5.25a38.72,38.72,0,0,0-.26-4.65,5.77,5.77,0,0,0-1.43-3.34c-.77-.83-2.11-1.24-4-1.24a5.7,5.7,0,0,0-4.16,1.31,6.31,6.31,0,0,0-1.69,3.53,30,30,0,0,0-.38,5v26.4a23.23,23.23,0,0,0,.53,5.43,5.59,5.59,0,0,0,1.91,3.23,6,6,0,0,0,3.79,1.09,5,5,0,0,0,3.94-1.32,6.45,6.45,0,0,0,1.46-3.48,36,36,0,0,0,.3-4.88v-5.47h10.65v4.87a29.44,29.44,0,0,1-1.43,9.56,12.45,12.45,0,0,1-5,6.53Q376.19,194.7,369.74,194.7Z"/><path class="cls-1" d="M412.79,194.7q-6.75,0-10.5-2.47a12.68,12.68,0,0,1-5.17-7,37.05,37.05,0,0,1-1.43-11v-41.1h10.8V175.5a36.25,36.25,0,0,0,.38,5.36,7.55,7.55,0,0,0,1.76,4,6.5,6.5,0,0,0,8.4,0,8.09,8.09,0,0,0,1.73-4,33.62,33.62,0,0,0,.41-5.36V133.13h10.72v41.1a37.08,37.08,0,0,1-1.42,11,12.77,12.77,0,0,1-5.14,7Q419.63,194.71,412.79,194.7Z"/><path class="cls-1" d="M440.84,193.88V133.13h14.55a32,32,0,0,1,10.39,1.46,12,12,0,0,1,6.45,5q2.2,3.54,2.21,9.61a29.53,29.53,0,0,1-.67,6.6,12.57,12.57,0,0,1-2.29,5A10.3,10.3,0,0,1,467,164l8.47,29.93h-11.1L457,166.05h-5.1v27.83Zm11.1-34.81h3.45a11.9,11.9,0,0,0,5.14-.93,5.53,5.53,0,0,0,2.74-3,14.44,14.44,0,0,0,.82-5.29q0-4.57-1.68-6.86T456,140.7h-4.05Z"/><path class="cls-1" d="M485.32,193.88V133.13h10.95v60.75Z"/><path class="cls-1" d="M514,193.88V141.3h-9.68v-8.17h30.3v8.17h-9.52v52.58Z"/><path class="cls-1" d="M550.86,193.88V170.7l-12.29-37.57h10.35l7.5,24.07,7.05-24.07h10.12L561.44,170.7v23.18Z"/><path class="cls-2" d="M294,284.63a15.08,15.08,0,0,1-8.22-2.07,12.81,12.81,0,0,1-4.91-5.77,25.87,25.87,0,0,1-2-8.66l5-1.5a32.81,32.81,0,0,0,1.35,6.78,10.07,10.07,0,0,0,3.07,4.8,8.7,8.7,0,0,0,5.78,1.77,8.88,8.88,0,0,0,6.3-2.1q2.25-2.1,2.25-6.68a12.14,12.14,0,0,0-2-6.94,37,37,0,0,0-5.44-6.19L284.47,247.8a19.2,19.2,0,0,1-4.2-5.74,15.42,15.42,0,0,1-1.35-6.49q0-6.28,3.75-9.67t10-3.37a19.12,19.12,0,0,1,5.82.82,10.82,10.82,0,0,1,4.42,2.66,12.6,12.6,0,0,1,2.89,4.77,28.86,28.86,0,0,1,1.42,7.12l-4.87,1.28a26.77,26.77,0,0,0-1.24-6.57,8.21,8.21,0,0,0-2.92-4.16,11,11,0,0,0-11.66.53c-1.61,1.3-2.4,3.32-2.4,6.07a10.66,10.66,0,0,0,.93,4.5,15.44,15.44,0,0,0,3.34,4.35L299.1,254a38.77,38.77,0,0,1,6.22,7.5,16.94,16.94,0,0,1,2.62,9.29,15.15,15.15,0,0,1-1.76,7.66,11.21,11.21,0,0,1-4.91,4.61A16.47,16.47,0,0,1,294,284.63Z"/><path class="cls-2" d="M334.94,284.63c-4.1,0-7.28-.74-9.56-2.22a11.22,11.22,0,0,1-4.69-6.15,29,29,0,0,1-1.27-9V223.13H325v44.32a24.1,24.1,0,0,0,.79,6.41,8.17,8.17,0,0,0,3,4.54,10.14,10.14,0,0,0,6.22,1.65,9.66,9.66,0,0,0,6.08-1.69,8.77,8.77,0,0,0,3-4.54,22.06,22.06,0,0,0,.86-6.37V223.13h5.47V267.3a27.53,27.53,0,0,1-1.35,9,11.6,11.6,0,0,1-4.72,6.15C342.07,283.89,339,284.63,334.94,284.63Z"/><path class="cls-2" d="M365,283.88V223.13h5.7v60.75Z"/><path class="cls-2" d="M393.52,283.88V227.55H382v-4.42h28.28v4.42h-11.1v56.33Z"/><path class="cls-2" d="M421.49,283.88V223.13h22v4.42h-16.2v22.8h13.2v4.2h-13.2V279.6h16.35v4.28Z"/><path class="cls-3" d="M133.62,235.1l-2.26-1.34c-1-.61-25.39-15.24-50.08-42.38-32.86-36.1-50.23-77.16-50.23-118.74V71l1.1-1.25C33.68,68,70.3,27.18,133.62,27.18c65.77,0,100.13,40.91,101.56,42.65l1,1.23v1.58c0,41.58-17.37,82.64-50.23,118.74-24.69,27.14-49.05,41.77-50.08,42.38ZM39.91,74.39c.6,48.77,26.21,87.14,47.73,110.85a246.78,246.78,0,0,0,46,39.49,246.78,246.78,0,0,0,46-39.49c21.53-23.72,47.16-62.12,47.73-110.93-6-6.47-38.25-38.28-93.71-38.28C80.28,36,46.35,67.82,39.91,74.39Zm59.9.1,6.89,6.89a43.26,43.26,0,0,1,53.85,0l6.89-6.89,0,0,.52-10.11A61,61,0,0,0,145.4,55l-6.79,7.52c-1.64-.15-3.3-.24-5-.24s-3.34.09-5,.24L121.85,55a61,61,0,0,0-22.54,9.34l.52,10.11Zm-.15,67.73a43.3,43.3,0,0,1,0-53.79l-6.91-6.91L82.66,81a61.24,61.24,0,0,0-9.34,22.53l7.52,6.79c-.15,1.65-.23,3.31-.23,5s.08,3.34.23,5l-7.52,6.79a61.24,61.24,0,0,0,9.34,22.53l10.11-.51Zm67.83,13.89-6.89-6.88a43.28,43.28,0,0,1-53.89,0l-6.89,6.89h0l-.52,10.12a61.1,61.1,0,0,0,22.54,9.33l6.79-7.52c1.64.15,3.3.24,5,.24s3.35-.09,5-.24l6.79,7.52a61.1,61.1,0,0,0,22.54-9.33l-.52-10.12Zm19.15-40.79c0-1.68-.08-3.34-.23-5l7.52-6.79A61.24,61.24,0,0,0,184.59,81l-10.08.51-6.91,6.91a43.29,43.29,0,0,1,0,53.73l7,7,10,.51a61.24,61.24,0,0,0,9.34-22.53l-7.52-6.79C186.56,118.66,186.64,117,186.64,115.32ZM133.62,82A33.37,33.37,0,1,0,167,115.32,33.37,33.37,0,0,0,133.62,82Zm0,56.33a23,23,0,1,1,23-23A23,23,0,0,1,133.62,138.28Z"/></g></svg>