<svg xmlns="http://www.w3.org/2000/svg" xmlns:xlink="http://www.w3.org/1999/xlink" viewBox="0 0 241.2 240.1">
  <defs>
    <linearGradient id="linear-gradient" x1="82.9" x2="82.9" y1="11.6" y2="154.5" gradientUnits="userSpaceOnUse">
      <stop offset="0" stop-color="#00b0da"/>
      <stop offset="1" stop-color="#008abf"/>
    </linearGradient>
    <linearGradient xlink:href="#linear-gradient" id="linear-gradient-2" x1="81.5" x2="81.5" y1="27.6" y2="158.7"/>
    <linearGradient id="linear-gradient-3" x1="156.7" x2="156.7" y1="51.5" y2="154.8" gradientUnits="userSpaceOnUse">
      <stop offset="0" stop-color="#a5d440"/>
      <stop offset="1" stop-color="#8cce3f"/>
    </linearGradient>
    <linearGradient xlink:href="#linear-gradient-3" id="linear-gradient-4" x1="158.4" x2="158.4" y1="51.5" y2="154.8"/>
    <style>
      .cls-1{fill:#a6a8ab}.cls-6{fill:#626366}
    </style>
  </defs>
  <g id="Layer_2" data-name="Layer 2">
    <g id="Layer_1-2" data-name="Layer 1">
      <path d="M241.2 205.8a18.7 18.7 0 1 0-.2 16l-3.7-1.8a14.5 14.5 0 1 1 .2-12.5Z" class="cls-1"/>
      <path fill="url(#linear-gradient)" d="M65.8 81.9a53.7 53.7 0 0 0 11.7 33.4l-.3.9a10.8 10.8 0 0 0-.3 2.5 11 11 0 1 0 11-11 10.8 10.8 0 0 0-1.2.1l-1 .1A42.8 42.8 0 0 1 100 44V2l-.8.2q-3.6 1-7.1 2.2L88.2 6v32.2h-.1A53.8 53.8 0 0 0 65.8 82Z"/>
      <path fill="url(#linear-gradient-2)" d="M120.3 96.6a14.5 14.5 0 0 1-14.6-14.4H93.6a26.3 26.3 0 0 0 21 25.7v45.3A71.1 71.1 0 0 1 63.9 38.1l1 .1h1a10.8 10.8 0 1 0-10.3-7.4 82.2 82.2 0 0 0 64.2 133.6l4.2-.1 1.7-.1V95.6a14.5 14.5 0 0 1-5.4 1Z"/>
      <path fill="url(#linear-gradient-3)" d="M172 68.5a53.8 53.8 0 0 0-9.9-19.7 11.3 11.3 0 0 0 .3-1.3 10.8 10.8 0 0 0 .3-2.1 11 11 0 1 0-9 10.8 42.8 42.8 0 0 1-14.1 64V162l3.2-.9a82.3 82.3 0 0 0 8.5-3V126A54 54 0 0 0 172 68.5Z"/>
      <path fill="url(#linear-gradient-4)" d="M184.6 132.8A82.2 82.2 0 0 0 119.8 0c-1.6 0-3.3 0-4.9.2v68.3a14.5 14.5 0 0 1 5.1-1h.3A14.6 14.6 0 0 1 134.9 82s0 0 0 .1v.1h11a26.2 26.2 0 0 0-20-25.4V11.3A71.1 71.1 0 0 1 176 125.8a11 11 0 0 0-12.6 11 11 11 0 0 0 11 11 11 11 0 0 0 10.5-14.2c0-.3-.2-.6-.3-.8Z"/>
      <path d="M201.2 231.4v-35.7h-4.7L182 225.1l-14.5-29.4h-4.8v35.7h4.2v-27.2l13.4 27.2h3.4l13.4-27.2v27.2h4.1z" class="cls-1"/>
      <path d="M119.8 208.4a10.6 10.6 0 0 0-7.9-3.3 10.2 10.2 0 0 0-4.1.8 16 16 0 0 0-3.7 2.2v-2.7H100v26h4.2v-14.8a7.7 7.7 0 0 1 2.1-5.5 7.5 7.5 0 0 1 10.7 0 7.8 7.8 0 0 1 2 5.5v14.8h4.2v-15a11.1 11.1 0 0 0-3.3-8M63.7 224.4a12.4 12.4 0 0 1-4.9 5.2 13.5 13.5 0 0 1-7 1.8h-6.3v8.6h-4v-34.6h10.1a13.4 13.4 0 0 1 9.6 3.8 12.7 12.7 0 0 1 2.5 15.2m-18.2 3.2h5.8a9.5 9.5 0 0 0 6.8-2.6 8.6 8.6 0 0 0 2.7-6.5 8.4 8.4 0 0 0-2.7-6.4 9.4 9.4 0 0 0-6.7-2.6h-5.9ZM96.4 219.8a4.6 4.6 0 0 0 .2-1.4c0-7.4-6.3-13.4-14-13.4s-14 6-14 13.4 6.3 13.3 14 13.3a14 14 0 0 0 12-6.5l-3.3-2.4a9.9 9.9 0 0 1-8.7 5 9.4 9.4 0 1 1 0-18.9 9.8 9.8 0 0 1 9.3 6.6l.2.7H76.6v3.5ZM33.2 213.5A14.5 14.5 0 1 1 18.7 199a14.5 14.5 0 0 1 14.5 14.5m4.1 0a18.7 18.7 0 1 0-18.7 18.7 18.7 18.7 0 0 0 18.7-18.7" class="cls-6"/>
      <path d="M154.4 220.7a6.8 6.8 0 0 1-6.8 6.8h-15.5v-13.6h15.5a6.8 6.8 0 0 1 6.8 6.8m-2.3-16a5 5 0 0 1-5 5.1h-15v-10.1H147a5 5 0 0 1 5 5m1 6.8a9 9 0 0 0-5.7-15.8H128v35.8H148.4a10.7 10.7 0 0 0 4.6-20" class="cls-1"/>
    </g>
  </g>
</svg>