<svg xmlns="http://www.w3.org/2000/svg" id="Ebene_1" data-name="Ebene 1" viewBox="0 0 1500 1124"><defs><style>.cls-1{fill:#1d1d1b}</style></defs><path d="M209.6 869.8c56 0 93.2 29.3 93.2 74 0 44.9-37.1 74-93.3 74-56.3 0-93.2-29.1-93.2-74 0-44.7 36.9-74 93.3-74Zm-.3 116c32.6 0 54.8-17 54.8-42s-22.2-42-54.8-42-54.3 16.8-54.3 42 21.8 42 54.3 42ZM444.6 931.6c12 0 17.4-4.3 17.4-12.6 0-8.5-5.7-12.3-17.6-12.3h-52a4.3 4.3 0 0 0-4.6 4.5v94.4c0 4.9-3.2 8-8 8h-22.7c-4.8 0-8-3.2-8-8V882a7.6 7.6 0 0 1 8-8h82c39.4 0 61 15.4 61 43.8 0 22-12.7 36.9-34.9 42.4l37.4 47.4a5.7 5.7 0 0 1 1.6 3.4c0 1.9-1.6 2.8-4.6 2.8h-34.4a9.2 9.2 0 0 1-7.3-3.7l-34.6-45.4h-17.9c-3.6 0-5.4-1.6-5.4-4.3a7.8 7.8 0 0 1 .6-3l9.2-21.6a7 7 0 0 1 6.4-4ZM669.2 873.9c4.8 0 8 3.2 8 8v17c0 4.8-3.2 8-8 8h-77.7a4.3 4.3 0 0 0-4.6 4.6v11.2a4.3 4.3 0 0 0 4.6 4.6h71.7c3.7 0 5.7 1.8 5.7 4.3a7.8 7.8 0 0 1-.6 3l-8.5 20.7a7 7 0 0 1-6.4 4h-61.9a4.3 4.3 0 0 0-4.6 4.7V976a4.3 4.3 0 0 0 4.6 4.6h85.2a7.6 7.6 0 0 1 8 8v17c0 4.8-3.2 8-8 8H557c-4.8 0-8-3.3-8-8V881.8a7.6 7.6 0 0 1 8-8ZM819 873.9c27.7 0 46.7 14.7 46.7 36.2 0 13.3-7 25.2-17.6 29.8v.9a36.3 36.3 0 0 1 23.1 34.4c0 23.6-19.9 38.5-51.8 38.5h-80.6a5.4 5.4 0 0 1-5.7-5.8V879.6a5.4 5.4 0 0 1 5.7-5.7Zm-68 121.9a2.2 2.2 0 0 0 2.3 2.3h68c20 0 32.1-9.4 32.1-24.8s-12.4-24.7-32.8-24.7h-52.2c-2.5 0-4-1.2-4-3a4.5 4.5 0 0 1 .6-2.3l3.2-7.8a3.6 3.6 0 0 1 3.2-2h49c17 0 27.5-8.5 27.5-22s-10.6-21.8-28-21.8h-66.6a2.2 2.2 0 0 0-2.3 2.3ZM978.8 887l49.1 28.4v56.8l-49.1 28.4-49.2-28.4v-56.8l49.2-28.3m0-15.8a15.7 15.7 0 0 0-8 2.1l-49 28.4a15.8 15.8 0 0 0-8 13.6v56.8a15.7 15.7 0 0 0 8 13.6l49 28.4a15.8 15.8 0 0 0 15.8 0l49.2-28.4a15.8 15.8 0 0 0 7.9-13.6v-56.8a15.8 15.8 0 0 0-7.9-13.6l-49.2-28.4a15.7 15.7 0 0 0-7.8-2.1ZM1152 887l49 28.4v56.8l-49 28.4-49.2-28.4v-56.8l49.1-28.3m0-15.8a15.7 15.7 0 0 0-7.9 2.1l-49.1 28.4a15.8 15.8 0 0 0-7.9 13.6v56.8a15.7 15.7 0 0 0 7.9 13.6l49.1 28.4a15.8 15.8 0 0 0 15.8 0l49.2-28.4a15.7 15.7 0 0 0 7.9-13.6v-56.8a15.8 15.8 0 0 0-7.9-13.6l-49.2-28.4a15.7 15.7 0 0 0-7.8-2.1ZM1378 873.9a5.4 5.4 0 0 1 5.7 5.7v4.4a5.4 5.4 0 0 1-5.7 5.7h-51.3a2.2 2.2 0 0 0-2.3 2.3v116a5.4 5.4 0 0 1-5.7 5.7h-6.5a5.4 5.4 0 0 1-5.7-5.7V892a2.2 2.2 0 0 0-2.3-2.3h-51.5a5.4 5.4 0 0 1-5.8-5.7v-4.4a5.4 5.4 0 0 1 5.8-5.7Z" class="cls-1"/><g id="ore"><path fill="#8dcaf0" d="M987.4 556.5V267.8L737.3 123.4l-250 144.4v288.7l250 144.4 250.1-144.4z"/><path fill="#266bb2" d="M737.3 123.4 538.9 585.6 733.2 692 666 315.3l169.3 96.8 142.6-144.4-240.6-144.3z"/><path fill="#0e0f0e" d="m1006.3 270.6-1.8-1.8v-1a17.2 17.2 0 0 0-8.5-15L746 108.6a17.2 17.2 0 0 0-17.3 0L478.7 253a17.2 17.2 0 0 0-8.6 14.9v288.7a17.2 17.2 0 0 0 8.6 14.9l250 144.3a17.2 17.2 0 0 0 17.2 0L996 571.4a17.2 17.2 0 0 0 8.6-15v-284Zm-351.2 94.3 59.4 303-149.8-86.5Zm90.5-216.8L958 270.6 836.3 393.7l-156.7-87.4ZM504.4 277.6l197.5-114-58.3 139.5-.6.1.2 1L534.7 564l-30.3-17.4Zm465.8 268.9L750.6 673.4l-63.4-323.5L831 430.1a17.2 17.2 0 0 0 20.6-3l118.6-120Z"/></g></svg>