<svg xmlns="http://www.w3.org/2000/svg" viewBox="0 0 1023.07 869.17"><defs><style>.cls-1{fill:#a5e8dd;}.cls-2{fill:#7173b0;}.cls-3{fill:#4f529f;}.cls-4{fill:#ec6463;}.cls-5{fill:#fff;}.cls-6{fill:#221f1d;}.cls-7{fill:#aeadd5;}.cls-8{fill:#999;}.cls-9{fill:#adadad;}.cls-10{fill:#ccc;}.cls-11,.cls-18{fill:#21558c;}.cls-12{fill:#2b398a;}.cls-13{fill:#e6e9ed;}.cls-14{fill:#ccd1d9;}.cls-15{fill:#e7aa42;}.cls-16{fill:#f6f1e1;}.cls-17{opacity:0.1;}.cls-18{font-size:30px;font-family:Facit-Semibold, Facit;font-weight:600;}.cls-19{letter-spacing:-0.05em;}</style></defs><g id="Ebene_8" data-name="Ebene 8"><rect class="cls-1" width="1023.07" height="869.17"/><path class="cls-2" d="M676.62,794s60.49-24.54,106.45-107.8c45.86-83.07,129.39-88.59,216.91-71.92,0,0-45.86,10-60.73,47.1-18.08,45.07-7.44,169.81-102.61,190.52C728,875.55,676.62,794,676.62,794Z"/><path class="cls-2" d="M850.4,621.8a136.81,136.81,0,0,0-38,25.72c73.54,42,71.31,165.88,45,197.57,31.15-14.19,47.59-42.21,57.5-72.89C919.57,676.05,867.54,633.23,850.4,621.8Z"/><path class="cls-2" d="M924.27,606.75a222.54,222.54,0,0,0-32.92,2.84c14.14,8.22,36.82,26,45.52,58.67.74-2.46,1.52-4.76,2.38-6.88a66,66,0,0,1,15.52-22.77C950.24,616,931.89,608.79,924.27,606.75Z"/><path class="cls-2" d="M772.42,704.11a297.11,297.11,0,0,1-22.57,30.77c29.92,51.5,6.2,103,.6,113.76a148.33,148.33,0,0,0,32.62,6.84C826.12,786.05,779.48,715.13,772.42,704.11Z"/><path class="cls-3" d="M749.85,734.88c-3.83,4.56-7.65,8.81-11.41,12.77-3.54,4.57-21.68,24-26.83,28.56L724,836.79a146.2,146.2,0,0,0,26.48,11.85C756.05,837.9,779.77,786.38,749.85,734.88Z"/><path class="cls-3" d="M812.38,647.52a159.71,159.71,0,0,0-29.31,38.68q-5.22,9.45-10.65,17.91c7.06,11,53.7,81.94,10.65,151.37a173.08,173.08,0,0,0,53.57-3.58,102.24,102.24,0,0,0,20.73-6.81C883.69,813.4,885.92,689.55,812.38,647.52Z"/><path class="cls-3" d="M891.35,609.59a162.38,162.38,0,0,0-41,12.21c17.14,11.43,69.17,54.25,64.47,150.4,12.11-37.46,14.48-78.89,22-103.94C928.17,635.59,905.49,617.81,891.35,609.59Z"/><path class="cls-3" d="M924.27,606.75c7.62,2,26,9.28,30.5,31.86C974,620,1000,614.28,1000,614.28,974.1,609.35,948.58,606.36,924.27,606.75Z"/><path class="cls-2" d="M618.86,542.26s-83.79,10.13-111.67,10.13-111.34-10.13-111.34-10.13S172.31,672.61,291.73,790.66l-2.28,41.21c-.24,13.92,10.32,25.35,23.43,25.35H421.23a23.42,23.42,0,0,0,23.17-21.34c4.44-52.19,63-49.66,63-49.66h0s58.52-2.53,62.95,49.66a23.43,23.43,0,0,0,23.17,21.34H701.84c13.11,0,23.67-11.43,23.43-25.35L723,790.66c119.42-118-104.12-248.4-104.12-248.4"/><g id="logo"><rect class="cls-4" x="382.82" y="770.01" width="239.89" height="2.75" transform="translate(-398.19 581.44) rotate(-45)"/><path class="cls-5" d="M594.79,615.1a25.31,25.31,0,0,0-27,38L441.48,779.37l9.12,9.12L577.1,662a25.33,25.33,0,1,0,17.69-46.89Zm6.74,27.4A12.44,12.44,0,1,1,592,627.7,12.43,12.43,0,0,1,601.53,642.5Z"/><path class="cls-5" d="M499.14,654.5c-49.26,0-79.54,36.61-79.54,82.25,0,23.09,8.48,44.2,23.77,59l21.28-21.29c-8.17-9.17-12.74-22.21-12.74-37.68,0-31,18.3-54,47.23-54,29.15,0,47.23,23,47.23,54S528.29,789,499.14,789a51.38,51.38,0,0,1-14.06-1.9L462.93,809.2A83.93,83.93,0,0,0,499.14,817c49.26,0,79.77-36.61,79.77-80.23C578.91,691.11,548.4,654.5,499.14,654.5Z"/><path class="cls-4" d="M464.65,774.43l-21.28,21.29a72,72,0,0,0,10.11,8.13l21.2-21.2A41.79,41.79,0,0,1,464.65,774.43Z"/></g><path class="cls-6" d="M396,577.74c-44.34,62.07-91.34,136.46-104.27,212.92-.46-.46-1.5-1.48-2.48-2.5-1.19-1.23-2.31-2.43-2.31-2.43C299.57,711.32,352.58,633,396,577.74Z"/><path class="cls-6" d="M618.7,577.74C663,639.81,710,714.2,723,790.66c.46-.46,1.5-1.48,2.48-2.5,1.19-1.23,2.31-2.43,2.31-2.43C715.14,711.32,662.13,633,618.7,577.74Z"/><g id="ear"><path id="head" class="cls-3" d="M759.34,313C891.86,124,829.29,61.46,829.29,61.46c-99.38-30.35-205.66,63.27-205.66,63.27S722.15,184.46,759.34,313Z"/><path id="head-2" data-name="head" class="cls-4" d="M759.34,313C891.86,124,829.29,61.46,829.29,61.46c-31.94-3.85-83.09,26.9-106.72,43.36C706.31,116.14,659.63,153,659.63,153,691.65,182.38,736.78,235,759.34,313Z"/></g><g id="ear-2" data-name="ear"><path id="head-3" data-name="head" class="cls-3" d="M255.09,313c-132.52-189.09-70-251.58-70-251.58,99.38-30.35,205.66,63.27,205.66,63.27S292.28,184.46,255.09,313Z"/><path id="head-4" data-name="head" class="cls-4" d="M255.09,313c-132.52-189.09-70-251.58-70-251.58,31.94-3.85,83.09,26.9,106.72,43.36C308.12,116.14,354.8,153,354.8,153,322.78,182.38,277.65,235,255.09,313Z"/></g><path class="cls-2" d="M759.34,313C699,83.16,507.51,94.56,507.51,94.56h0S316,83,255.7,312.9c-.86,3.29,0,5.86.31,10.36L506.25,389.5V390l1.28-.07L759,323.4C759.33,318.9,760.2,316.33,759.34,313Z"/><path class="cls-7" d="M857.8,441.74c-11.19-3.17-42.56-16.68-35.14-24.1,10.73-10.74,22.32-23,22.32-23C823.33,392,759,336.76,759,323.4,725.4,273.17,592.47,170,527.5,380.72c0,0-12.34-4.41-20.34-4.6v0c-8,.19-20.31,4.59-20.31,4.59-65-210.68-197.9-107.55-231.53-57.32,0,13.36-64.29,68.59-85.95,71.23,0,0,11.59,12.27,22.33,23,7.42,7.42-24,20.94-35.14,24.1,0,0,52.14,103.41,350.63,112.47h0C805.65,545.14,857.8,441.74,857.8,441.74Z"/><path class="cls-3" d="M463.4,405.3c-37.64-198.75-167.66-120.61-191.57-69.76-16,34.1-11.71,50.2-44.58,78.58-15,13-21.78,50.23,41.28,67.88,55.18,15.43,110.46,21.47,153.53-12.49C438.91,456.23,466.8,423.26,463.4,405.3Z"/><g id="auge"><circle class="cls-6" cx="364.85" cy="424.58" r="50.03"/><circle class="cls-5" cx="380.39" cy="404.2" r="18.01"/><circle class="cls-5" cx="346.79" cy="423" r="8.01"/></g><path class="cls-3" d="M551,405.3c37.63-198.75,167.66-120.61,191.57-69.76,16,34.1,11.71,50.2,44.58,78.58,15,13,21.78,50.23-41.28,67.88-55.19,15.43-110.46,21.47-153.53-12.49C575.48,456.23,547.59,423.26,551,405.3Z"/><g id="auge-2" data-name="auge"><circle class="cls-6" cx="649.54" cy="424.58" r="50.03"/><circle class="cls-5" cx="634" cy="404.2" r="18.01"/><circle class="cls-5" cx="667.59" cy="423" r="8.01"/></g><path class="cls-6" d="M543.26,477.17a3.16,3.16,0,0,0-3.17,3.17,14.89,14.89,0,0,1-29.78.45V454.56h0l16.43-19.62c1-1.86-.53-4-2.86-4H490.52c-2.33,0-3.87,2.16-2.86,4l16.43,19.62h0v26.57a14.88,14.88,0,0,1-29.75-.79,3.17,3.17,0,0,0-6.34,0,21.2,21.2,0,0,0,39.19,11.28h.05a21.2,21.2,0,0,0,39.19-11.28A3.17,3.17,0,0,0,543.26,477.17Z"/><path id="glasses" class="cls-6" d="M528.74,309.25s-14.36-2.4-21.55-2.4-21.55,2.4-21.55,2.4c-151.41-54.64-281.16-18.36-293.55-14.66a1.35,1.35,0,0,0-1,1.3v43.27a1.36,1.36,0,0,0,1.21,1.35c22.65,2.79,20.34,17.83,20.34,17.83,0,21.55,10.77,58.66,10.77,58.66s20.36,80.21,92.19,86.2c0,0,97,13.17,140.07-55.07,22-34.83,32.33-81.41,37.12-89.8S507.19,350,507.19,350s9.58,0,14.37,8.38,15.12,55,37.11,89.8c43.1,68.24,140.08,55.07,140.08,55.07,71.83-6,92.18-86.2,92.18-86.2s10.78-37.12,10.78-58.67c0,0-2.31-15,20.33-17.82a1.37,1.37,0,0,0,1.22-1.35V295.89a1.35,1.35,0,0,0-1-1.3C809.91,290.89,680.15,254.61,528.74,309.25ZM418.6,464.89c-46.69,32.32-99.37,27.53-125.71,18C262.6,471.83,227,429,237.82,338c0,0,6-35.91,85-34.72s126.43,10.46,138.88,39.51C468.88,359.53,461.74,435,418.6,464.89Zm302.9,18c-26.34,9.57-79,14.36-125.71-18C552.64,435,545.5,359.53,552.69,342.77c12.45-29,59.86-38.31,138.88-39.51s85,34.72,85,34.72C787.34,429,751.79,471.83,721.5,482.85Z"/><g id="laptop"><path class="cls-8" d="M785.52,475.26h-28L427.81,831.88H783.56a2.48,2.48,0,0,0,2.47-2.22l36.56-313.17A37.28,37.28,0,0,0,785.52,475.26Z"/><path class="cls-8" d="M247.18,475.26a37.28,37.28,0,0,0-37.07,41.23l36.55,313.17a2.48,2.48,0,0,0,2.47,2.22h62.14L641,475.26Z"/><polygon class="cls-9" points="641 475.26 311.27 831.88 427.81 831.88 757.54 475.26 641 475.26"/></g><g id="logo-2" data-name="logo"><rect class="cls-4" x="382.85" y="713.44" width="240.73" height="2.76" transform="translate(-358.07 565.19) rotate(-45)"/><path class="cls-5" d="M595.57,558a25.4,25.4,0,0,0-27.09,38.09L441.72,722.84l9.15,9.15,127-126.94A25.42,25.42,0,1,0,595.57,558Zm6.76,27.5a12.48,12.48,0,1,1-9.52-14.86A12.47,12.47,0,0,1,602.33,585.49Z"/><path class="cls-5" d="M499.58,597.53c-49.43,0-79.82,36.73-79.82,82.54,0,23.16,8.51,44.35,23.86,59.18L465,717.88c-8.21-9.21-12.79-22.29-12.79-37.81,0-31.06,18.37-54.2,47.39-54.2,29.26,0,47.4,23.14,47.4,54.2s-18.14,52.39-47.4,52.39a51.74,51.74,0,0,1-14.11-1.91l-22.22,22.22a84.12,84.12,0,0,0,36.33,7.81c49.44,0,80.05-36.74,80.05-80.51C579.63,634.26,549,597.53,499.58,597.53Z"/><path class="cls-4" d="M465,717.88l-21.36,21.37a73.17,73.17,0,0,0,10.14,8.16L475,726.12A41.59,41.59,0,0,1,465,717.88Z"/></g><rect class="cls-10" y="831.88" width="1023.07" height="37.29"/><g id="deckel"><path class="cls-11" d="M113,461.05v4.76H71.53v-4.76a4.76,4.76,0,0,1,4.76-4.77H108.2A4.77,4.77,0,0,1,113,461.05Z"/><path class="cls-12" d="M95.21,456.28v9.53H113v-4.76a4.77,4.77,0,0,0-4.77-4.77Z"/></g><path class="cls-13" d="M116.93,507.2H67.62a134,134,0,0,0,6.92-41.39H110A134,134,0,0,0,116.93,507.2Z"/><path class="cls-14" d="M110,465.81H92.26a134,134,0,0,0,6.92,41.39h17.75A134,134,0,0,1,110,465.81Z"/><path class="cls-15" d="M116.93,507.2H67.62c-10.29,32.34-28.55,74.51-28.55,104.2V827.1a6,6,0,0,0,6,6h93.17a5.93,5.93,0,0,0,5.94-5.88l1.31-142.66V611.4C145.49,581.71,127.22,539.54,116.93,507.2Z"/><path class="cls-16" d="M59,799.27h66.47a27.89,27.89,0,0,0,19-7.41l1-107.3V665.88a27.91,27.91,0,0,0-20-8.38H59a27.92,27.92,0,0,0-20,8.38v125A27.89,27.89,0,0,0,59,799.27Z"/><circle class="cls-11" cx="92.17" cy="712.4" r="31.28"/><path class="cls-16" d="M92.45,543C111.2,543,133,553.23,133,553.23a290.41,290.41,0,0,1,9.72,34.7,142.44,142.44,0,0,1-100.87.5,321.82,321.82,0,0,1,9.85-34.79S72.66,543,92.45,543Z"/><circle class="cls-11" cx="92.17" cy="571.43" r="15.5"/><path class="cls-17" d="M116.93,507.2H99.18c10.28,32.34,28.55,76.26,28.55,106v71.41s-3.51,111.62-4.1,138C123.42,832,117,833.1,117,833.1h21.19a6,6,0,0,0,6-5.94l1.34-142.6V613.62C145.67,579.68,127.22,539.54,116.93,507.2Z"/><text class="cls-18" transform="translate(55.55 779.69)">M<tspan class="cls-19" x="25.77" y="0">A</tspan><tspan x="42.45" y="0">TE</tspan></text></g></svg>