<?xml version="1.0" encoding="utf-8"?>
<!-- Generator: Adobe Illustrator 23.0.3, SVG Export Plug-In . SVG Version: 6.00 Build 0)  -->
<svg version="1.1" id="Ebene_1" xmlns="http://www.w3.org/2000/svg" xmlns:xlink="http://www.w3.org/1999/xlink" x="0px" y="0px"
	 viewBox="0 0 141.7 141.7" style="enable-background:new 0 0 141.7 141.7;" xml:space="preserve">
<style type="text/css">
	.st0{fill:#1D1D1B;}
</style>
<g>
	<g>
		<path class="st0" d="M93.5,70.1v-1.3c0-4.1-1.2-8.1-3.6-11.4c-0.9-1.4-2-2.6-3.2-3.6c3.1-3.9,4.8-8.8,4.7-13.8
			c-0.1-5.4-2.2-10.5-5.9-14.4c-8.2-8.6-21.8-8.9-30.4-0.7c-4.2,4-6.5,9.3-6.7,15.1c-0.1,5.1,1.5,10,4.7,14
			c-1.2,1.1-2.2,2.3-3.1,3.6c-2.3,3.4-3.6,7.3-3.6,11.4v1.3c-2.8,0.8-4.9,3.4-4.9,6.5c0,3.7,3,6.7,6.7,6.7c3.7,0,6.7-3,6.7-6.7
			c0-3.1-2-5.6-4.8-6.4v-1.3c0-6.9,4.2-13,10.6-15.5c0.9-0.4,1.4-1.4,1-2.4c-0.4-0.9-1.4-1.4-2.4-1c-1.2,0.5-2.3,1-3.3,1.7
			c-2.7-3.3-4.1-7.4-4-11.7c0.1-4.8,2.1-9.2,5.5-12.5c7.1-6.8,18.5-6.5,25.3,0.6c3.1,3.2,4.8,7.5,4.9,12c0.1,4.2-1.3,8.3-4,11.6
			c-1-0.6-2.1-1.2-3.3-1.6c-0.9-0.4-2,0.1-2.4,1c-0.4,0.9,0.1,2,1,2.4c6.4,2.5,10.6,8.6,10.6,15.5v1.3c-2.8,0.8-4.8,3.4-4.8,6.4
			c0,3.7,3,6.7,6.7,6.7s6.7-3,6.7-6.7C98.5,73.5,96.4,70.9,93.5,70.1z M51.2,76.6c0,1.7-1.4,3.1-3.1,3.1c-1.7,0-3.1-1.4-3.1-3.1
			s1.4-3.1,3.1-3.1C49.9,73.5,51.2,74.9,51.2,76.6z M91.8,79.6c-1.7,0-3.1-1.4-3.1-3.1s1.4-3.1,3.1-3.1s3.1,1.4,3.1,3.1
			S93.5,79.6,91.8,79.6z"/>
		<path class="st0" d="M80.1,85V66.6c0-5.6-4.6-10.1-10.2-10.2c-5.6,0-10.1,4.6-10.2,10.2V85c-2.8,0.8-4.9,3.4-4.9,6.4
			c0,3.7,3,6.7,6.7,6.7c3.7,0,6.7-3,6.7-6.7c0-3.1-2.1-5.7-4.9-6.4V66.6c0-3.6,2.9-6.5,6.5-6.5c3.6,0,6.5,2.9,6.5,6.5V85
			c-2.8,0.8-4.9,3.4-4.9,6.4c0,3.7,3,6.7,6.7,6.7c3.7,0,6.7-3,6.7-6.7C85,88.4,82.9,85.8,80.1,85z M64.6,91.4c0,1.7-1.4,3.1-3.1,3.1
			c-1.7,0-3.1-1.4-3.1-3.1c0-1.7,1.4-3.1,3.1-3.1C63.3,88.4,64.6,89.8,64.6,91.4z M78.3,94.5c-1.7,0-3.1-1.4-3.1-3.1
			c0-1.7,1.4-3.1,3.1-3.1s3.1,1.4,3.1,3.1C81.3,93.1,79.9,94.5,78.3,94.5z"/>
		<path class="st0" d="M72.2,45c0,1.2-1,2.2-2.2,2.2c-1.2,0-2.2-1-2.2-2.2c0-1-0.8-1.8-1.8-1.8S64,44,64,45c0,3.2,2.6,5.9,5.9,5.9
			s5.9-2.6,5.9-5.9c0-1-0.8-1.8-1.8-1.8S72.2,44,72.2,45z"/>
		<path class="st0" d="M61.9,34.5c-2.5-0.1-4.6,1.9-4.7,4.4c0,1,0.8,1.8,1.8,1.9c0,0,0,0,0.1,0c1,0,1.8-0.8,1.8-1.8
			c0-0.2,0.1-0.5,0.3-0.7c0.2-0.2,0.4-0.3,0.7-0.3c0.5,0,0.9,0.4,0.9,0.9c0,1,0.9,1.8,1.9,1.8c1,0,1.8-0.9,1.8-1.9
			C66.3,36.5,64.3,34.6,61.9,34.5z"/>
		<path class="st0" d="M75.3,40.8c1,0,1.8-0.8,1.8-1.8c0-0.2,0.1-0.5,0.3-0.7c0.2-0.2,0.4-0.3,0.7-0.3c0.5,0,0.9,0.4,0.9,0.9
			c0,1,0.9,1.8,1.9,1.8c1,0,1.8-0.9,1.8-1.9c-0.1-2.4-2-4.4-4.4-4.4c-2.5-0.1-4.6,1.9-4.7,4.4C73.4,40,74.2,40.8,75.3,40.8
			C75.2,40.8,75.3,40.8,75.3,40.8z"/>
	</g>
	<g id="text">
		<path class="st0" d="M48.1,116.8c0,1.7-0.3,2.9-1.1,3.9c-1.1,1.4-2.8,2.2-4.5,2.2c-1.9,0-3.7-1-4.7-2.6c-0.6-0.9-0.9-1.9-0.9-3.4
			v-4.4c0-0.9,0-1.1,0.2-1.5c0.3-0.6,0.9-0.9,1.5-0.9c0.6,0,1.2,0.3,1.5,0.9c0.2,0.4,0.2,0.6,0.2,1.5v4.7c0,1.2,0.9,2.2,2,2.2
			c0,0,0.1,0,0.1,0c0.8,0,1.6-0.5,1.8-1.2c0.2-0.4,0.3-0.7,0.3-1.8v-3.9c0-0.9,0-1.1,0.2-1.5c0.3-0.5,0.9-0.9,1.5-0.9
			c0.6,0,1.2,0.3,1.5,0.9c0.2,0.4,0.2,0.6,0.2,1.5L48.1,116.8z"/>
		<path class="st0" d="M54.1,114.4c0.8,0,1,0,1.4,0.2c0.5,0.3,0.9,0.9,0.9,1.5c0,0.6-0.3,1.2-0.9,1.5c-0.3,0.2-0.6,0.3-1.3,0.3h-1.6
			c-0.8,0-1.1,0-1.5-0.3c-0.6-0.3-0.9-0.9-0.9-1.5c0-0.6,0.3-1.2,0.9-1.5c0.4-0.2,0.6-0.2,1.5-0.2H54.1z"/>
		<path class="st0" d="M62.1,109.6c0,1,0,1.1,0,1.8c1-0.9,2.2-1.3,3.5-1.3c3.4,0,5.9,2.8,5.9,6.4c0,3.6-2.6,6.4-6,6.4
			c-1.4,0-2.4-0.4-3.5-1.3c-0.3,0.9-0.8,1.3-1.7,1.3c-0.6,0-1.2-0.3-1.4-0.7c-0.2-0.4-0.3-0.7-0.3-1.5v-13c0-0.9,0-1.1,0.2-1.4
			c0.3-0.6,0.9-0.9,1.5-0.9c0.6,0,1.2,0.3,1.5,0.9c0.2,0.4,0.2,0.5,0.2,1.4L62.1,109.6z M62,116.5c0,1.6,1.3,2.9,2.9,2.9
			c1.6,0,2.9-1.3,2.9-2.9c0-1.6-1.3-2.9-2.9-2.9C63.3,113.6,62,114.9,62,116.5C62,116.5,62,116.5,62,116.5L62,116.5z"/>
		<path class="st0" d="M73.3,115.3c0-2.8,2.5-5.2,5.3-5.2c1.4,0,2.7,0.5,3.7,1.4c2.2-2,5.7-1.8,7.7,0.4c0.9,1,1.4,2.3,1.4,3.6v5
			c0,0.8,0,1-0.2,1.4c-0.3,0.5-0.9,0.9-1.5,0.9c-0.6,0-1.2-0.3-1.5-0.9c-0.2-0.4-0.2-0.6-0.2-1.4v-4.3c0-0.9,0-1.2-0.2-1.6
			c-0.3-0.7-1-1.1-1.8-1.1c-0.7,0-1.3,0.3-1.6,0.9c-0.2,0.5-0.3,0.9-0.3,1.8v4.3c0,0.8-0.1,1-0.3,1.4c-0.3,0.5-0.9,0.9-1.5,0.9
			c-0.6,0-1.2-0.3-1.5-0.9c-0.2-0.4-0.2-0.6-0.2-1.4v-4.3c0-0.5,0-1-0.1-1.5c-0.3-0.8-1-1.3-1.8-1.2c-0.8,0-1.5,0.5-1.8,1.2
			c-0.1,0.5-0.2,1-0.2,1.5v4.3c0,0.8,0,1-0.2,1.4c-0.3,0.5-0.9,0.8-1.5,0.9c-0.6,0-1.2-0.3-1.5-0.9c-0.2-0.4-0.2-0.6-0.2-1.4
			L73.3,115.3z"/>
		<path class="st0" d="M103.5,111.3c0.9,0.7,1.2,1.1,1.2,1.8c0,1-0.8,1.7-1.8,1.7c-0.4,0-0.6-0.1-1.1-0.4c-0.8-0.6-1.2-0.8-2-0.8
			c-1.6,0-2.9,1.3-3,2.9s1.3,2.9,2.9,3l0,0c0.9,0,1-0.1,2.3-1c0.3-0.3,0.7-0.4,1-0.4c1,0,1.8,0.8,1.8,1.7c0,0,0,0,0,0
			c0,0.7-0.4,1.3-1.4,2c-1.1,0.7-2.4,1.1-3.7,1.1c-3.5,0.1-6.5-2.7-6.6-6.2c-0.1-3.5,2.7-6.5,6.2-6.6c0.1,0,0.2,0,0.3,0
			C101,110.1,102.4,110.5,103.5,111.3z"/>
	</g>
</g>
</svg>
